<svg xmlns="http://www.w3.org/2000/svg" width="1200" height="980" viewBox="0 0 1200 980">
<rect width="100%" height="100%" fill="#0b0d10"/>
<text x="28.0" y="38.0" font-size="24" fill="#ffffff" text-anchor="start" font-family="Arial, sans-serif">Real Mancini Packet - Accepted Timing - non_acceptance_protocol - level 6802.0</text>
<text x="28.0" y="65.0" font-size="15" fill="#d9e6ff" text-anchor="start" font-family="Arial, sans-serif">non_acceptance_protocol | level 6802.00 | packet mancini-es1m:2026-03-03T1940:6802.0:7287cc965506</text>
<line x1="70.0" y1="90.0" x2="1110.0" y2="90.0" stroke="#263241" stroke-width="1"/>
<text x="1120.0" y="95.0" font-size="12" fill="#aeb9c8" text-anchor="start" font-family="Arial, sans-serif">6816.00</text>
<line x1="70.0" y1="190.0" x2="1110.0" y2="190.0" stroke="#263241" stroke-width="1"/>
<text x="1120.0" y="195.0" font-size="12" fill="#aeb9c8" text-anchor="start" font-family="Arial, sans-serif">6811.40</text>
<line x1="70.0" y1="290.0" x2="1110.0" y2="290.0" stroke="#263241" stroke-width="1"/>
<text x="1120.0" y="295.0" font-size="12" fill="#aeb9c8" text-anchor="start" font-family="Arial, sans-serif">6806.80</text>
<line x1="70.0" y1="390.0" x2="1110.0" y2="390.0" stroke="#263241" stroke-width="1"/>
<text x="1120.0" y="395.0" font-size="12" fill="#aeb9c8" text-anchor="start" font-family="Arial, sans-serif">6802.20</text>
<line x1="70.0" y1="490.0" x2="1110.0" y2="490.0" stroke="#263241" stroke-width="1"/>
<text x="1120.0" y="495.0" font-size="12" fill="#aeb9c8" text-anchor="start" font-family="Arial, sans-serif">6797.60</text>
<line x1="70.0" y1="590.0" x2="1110.0" y2="590.0" stroke="#263241" stroke-width="1"/>
<text x="1120.0" y="595.0" font-size="12" fill="#aeb9c8" text-anchor="start" font-family="Arial, sans-serif">6793.00</text>
<line x1="70.0" y1="394.3" x2="1110.0" y2="394.3" stroke="#f4d35e" stroke-width="2"/>
<text x="78.0" y="386.3" font-size="13" fill="#f4d35e" text-anchor="start" font-family="Arial, sans-serif">reclaimed level 6802.00</text>
<line x1="70.0" y1="285.7" x2="1110.0" y2="285.7" stroke="#5bc0eb" stroke-width="1.5" stroke-dasharray="8 6"/>
<text x="78.0" y="277.7" font-size="13" fill="#5bc0eb" text-anchor="start" font-family="Arial, sans-serif">non-acceptance danger line level + 5 = 6807.00</text>
<line x1="70.0" y1="546.5" x2="1110.0" y2="546.5" stroke="#f25f5c" stroke-width="1.5" stroke-dasharray="5 5"/>
<text x="78.0" y="564.5" font-size="13" fill="#f25f5c" text-anchor="start" font-family="Arial, sans-serif">invalidation anchor 6795.00</text>
<line x1="86.8" y1="388.9" x2="86.8" y2="492.2" stroke="#32d074" stroke-width="1"/>
<rect x="72.0" y="399.8" width="29.5" height="48.9" fill="#32d074" opacity="0.9"/>
<line x1="120.3" y1="367.2" x2="120.3" y2="437.8" stroke="#ff5c5c" stroke-width="1"/>
<rect x="105.5" y="405.2" width="29.5" height="10.9" fill="#ff5c5c" opacity="0.9"/>
<line x1="153.9" y1="361.7" x2="153.9" y2="448.7" stroke="#32d074" stroke-width="1"/>
<rect x="139.1" y="399.8" width="29.5" height="10.9" fill="#32d074" opacity="0.9"/>
<line x1="187.4" y1="388.9" x2="187.4" y2="470.4" stroke="#32d074" stroke-width="1"/>
<rect x="172.6" y="388.9" width="29.5" height="10.9" fill="#32d074" opacity="0.9"/>
<line x1="221.0" y1="356.3" x2="221.0" y2="459.6" stroke="#ff5c5c" stroke-width="1"/>
<rect x="206.2" y="394.3" width="29.5" height="54.3" fill="#ff5c5c" opacity="0.9"/>
<line x1="254.5" y1="399.8" x2="254.5" y2="513.9" stroke="#ff5c5c" stroke-width="1"/>
<rect x="239.7" y="454.1" width="29.5" height="48.9" fill="#ff5c5c" opacity="0.9"/>
<line x1="288.1" y1="437.8" x2="288.1" y2="541.1" stroke="#32d074" stroke-width="1"/>
<rect x="273.3" y="486.7" width="29.5" height="16.3" fill="#32d074" opacity="0.9"/>
<line x1="288.1" y1="90.0" x2="288.1" y2="590.0" stroke="#ff8c42" stroke-width="2" stroke-dasharray="4 4"/>
<text x="294.1" y="108.0" font-size="12" fill="#ffb37a" text-anchor="start" font-family="Arial, sans-serif">trap candle</text>
<line x1="321.6" y1="416.1" x2="321.6" y2="513.9" stroke="#32d074" stroke-width="1"/>
<rect x="306.8" y="454.1" width="29.5" height="32.6" fill="#32d074" opacity="0.9"/>
<line x1="355.2" y1="427.0" x2="355.2" y2="492.2" stroke="#ff5c5c" stroke-width="1"/>
<rect x="340.4" y="448.7" width="29.5" height="38.0" fill="#ff5c5c" opacity="0.9"/>
<line x1="388.7" y1="372.6" x2="388.7" y2="508.5" stroke="#32d074" stroke-width="1"/>
<rect x="373.9" y="475.9" width="29.5" height="5.4" fill="#32d074" opacity="0.9"/>
<line x1="422.3" y1="356.3" x2="422.3" y2="470.4" stroke="#32d074" stroke-width="1"/>
<rect x="407.5" y="372.6" width="29.5" height="97.8" fill="#32d074" opacity="0.9"/>
<line x1="455.8" y1="356.3" x2="455.8" y2="410.7" stroke="#ff5c5c" stroke-width="1"/>
<rect x="441.0" y="383.5" width="29.5" height="16.3" fill="#ff5c5c" opacity="0.9"/>
<line x1="489.4" y1="340.0" x2="489.4" y2="405.2" stroke="#32d074" stroke-width="1"/>
<rect x="474.6" y="356.3" width="29.5" height="43.5" fill="#32d074" opacity="0.9"/>
<line x1="522.9" y1="209.6" x2="522.9" y2="345.4" stroke="#32d074" stroke-width="1"/>
<rect x="508.1" y="253.0" width="29.5" height="92.4" fill="#32d074" opacity="0.9"/>
<line x1="556.5" y1="209.6" x2="556.5" y2="285.7" stroke="#ff5c5c" stroke-width="1"/>
<rect x="541.7" y="247.6" width="29.5" height="32.6" fill="#ff5c5c" opacity="0.9"/>
<line x1="590.0" y1="220.4" x2="590.0" y2="307.4" stroke="#32d074" stroke-width="1"/>
<rect x="575.2" y="225.9" width="29.5" height="59.8" fill="#32d074" opacity="0.9"/>
<line x1="590.0" y1="90.0" x2="590.0" y2="590.0" stroke="#7bd88f" stroke-width="2" stroke-dasharray="4 4"/>
<text x="596.0" y="126.0" font-size="12" fill="#a7f3b7" text-anchor="start" font-family="Arial, sans-serif">first reclaim close</text>
<line x1="623.5" y1="225.9" x2="623.5" y2="323.7" stroke="#ff5c5c" stroke-width="1"/>
<rect x="608.8" y="231.3" width="29.5" height="38.0" fill="#ff5c5c" opacity="0.9"/>
<line x1="657.1" y1="166.1" x2="657.1" y2="280.2" stroke="#32d074" stroke-width="1"/>
<rect x="642.3" y="209.6" width="29.5" height="54.3" fill="#32d074" opacity="0.9"/>
<line x1="690.6" y1="133.5" x2="690.6" y2="209.6" stroke="#32d074" stroke-width="1"/>
<rect x="675.9" y="182.4" width="29.5" height="21.7" fill="#32d074" opacity="0.9"/>
<line x1="724.2" y1="160.7" x2="724.2" y2="198.7" stroke="#ff5c5c" stroke-width="1"/>
<rect x="709.4" y="177.0" width="29.5" height="16.3" fill="#ff5c5c" opacity="0.9"/>
<line x1="757.7" y1="171.5" x2="757.7" y2="280.2" stroke="#ff5c5c" stroke-width="1"/>
<rect x="743.0" y="193.3" width="29.5" height="81.5" fill="#ff5c5c" opacity="0.9"/>
<line x1="791.3" y1="263.9" x2="791.3" y2="367.2" stroke="#ff5c5c" stroke-width="1"/>
<rect x="776.5" y="274.8" width="29.5" height="87.0" fill="#ff5c5c" opacity="0.9"/>
<line x1="824.8" y1="307.4" x2="824.8" y2="361.7" stroke="#32d074" stroke-width="1"/>
<rect x="810.1" y="350.9" width="29.5" height="2.0" fill="#32d074" opacity="0.9"/>
<line x1="858.4" y1="302.0" x2="858.4" y2="427.0" stroke="#ff5c5c" stroke-width="1"/>
<rect x="843.6" y="345.4" width="29.5" height="76.1" fill="#ff5c5c" opacity="0.9"/>
<line x1="891.9" y1="410.7" x2="891.9" y2="470.4" stroke="#ff5c5c" stroke-width="1"/>
<rect x="877.2" y="416.1" width="29.5" height="21.7" fill="#ff5c5c" opacity="0.9"/>
<line x1="925.5" y1="378.0" x2="925.5" y2="492.2" stroke="#32d074" stroke-width="1"/>
<rect x="910.7" y="394.3" width="29.5" height="38.0" fill="#32d074" opacity="0.9"/>
<line x1="959.0" y1="318.3" x2="959.0" y2="421.5" stroke="#32d074" stroke-width="1"/>
<rect x="944.3" y="334.6" width="29.5" height="59.8" fill="#32d074" opacity="0.9"/>
<line x1="992.6" y1="302.0" x2="992.6" y2="421.5" stroke="#ff5c5c" stroke-width="1"/>
<rect x="977.8" y="323.7" width="29.5" height="87.0" fill="#ff5c5c" opacity="0.9"/>
<line x1="1026.1" y1="405.2" x2="1026.1" y2="470.4" stroke="#ff5c5c" stroke-width="1"/>
<rect x="1011.4" y="416.1" width="29.5" height="27.2" fill="#ff5c5c" opacity="0.9"/>
<line x1="1059.7" y1="361.7" x2="1059.7" y2="459.6" stroke="#32d074" stroke-width="1"/>
<rect x="1044.9" y="361.7" width="29.5" height="81.5" fill="#32d074" opacity="0.9"/>
<line x1="1093.2" y1="285.7" x2="1093.2" y2="361.7" stroke="#32d074" stroke-width="1"/>
<rect x="1078.5" y="318.3" width="29.5" height="38.0" fill="#32d074" opacity="0.9"/>
<rect x="70" y="610" width="1040" height="340" fill="#141922" stroke="#344156" rx="6"/>
<text x="86.0" y="636.0" font-size="14" fill="#f1f5f9" text-anchor="start" font-family="Arial, sans-serif">source: longer-mancini-logs-2</text>
<text x="606.0" y="636.0" font-size="14" fill="#f1f5f9" text-anchor="start" font-family="Arial, sans-serif">source kind: daily_plan_text</text>
<text x="86.0" y="660.0" font-size="14" fill="#f1f5f9" text-anchor="start" font-family="Arial, sans-serif">timezone policy: barchart-raw</text>
<text x="606.0" y="660.0" font-size="14" fill="#f1f5f9" text-anchor="start" font-family="Arial, sans-serif">flush points: 6.75</text>
<text x="86.0" y="684.0" font-size="14" fill="#f1f5f9" text-anchor="start" font-family="Arial, sans-serif">reclaim minutes from trap: 9.00</text>
<text x="606.0" y="684.0" font-size="14" fill="#f1f5f9" text-anchor="start" font-family="Arial, sans-serif">acceptance closes: 8</text>
<text x="86.0" y="708.0" font-size="14" fill="#f1f5f9" text-anchor="start" font-family="Arial, sans-serif">non-acceptance held bars: 6</text>
<text x="606.0" y="708.0" font-size="14" fill="#f1f5f9" text-anchor="start" font-family="Arial, sans-serif">MFE 15m: 7.00 | MAE 15m: 9.50</text>
<text x="86.0" y="732.0" font-size="14" fill="#f1f5f9" text-anchor="start" font-family="Arial, sans-serif">research only - verify visually before OCR reuse</text>
<text x="86.0" y="770.0" font-size="13" fill="#f4d35e" text-anchor="start" font-family="Arial, sans-serif">newsletter/source text:</text>
<text x="86.0" y="790.0" font-size="13" fill="#f1f5f9" text-anchor="start" font-family="Arial, sans-serif">Supports are: 6802</text>
<text x="86.0" y="844.0" font-size="13" fill="#5bc0eb" text-anchor="start" font-family="Arial, sans-serif">case note:</text>
<text x="86.0" y="864.0" font-size="13" fill="#f1f5f9" text-anchor="start" font-family="Arial, sans-serif">Source-priority real Mancini packet. Use the newsletter/source text first; OHLC metrics and deterministic labels are secondary. Source</text>
<text x="86.0" y="882.0" font-size="13" fill="#f1f5f9" text-anchor="start" font-family="Arial, sans-serif">class=support_resistance_list; stat policy=included in timing statistics.</text>
</svg>