<svg xmlns="http://www.w3.org/2000/svg" width="1200" height="980" viewBox="0 0 1200 980">
<rect width="100%" height="100%" fill="#0b0d10"/>
<text x="28.0" y="38.0" font-size="24" fill="#ffffff" text-anchor="start" font-family="Arial, sans-serif">Real Mancini Packet - Accepted Timing - non_acceptance_protocol - level 6853.0</text>
<text x="28.0" y="65.0" font-size="15" fill="#d9e6ff" text-anchor="start" font-family="Arial, sans-serif">non_acceptance_protocol | level 6853.00 | packet mancini-es1m:2026-03-04T0912:6853.0:4e1e52046e44</text>
<line x1="70.0" y1="90.0" x2="1110.0" y2="90.0" stroke="#263241" stroke-width="1"/>
<text x="1120.0" y="95.0" font-size="12" fill="#aeb9c8" text-anchor="start" font-family="Arial, sans-serif">6888.25</text>
<line x1="70.0" y1="190.0" x2="1110.0" y2="190.0" stroke="#263241" stroke-width="1"/>
<text x="1120.0" y="195.0" font-size="12" fill="#aeb9c8" text-anchor="start" font-family="Arial, sans-serif">6876.10</text>
<line x1="70.0" y1="290.0" x2="1110.0" y2="290.0" stroke="#263241" stroke-width="1"/>
<text x="1120.0" y="295.0" font-size="12" fill="#aeb9c8" text-anchor="start" font-family="Arial, sans-serif">6863.95</text>
<line x1="70.0" y1="390.0" x2="1110.0" y2="390.0" stroke="#263241" stroke-width="1"/>
<text x="1120.0" y="395.0" font-size="12" fill="#aeb9c8" text-anchor="start" font-family="Arial, sans-serif">6851.80</text>
<line x1="70.0" y1="490.0" x2="1110.0" y2="490.0" stroke="#263241" stroke-width="1"/>
<text x="1120.0" y="495.0" font-size="12" fill="#aeb9c8" text-anchor="start" font-family="Arial, sans-serif">6839.65</text>
<line x1="70.0" y1="590.0" x2="1110.0" y2="590.0" stroke="#263241" stroke-width="1"/>
<text x="1120.0" y="595.0" font-size="12" fill="#aeb9c8" text-anchor="start" font-family="Arial, sans-serif">6827.50</text>
<line x1="70.0" y1="380.1" x2="1110.0" y2="380.1" stroke="#f4d35e" stroke-width="2"/>
<text x="78.0" y="372.1" font-size="13" fill="#f4d35e" text-anchor="start" font-family="Arial, sans-serif">reclaimed level 6853.00</text>
<line x1="70.0" y1="339.0" x2="1110.0" y2="339.0" stroke="#5bc0eb" stroke-width="1.5" stroke-dasharray="8 6"/>
<text x="78.0" y="331.0" font-size="13" fill="#5bc0eb" text-anchor="start" font-family="Arial, sans-serif">non-acceptance danger line level + 5 = 6858.00</text>
<line x1="70.0" y1="573.5" x2="1110.0" y2="573.5" stroke="#f25f5c" stroke-width="1.5" stroke-dasharray="5 5"/>
<text x="78.0" y="591.5" font-size="13" fill="#f25f5c" text-anchor="start" font-family="Arial, sans-serif">invalidation anchor 6829.50</text>
<line x1="86.8" y1="530.3" x2="86.8" y2="561.2" stroke="#32d074" stroke-width="1"/>
<rect x="72.0" y="548.8" width="29.5" height="2.0" fill="#32d074" opacity="0.9"/>
<line x1="120.3" y1="542.7" x2="120.3" y2="561.2" stroke="#ff5c5c" stroke-width="1"/>
<rect x="105.5" y="550.9" width="29.5" height="8.2" fill="#ff5c5c" opacity="0.9"/>
<line x1="153.9" y1="518.0" x2="153.9" y2="571.5" stroke="#32d074" stroke-width="1"/>
<rect x="139.1" y="518.0" width="29.5" height="43.2" fill="#32d074" opacity="0.9"/>
<line x1="153.9" y1="90.0" x2="153.9" y2="590.0" stroke="#ff8c42" stroke-width="2" stroke-dasharray="4 4"/>
<text x="159.9" y="108.0" font-size="12" fill="#ffb37a" text-anchor="start" font-family="Arial, sans-serif">trap candle</text>
<line x1="187.4" y1="411.0" x2="187.4" y2="518.0" stroke="#32d074" stroke-width="1"/>
<rect x="172.6" y="450.1" width="29.5" height="67.9" fill="#32d074" opacity="0.9"/>
<line x1="221.0" y1="425.4" x2="221.0" y2="462.4" stroke="#32d074" stroke-width="1"/>
<rect x="206.2" y="441.9" width="29.5" height="8.2" fill="#32d074" opacity="0.9"/>
<line x1="254.5" y1="427.4" x2="254.5" y2="476.8" stroke="#ff5c5c" stroke-width="1"/>
<rect x="239.7" y="439.8" width="29.5" height="24.7" fill="#ff5c5c" opacity="0.9"/>
<line x1="288.1" y1="454.2" x2="288.1" y2="555.0" stroke="#ff5c5c" stroke-width="1"/>
<rect x="273.3" y="462.4" width="29.5" height="84.4" fill="#ff5c5c" opacity="0.9"/>
<line x1="321.6" y1="491.2" x2="321.6" y2="561.2" stroke="#32d074" stroke-width="1"/>
<rect x="306.8" y="503.6" width="29.5" height="45.3" fill="#32d074" opacity="0.9"/>
<line x1="355.2" y1="460.4" x2="355.2" y2="511.8" stroke="#32d074" stroke-width="1"/>
<rect x="340.4" y="489.2" width="29.5" height="12.3" fill="#32d074" opacity="0.9"/>
<line x1="388.7" y1="435.7" x2="388.7" y2="520.0" stroke="#32d074" stroke-width="1"/>
<rect x="373.9" y="452.1" width="29.5" height="39.1" fill="#32d074" opacity="0.9"/>
<line x1="422.3" y1="419.2" x2="422.3" y2="464.5" stroke="#32d074" stroke-width="1"/>
<rect x="407.5" y="421.3" width="29.5" height="28.8" fill="#32d074" opacity="0.9"/>
<line x1="455.8" y1="371.9" x2="455.8" y2="431.6" stroke="#32d074" stroke-width="1"/>
<rect x="441.0" y="380.1" width="29.5" height="41.2" fill="#32d074" opacity="0.9"/>
<line x1="489.4" y1="359.5" x2="489.4" y2="392.5" stroke="#32d074" stroke-width="1"/>
<rect x="474.6" y="374.0" width="29.5" height="4.1" fill="#32d074" opacity="0.9"/>
<line x1="522.9" y1="355.4" x2="522.9" y2="384.2" stroke="#32d074" stroke-width="1"/>
<rect x="508.1" y="361.6" width="29.5" height="12.3" fill="#32d074" opacity="0.9"/>
<line x1="556.5" y1="359.5" x2="556.5" y2="427.4" stroke="#ff5c5c" stroke-width="1"/>
<rect x="541.7" y="359.5" width="29.5" height="16.5" fill="#ff5c5c" opacity="0.9"/>
<line x1="590.0" y1="351.3" x2="590.0" y2="384.2" stroke="#32d074" stroke-width="1"/>
<rect x="575.2" y="353.4" width="29.5" height="24.7" fill="#32d074" opacity="0.9"/>
<line x1="590.0" y1="90.0" x2="590.0" y2="590.0" stroke="#7bd88f" stroke-width="2" stroke-dasharray="4 4"/>
<text x="596.0" y="126.0" font-size="12" fill="#a7f3b7" text-anchor="start" font-family="Arial, sans-serif">first reclaim close</text>
<line x1="623.5" y1="322.5" x2="623.5" y2="357.5" stroke="#32d074" stroke-width="1"/>
<rect x="608.8" y="324.6" width="29.5" height="28.8" fill="#32d074" opacity="0.9"/>
<line x1="657.1" y1="320.5" x2="657.1" y2="398.6" stroke="#ff5c5c" stroke-width="1"/>
<rect x="642.3" y="324.6" width="29.5" height="41.2" fill="#ff5c5c" opacity="0.9"/>
<line x1="690.6" y1="332.8" x2="690.6" y2="374.0" stroke="#32d074" stroke-width="1"/>
<rect x="675.9" y="334.9" width="29.5" height="28.8" fill="#32d074" opacity="0.9"/>
<line x1="724.2" y1="316.3" x2="724.2" y2="347.2" stroke="#32d074" stroke-width="1"/>
<rect x="709.4" y="326.6" width="29.5" height="6.2" fill="#32d074" opacity="0.9"/>
<line x1="757.7" y1="299.9" x2="757.7" y2="339.0" stroke="#32d074" stroke-width="1"/>
<rect x="743.0" y="312.2" width="29.5" height="14.4" fill="#32d074" opacity="0.9"/>
<line x1="791.3" y1="291.6" x2="791.3" y2="314.3" stroke="#32d074" stroke-width="1"/>
<rect x="776.5" y="299.9" width="29.5" height="12.3" fill="#32d074" opacity="0.9"/>
<line x1="824.8" y1="256.7" x2="824.8" y2="306.0" stroke="#32d074" stroke-width="1"/>
<rect x="810.1" y="262.8" width="29.5" height="37.0" fill="#32d074" opacity="0.9"/>
<line x1="858.4" y1="229.9" x2="858.4" y2="277.2" stroke="#32d074" stroke-width="1"/>
<rect x="843.6" y="232.0" width="29.5" height="28.8" fill="#32d074" opacity="0.9"/>
<line x1="891.9" y1="194.9" x2="891.9" y2="232.0" stroke="#32d074" stroke-width="1"/>
<rect x="877.2" y="197.0" width="29.5" height="32.9" fill="#32d074" opacity="0.9"/>
<line x1="925.5" y1="186.7" x2="925.5" y2="207.3" stroke="#32d074" stroke-width="1"/>
<rect x="910.7" y="190.8" width="29.5" height="6.2" fill="#32d074" opacity="0.9"/>
<line x1="959.0" y1="178.5" x2="959.0" y2="203.2" stroke="#32d074" stroke-width="1"/>
<rect x="944.3" y="188.8" width="29.5" height="2.1" fill="#32d074" opacity="0.9"/>
<line x1="992.6" y1="168.2" x2="992.6" y2="213.5" stroke="#32d074" stroke-width="1"/>
<rect x="977.8" y="170.2" width="29.5" height="18.5" fill="#32d074" opacity="0.9"/>
<line x1="1026.1" y1="170.2" x2="1026.1" y2="205.2" stroke="#ff5c5c" stroke-width="1"/>
<rect x="1011.4" y="172.3" width="29.5" height="28.8" fill="#ff5c5c" opacity="0.9"/>
<line x1="1059.7" y1="139.4" x2="1059.7" y2="207.3" stroke="#32d074" stroke-width="1"/>
<rect x="1044.9" y="141.4" width="29.5" height="57.6" fill="#32d074" opacity="0.9"/>
<line x1="1093.2" y1="106.5" x2="1093.2" y2="147.6" stroke="#32d074" stroke-width="1"/>
<rect x="1078.5" y="131.2" width="29.5" height="10.3" fill="#32d074" opacity="0.9"/>
<rect x="70" y="610" width="1040" height="340" fill="#141922" stroke="#344156" rx="6"/>
<text x="86.0" y="636.0" font-size="14" fill="#f1f5f9" text-anchor="start" font-family="Arial, sans-serif">source: longer-mancini-logs-2</text>
<text x="606.0" y="636.0" font-size="14" fill="#f1f5f9" text-anchor="start" font-family="Arial, sans-serif">source kind: daily_plan_text</text>
<text x="86.0" y="660.0" font-size="14" fill="#f1f5f9" text-anchor="start" font-family="Arial, sans-serif">timezone policy: barchart-raw</text>
<text x="606.0" y="660.0" font-size="14" fill="#f1f5f9" text-anchor="start" font-family="Arial, sans-serif">flush points: 23.25</text>
<text x="86.0" y="684.0" font-size="14" fill="#f1f5f9" text-anchor="start" font-family="Arial, sans-serif">reclaim minutes from trap: 13.00</text>
<text x="606.0" y="684.0" font-size="14" fill="#f1f5f9" text-anchor="start" font-family="Arial, sans-serif">acceptance closes: 16</text>
<text x="86.0" y="708.0" font-size="14" fill="#f1f5f9" text-anchor="start" font-family="Arial, sans-serif">non-acceptance held bars: 13</text>
<text x="606.0" y="708.0" font-size="14" fill="#f1f5f9" text-anchor="start" font-family="Arial, sans-serif">MFE 15m: 33.00 | MAE 15m: 2.50</text>
<text x="86.0" y="732.0" font-size="14" fill="#f1f5f9" text-anchor="start" font-family="Arial, sans-serif">research only - verify visually before OCR reuse</text>
<text x="86.0" y="770.0" font-size="13" fill="#f4d35e" text-anchor="start" font-family="Arial, sans-serif">newsletter/source text:</text>
<text x="86.0" y="790.0" font-size="13" fill="#f1f5f9" text-anchor="start" font-family="Arial, sans-serif">Monday Evening, The Start of the Sell, and the Possible 6853 Failed Breakdown We closed up yesterday after a monster Failed Breakdown and</text>
<text x="86.0" y="808.0" font-size="13" fill="#f1f5f9" text-anchor="start" font-family="Arial, sans-serif">all-day rally.</text>
<text x="86.0" y="844.0" font-size="13" fill="#5bc0eb" text-anchor="start" font-family="Arial, sans-serif">case note:</text>
<text x="86.0" y="864.0" font-size="13" fill="#f1f5f9" text-anchor="start" font-family="Arial, sans-serif">Source-priority real Mancini packet. Use the newsletter/source text first; OHLC metrics and deterministic labels are secondary. Source</text>
<text x="86.0" y="882.0" font-size="13" fill="#f1f5f9" text-anchor="start" font-family="Arial, sans-serif">class=explicit_mancini_narrative; stat policy=included in timing statistics.</text>
</svg>