<svg xmlns="http://www.w3.org/2000/svg" width="1200" height="980" viewBox="0 0 1200 980">
<rect width="100%" height="100%" fill="#0b0d10"/>
<text x="28.0" y="38.0" font-size="24" fill="#ffffff" text-anchor="start" font-family="Arial, sans-serif">Real Mancini Packet - Accepted Timing - non_acceptance_protocol - level 6774.0</text>
<text x="28.0" y="65.0" font-size="15" fill="#d9e6ff" text-anchor="start" font-family="Arial, sans-serif">non_acceptance_protocol | level 6774.00 | packet mancini-es1m:2026-03-09T1927:6774.0:2758841277d0</text>
<line x1="70.0" y1="90.0" x2="1110.0" y2="90.0" stroke="#263241" stroke-width="1"/>
<text x="1120.0" y="95.0" font-size="12" fill="#aeb9c8" text-anchor="start" font-family="Arial, sans-serif">6791.00</text>
<line x1="70.0" y1="190.0" x2="1110.0" y2="190.0" stroke="#263241" stroke-width="1"/>
<text x="1120.0" y="195.0" font-size="12" fill="#aeb9c8" text-anchor="start" font-family="Arial, sans-serif">6784.85</text>
<line x1="70.0" y1="290.0" x2="1110.0" y2="290.0" stroke="#263241" stroke-width="1"/>
<text x="1120.0" y="295.0" font-size="12" fill="#aeb9c8" text-anchor="start" font-family="Arial, sans-serif">6778.70</text>
<line x1="70.0" y1="390.0" x2="1110.0" y2="390.0" stroke="#263241" stroke-width="1"/>
<text x="1120.0" y="395.0" font-size="12" fill="#aeb9c8" text-anchor="start" font-family="Arial, sans-serif">6772.55</text>
<line x1="70.0" y1="490.0" x2="1110.0" y2="490.0" stroke="#263241" stroke-width="1"/>
<text x="1120.0" y="495.0" font-size="12" fill="#aeb9c8" text-anchor="start" font-family="Arial, sans-serif">6766.40</text>
<line x1="70.0" y1="590.0" x2="1110.0" y2="590.0" stroke="#263241" stroke-width="1"/>
<text x="1120.0" y="595.0" font-size="12" fill="#aeb9c8" text-anchor="start" font-family="Arial, sans-serif">6760.25</text>
<line x1="70.0" y1="366.4" x2="1110.0" y2="366.4" stroke="#f4d35e" stroke-width="2"/>
<text x="78.0" y="358.4" font-size="13" fill="#f4d35e" text-anchor="start" font-family="Arial, sans-serif">reclaimed level 6774.00</text>
<line x1="70.0" y1="285.1" x2="1110.0" y2="285.1" stroke="#5bc0eb" stroke-width="1.5" stroke-dasharray="8 6"/>
<text x="78.0" y="277.1" font-size="13" fill="#5bc0eb" text-anchor="start" font-family="Arial, sans-serif">non-acceptance danger line level + 5 = 6779.00</text>
<line x1="70.0" y1="557.5" x2="1110.0" y2="557.5" stroke="#f25f5c" stroke-width="1.5" stroke-dasharray="5 5"/>
<text x="78.0" y="575.5" font-size="13" fill="#f25f5c" text-anchor="start" font-family="Arial, sans-serif">invalidation anchor 6762.25</text>
<line x1="86.8" y1="492.4" x2="86.8" y2="541.2" stroke="#ff5c5c" stroke-width="1"/>
<rect x="72.0" y="496.5" width="29.5" height="20.3" fill="#ff5c5c" opacity="0.9"/>
<line x1="120.3" y1="496.5" x2="120.3" y2="553.4" stroke="#ff5c5c" stroke-width="1"/>
<rect x="105.5" y="512.8" width="29.5" height="36.6" fill="#ff5c5c" opacity="0.9"/>
<line x1="120.3" y1="90.0" x2="120.3" y2="590.0" stroke="#ff8c42" stroke-width="2" stroke-dasharray="4 4"/>
<text x="126.3" y="108.0" font-size="12" fill="#ffb37a" text-anchor="start" font-family="Arial, sans-serif">trap candle</text>
<line x1="153.9" y1="525.0" x2="153.9" y2="553.4" stroke="#32d074" stroke-width="1"/>
<rect x="139.1" y="529.0" width="29.5" height="16.3" fill="#32d074" opacity="0.9"/>
<line x1="187.4" y1="484.3" x2="187.4" y2="533.1" stroke="#32d074" stroke-width="1"/>
<rect x="172.6" y="492.4" width="29.5" height="32.5" fill="#32d074" opacity="0.9"/>
<line x1="221.0" y1="427.4" x2="221.0" y2="496.5" stroke="#32d074" stroke-width="1"/>
<rect x="206.2" y="443.7" width="29.5" height="52.8" fill="#32d074" opacity="0.9"/>
<line x1="254.5" y1="435.5" x2="254.5" y2="480.2" stroke="#32d074" stroke-width="1"/>
<rect x="239.7" y="435.5" width="29.5" height="4.1" fill="#32d074" opacity="0.9"/>
<line x1="288.1" y1="411.1" x2="288.1" y2="455.9" stroke="#32d074" stroke-width="1"/>
<rect x="273.3" y="411.1" width="29.5" height="28.5" fill="#32d074" opacity="0.9"/>
<line x1="321.6" y1="358.3" x2="321.6" y2="419.3" stroke="#32d074" stroke-width="1"/>
<rect x="306.8" y="366.4" width="29.5" height="44.7" fill="#32d074" opacity="0.9"/>
<line x1="355.2" y1="342.0" x2="355.2" y2="398.9" stroke="#ff5c5c" stroke-width="1"/>
<rect x="340.4" y="362.4" width="29.5" height="32.5" fill="#ff5c5c" opacity="0.9"/>
<line x1="388.7" y1="358.3" x2="388.7" y2="419.3" stroke="#32d074" stroke-width="1"/>
<rect x="373.9" y="374.6" width="29.5" height="20.3" fill="#32d074" opacity="0.9"/>
<line x1="422.3" y1="350.2" x2="422.3" y2="398.9" stroke="#32d074" stroke-width="1"/>
<rect x="407.5" y="366.4" width="29.5" height="8.1" fill="#32d074" opacity="0.9"/>
<line x1="455.8" y1="342.0" x2="455.8" y2="374.6" stroke="#ff5c5c" stroke-width="1"/>
<rect x="441.0" y="362.4" width="29.5" height="4.1" fill="#ff5c5c" opacity="0.9"/>
<line x1="489.4" y1="285.1" x2="489.4" y2="366.4" stroke="#32d074" stroke-width="1"/>
<rect x="474.6" y="297.3" width="29.5" height="69.1" fill="#32d074" opacity="0.9"/>
<line x1="522.9" y1="301.4" x2="522.9" y2="329.8" stroke="#ff5c5c" stroke-width="1"/>
<rect x="508.1" y="301.4" width="29.5" height="16.3" fill="#ff5c5c" opacity="0.9"/>
<line x1="556.5" y1="285.1" x2="556.5" y2="321.7" stroke="#32d074" stroke-width="1"/>
<rect x="541.7" y="293.3" width="29.5" height="20.3" fill="#32d074" opacity="0.9"/>
<line x1="590.0" y1="285.1" x2="590.0" y2="309.5" stroke="#ff5c5c" stroke-width="1"/>
<rect x="575.2" y="289.2" width="29.5" height="16.3" fill="#ff5c5c" opacity="0.9"/>
<line x1="590.0" y1="90.0" x2="590.0" y2="590.0" stroke="#7bd88f" stroke-width="2" stroke-dasharray="4 4"/>
<text x="596.0" y="126.0" font-size="12" fill="#a7f3b7" text-anchor="start" font-family="Arial, sans-serif">first reclaim close</text>
<line x1="623.5" y1="281.1" x2="623.5" y2="309.5" stroke="#32d074" stroke-width="1"/>
<rect x="608.8" y="285.1" width="29.5" height="16.3" fill="#32d074" opacity="0.9"/>
<line x1="657.1" y1="240.4" x2="657.1" y2="289.2" stroke="#32d074" stroke-width="1"/>
<rect x="642.3" y="248.5" width="29.5" height="36.6" fill="#32d074" opacity="0.9"/>
<line x1="690.6" y1="232.3" x2="690.6" y2="285.1" stroke="#ff5c5c" stroke-width="1"/>
<rect x="675.9" y="244.5" width="29.5" height="40.7" fill="#ff5c5c" opacity="0.9"/>
<line x1="724.2" y1="212.0" x2="724.2" y2="293.3" stroke="#32d074" stroke-width="1"/>
<rect x="709.4" y="256.7" width="29.5" height="32.5" fill="#32d074" opacity="0.9"/>
<line x1="757.7" y1="256.7" x2="757.7" y2="329.8" stroke="#ff5c5c" stroke-width="1"/>
<rect x="743.0" y="256.7" width="29.5" height="61.0" fill="#ff5c5c" opacity="0.9"/>
<line x1="791.3" y1="313.6" x2="791.3" y2="342.0" stroke="#ff5c5c" stroke-width="1"/>
<rect x="776.5" y="325.8" width="29.5" height="4.1" fill="#ff5c5c" opacity="0.9"/>
<line x1="824.8" y1="301.4" x2="824.8" y2="342.0" stroke="#32d074" stroke-width="1"/>
<rect x="810.1" y="305.4" width="29.5" height="24.4" fill="#32d074" opacity="0.9"/>
<line x1="858.4" y1="285.1" x2="858.4" y2="333.9" stroke="#32d074" stroke-width="1"/>
<rect x="843.6" y="289.2" width="29.5" height="16.3" fill="#32d074" opacity="0.9"/>
<line x1="891.9" y1="236.3" x2="891.9" y2="301.4" stroke="#32d074" stroke-width="1"/>
<rect x="877.2" y="244.5" width="29.5" height="48.8" fill="#32d074" opacity="0.9"/>
<line x1="925.5" y1="179.4" x2="925.5" y2="248.5" stroke="#32d074" stroke-width="1"/>
<rect x="910.7" y="203.8" width="29.5" height="44.7" fill="#32d074" opacity="0.9"/>
<line x1="959.0" y1="179.4" x2="959.0" y2="207.9" stroke="#32d074" stroke-width="1"/>
<rect x="944.3" y="183.5" width="29.5" height="20.3" fill="#32d074" opacity="0.9"/>
<line x1="992.6" y1="142.8" x2="992.6" y2="191.6" stroke="#32d074" stroke-width="1"/>
<rect x="977.8" y="155.0" width="29.5" height="28.5" fill="#32d074" opacity="0.9"/>
<line x1="1026.1" y1="159.1" x2="1026.1" y2="203.8" stroke="#ff5c5c" stroke-width="1"/>
<rect x="1011.4" y="163.2" width="29.5" height="24.4" fill="#ff5c5c" opacity="0.9"/>
<line x1="1059.7" y1="134.7" x2="1059.7" y2="207.9" stroke="#32d074" stroke-width="1"/>
<rect x="1044.9" y="151.0" width="29.5" height="40.7" fill="#32d074" opacity="0.9"/>
<line x1="1093.2" y1="122.5" x2="1093.2" y2="187.6" stroke="#32d074" stroke-width="1"/>
<rect x="1078.5" y="151.0" width="29.5" height="12.2" fill="#32d074" opacity="0.9"/>
<rect x="70" y="610" width="1040" height="340" fill="#141922" stroke="#344156" rx="6"/>
<text x="86.0" y="636.0" font-size="14" fill="#f1f5f9" text-anchor="start" font-family="Arial, sans-serif">source: longer-mancini-logs-2</text>
<text x="606.0" y="636.0" font-size="14" fill="#f1f5f9" text-anchor="start" font-family="Arial, sans-serif">source kind: daily_plan_text</text>
<text x="86.0" y="660.0" font-size="14" fill="#f1f5f9" text-anchor="start" font-family="Arial, sans-serif">timezone policy: barchart-raw</text>
<text x="606.0" y="660.0" font-size="14" fill="#f1f5f9" text-anchor="start" font-family="Arial, sans-serif">flush points: 11.50</text>
<text x="86.0" y="684.0" font-size="14" fill="#f1f5f9" text-anchor="start" font-family="Arial, sans-serif">reclaim minutes from trap: 14.00</text>
<text x="606.0" y="684.0" font-size="14" fill="#f1f5f9" text-anchor="start" font-family="Arial, sans-serif">acceptance closes: 16</text>
<text x="86.0" y="708.0" font-size="14" fill="#f1f5f9" text-anchor="start" font-family="Arial, sans-serif">non-acceptance held bars: 4</text>
<text x="606.0" y="708.0" font-size="14" fill="#f1f5f9" text-anchor="start" font-family="Arial, sans-serif">MFE 15m: 10.25 | MAE 15m: 3.25</text>
<text x="86.0" y="732.0" font-size="14" fill="#f1f5f9" text-anchor="start" font-family="Arial, sans-serif">research only - verify visually before OCR reuse</text>
<text x="86.0" y="770.0" font-size="13" fill="#f4d35e" text-anchor="start" font-family="Arial, sans-serif">newsletter/source text:</text>
<text x="86.0" y="790.0" font-size="13" fill="#f1f5f9" text-anchor="start" font-family="Arial, sans-serif">Supports are: 6774</text>
<text x="86.0" y="844.0" font-size="13" fill="#5bc0eb" text-anchor="start" font-family="Arial, sans-serif">case note:</text>
<text x="86.0" y="864.0" font-size="13" fill="#f1f5f9" text-anchor="start" font-family="Arial, sans-serif">Source-priority real Mancini packet. Use the newsletter/source text first; OHLC metrics and deterministic labels are secondary. Source</text>
<text x="86.0" y="882.0" font-size="13" fill="#f1f5f9" text-anchor="start" font-family="Arial, sans-serif">class=support_resistance_list; stat policy=included in timing statistics.</text>
</svg>