<svg xmlns="http://www.w3.org/2000/svg" width="1200" height="980" viewBox="0 0 1200 980">
<rect width="100%" height="100%" fill="#0b0d10"/>
<text x="28.0" y="38.0" font-size="24" fill="#ffffff" text-anchor="start" font-family="Arial, sans-serif">Real Mancini Packet - Accepted Timing - non_acceptance_protocol - level 6800.0</text>
<text x="28.0" y="65.0" font-size="15" fill="#d9e6ff" text-anchor="start" font-family="Arial, sans-serif">non_acceptance_protocol | level 6800.00 | packet mancini-es1m:2026-03-10T0222:6800.0:f437fd432408</text>
<line x1="70.0" y1="90.0" x2="1110.0" y2="90.0" stroke="#263241" stroke-width="1"/>
<text x="1120.0" y="95.0" font-size="12" fill="#aeb9c8" text-anchor="start" font-family="Arial, sans-serif">6821.00</text>
<line x1="70.0" y1="190.0" x2="1110.0" y2="190.0" stroke="#263241" stroke-width="1"/>
<text x="1120.0" y="195.0" font-size="12" fill="#aeb9c8" text-anchor="start" font-family="Arial, sans-serif">6815.70</text>
<line x1="70.0" y1="290.0" x2="1110.0" y2="290.0" stroke="#263241" stroke-width="1"/>
<text x="1120.0" y="295.0" font-size="12" fill="#aeb9c8" text-anchor="start" font-family="Arial, sans-serif">6810.40</text>
<line x1="70.0" y1="390.0" x2="1110.0" y2="390.0" stroke="#263241" stroke-width="1"/>
<text x="1120.0" y="395.0" font-size="12" fill="#aeb9c8" text-anchor="start" font-family="Arial, sans-serif">6805.10</text>
<line x1="70.0" y1="490.0" x2="1110.0" y2="490.0" stroke="#263241" stroke-width="1"/>
<text x="1120.0" y="495.0" font-size="12" fill="#aeb9c8" text-anchor="start" font-family="Arial, sans-serif">6799.80</text>
<line x1="70.0" y1="590.0" x2="1110.0" y2="590.0" stroke="#263241" stroke-width="1"/>
<text x="1120.0" y="595.0" font-size="12" fill="#aeb9c8" text-anchor="start" font-family="Arial, sans-serif">6794.50</text>
<line x1="70.0" y1="486.2" x2="1110.0" y2="486.2" stroke="#f4d35e" stroke-width="2"/>
<text x="78.0" y="478.2" font-size="13" fill="#f4d35e" text-anchor="start" font-family="Arial, sans-serif">reclaimed level 6800.00</text>
<line x1="70.0" y1="391.9" x2="1110.0" y2="391.9" stroke="#5bc0eb" stroke-width="1.5" stroke-dasharray="8 6"/>
<text x="78.0" y="383.9" font-size="13" fill="#5bc0eb" text-anchor="start" font-family="Arial, sans-serif">non-acceptance danger line level + 5 = 6805.00</text>
<line x1="70.0" y1="552.3" x2="1110.0" y2="552.3" stroke="#f25f5c" stroke-width="1.5" stroke-dasharray="5 5"/>
<text x="78.0" y="570.3" font-size="13" fill="#f25f5c" text-anchor="start" font-family="Arial, sans-serif">invalidation anchor 6796.50</text>
<line x1="86.8" y1="439.1" x2="86.8" y2="490.9" stroke="#ff5c5c" stroke-width="1"/>
<rect x="72.0" y="439.1" width="29.5" height="51.9" fill="#ff5c5c" opacity="0.9"/>
<line x1="120.3" y1="486.2" x2="120.3" y2="519.2" stroke="#ff5c5c" stroke-width="1"/>
<rect x="105.5" y="490.9" width="29.5" height="14.2" fill="#ff5c5c" opacity="0.9"/>
<line x1="153.9" y1="443.8" x2="153.9" y2="533.4" stroke="#32d074" stroke-width="1"/>
<rect x="139.1" y="443.8" width="29.5" height="61.3" fill="#32d074" opacity="0.9"/>
<line x1="187.4" y1="429.6" x2="187.4" y2="472.1" stroke="#ff5c5c" stroke-width="1"/>
<rect x="172.6" y="443.8" width="29.5" height="28.3" fill="#ff5c5c" opacity="0.9"/>
<line x1="221.0" y1="457.9" x2="221.0" y2="528.7" stroke="#ff5c5c" stroke-width="1"/>
<rect x="206.2" y="472.1" width="29.5" height="47.2" fill="#ff5c5c" opacity="0.9"/>
<line x1="254.5" y1="514.5" x2="254.5" y2="547.5" stroke="#32d074" stroke-width="1"/>
<rect x="239.7" y="514.5" width="29.5" height="4.7" fill="#32d074" opacity="0.9"/>
<line x1="254.5" y1="90.0" x2="254.5" y2="590.0" stroke="#ff8c42" stroke-width="2" stroke-dasharray="4 4"/>
<text x="260.5" y="108.0" font-size="12" fill="#ffb37a" text-anchor="start" font-family="Arial, sans-serif">trap candle</text>
<line x1="288.1" y1="495.7" x2="288.1" y2="528.7" stroke="#ff5c5c" stroke-width="1"/>
<rect x="273.3" y="514.5" width="29.5" height="4.7" fill="#ff5c5c" opacity="0.9"/>
<line x1="321.6" y1="495.7" x2="321.6" y2="524.0" stroke="#32d074" stroke-width="1"/>
<rect x="306.8" y="514.5" width="29.5" height="4.7" fill="#32d074" opacity="0.9"/>
<line x1="355.2" y1="476.8" x2="355.2" y2="528.7" stroke="#32d074" stroke-width="1"/>
<rect x="340.4" y="505.1" width="29.5" height="9.4" fill="#32d074" opacity="0.9"/>
<line x1="388.7" y1="476.8" x2="388.7" y2="505.1" stroke="#32d074" stroke-width="1"/>
<rect x="373.9" y="495.7" width="29.5" height="9.4" fill="#32d074" opacity="0.9"/>
<line x1="422.3" y1="467.4" x2="422.3" y2="500.4" stroke="#32d074" stroke-width="1"/>
<rect x="407.5" y="472.1" width="29.5" height="28.3" fill="#32d074" opacity="0.9"/>
<line x1="455.8" y1="462.6" x2="455.8" y2="519.2" stroke="#ff5c5c" stroke-width="1"/>
<rect x="441.0" y="472.1" width="29.5" height="33.0" fill="#ff5c5c" opacity="0.9"/>
<line x1="489.4" y1="434.3" x2="489.4" y2="509.8" stroke="#32d074" stroke-width="1"/>
<rect x="474.6" y="439.1" width="29.5" height="61.3" fill="#32d074" opacity="0.9"/>
<line x1="522.9" y1="358.9" x2="522.9" y2="448.5" stroke="#32d074" stroke-width="1"/>
<rect x="508.1" y="377.7" width="29.5" height="56.6" fill="#32d074" opacity="0.9"/>
<line x1="556.5" y1="325.8" x2="556.5" y2="373.0" stroke="#32d074" stroke-width="1"/>
<rect x="541.7" y="349.4" width="29.5" height="23.6" fill="#32d074" opacity="0.9"/>
<line x1="590.0" y1="297.5" x2="590.0" y2="373.0" stroke="#32d074" stroke-width="1"/>
<rect x="575.2" y="325.8" width="29.5" height="18.9" fill="#32d074" opacity="0.9"/>
<line x1="590.0" y1="90.0" x2="590.0" y2="590.0" stroke="#7bd88f" stroke-width="2" stroke-dasharray="4 4"/>
<text x="596.0" y="126.0" font-size="12" fill="#a7f3b7" text-anchor="start" font-family="Arial, sans-serif">first reclaim close</text>
<line x1="623.5" y1="288.1" x2="623.5" y2="330.6" stroke="#32d074" stroke-width="1"/>
<rect x="608.8" y="302.3" width="29.5" height="23.6" fill="#32d074" opacity="0.9"/>
<line x1="657.1" y1="231.5" x2="657.1" y2="311.7" stroke="#32d074" stroke-width="1"/>
<rect x="642.3" y="269.2" width="29.5" height="33.0" fill="#32d074" opacity="0.9"/>
<line x1="690.6" y1="217.4" x2="690.6" y2="264.5" stroke="#32d074" stroke-width="1"/>
<rect x="675.9" y="226.8" width="29.5" height="37.7" fill="#32d074" opacity="0.9"/>
<line x1="724.2" y1="217.4" x2="724.2" y2="250.4" stroke="#32d074" stroke-width="1"/>
<rect x="709.4" y="226.8" width="29.5" height="2.0" fill="#32d074" opacity="0.9"/>
<line x1="757.7" y1="165.5" x2="757.7" y2="236.2" stroke="#32d074" stroke-width="1"/>
<rect x="743.0" y="203.2" width="29.5" height="18.9" fill="#32d074" opacity="0.9"/>
<line x1="791.3" y1="179.6" x2="791.3" y2="231.5" stroke="#32d074" stroke-width="1"/>
<rect x="776.5" y="189.1" width="29.5" height="14.2" fill="#32d074" opacity="0.9"/>
<line x1="824.8" y1="160.8" x2="824.8" y2="189.1" stroke="#32d074" stroke-width="1"/>
<rect x="810.1" y="179.6" width="29.5" height="9.4" fill="#32d074" opacity="0.9"/>
<line x1="858.4" y1="160.8" x2="858.4" y2="198.5" stroke="#32d074" stroke-width="1"/>
<rect x="843.6" y="160.8" width="29.5" height="23.6" fill="#32d074" opacity="0.9"/>
<line x1="891.9" y1="156.0" x2="891.9" y2="198.5" stroke="#ff5c5c" stroke-width="1"/>
<rect x="877.2" y="156.0" width="29.5" height="4.7" fill="#ff5c5c" opacity="0.9"/>
<line x1="925.5" y1="127.7" x2="925.5" y2="236.2" stroke="#ff5c5c" stroke-width="1"/>
<rect x="910.7" y="160.8" width="29.5" height="75.5" fill="#ff5c5c" opacity="0.9"/>
<line x1="959.0" y1="203.2" x2="959.0" y2="264.5" stroke="#32d074" stroke-width="1"/>
<rect x="944.3" y="236.2" width="29.5" height="2.0" fill="#32d074" opacity="0.9"/>
<line x1="992.6" y1="217.4" x2="992.6" y2="283.4" stroke="#ff5c5c" stroke-width="1"/>
<rect x="977.8" y="231.5" width="29.5" height="47.2" fill="#ff5c5c" opacity="0.9"/>
<line x1="1026.1" y1="274.0" x2="1026.1" y2="321.1" stroke="#ff5c5c" stroke-width="1"/>
<rect x="1011.4" y="274.0" width="29.5" height="37.7" fill="#ff5c5c" opacity="0.9"/>
<line x1="1059.7" y1="302.3" x2="1059.7" y2="354.2" stroke="#ff5c5c" stroke-width="1"/>
<rect x="1044.9" y="316.4" width="29.5" height="9.4" fill="#ff5c5c" opacity="0.9"/>
<line x1="1093.2" y1="307.0" x2="1093.2" y2="340.0" stroke="#32d074" stroke-width="1"/>
<rect x="1078.5" y="311.7" width="29.5" height="18.9" fill="#32d074" opacity="0.9"/>
<rect x="70" y="610" width="1040" height="340" fill="#141922" stroke="#344156" rx="6"/>
<text x="86.0" y="636.0" font-size="14" fill="#f1f5f9" text-anchor="start" font-family="Arial, sans-serif">source: longer-mancini-logs-2</text>
<text x="606.0" y="636.0" font-size="14" fill="#f1f5f9" text-anchor="start" font-family="Arial, sans-serif">source kind: daily_plan_text</text>
<text x="86.0" y="660.0" font-size="14" fill="#f1f5f9" text-anchor="start" font-family="Arial, sans-serif">timezone policy: barchart-raw</text>
<text x="606.0" y="660.0" font-size="14" fill="#f1f5f9" text-anchor="start" font-family="Arial, sans-serif">flush points: 3.25</text>
<text x="86.0" y="684.0" font-size="14" fill="#f1f5f9" text-anchor="start" font-family="Arial, sans-serif">reclaim minutes from trap: 10.00</text>
<text x="606.0" y="684.0" font-size="14" fill="#f1f5f9" text-anchor="start" font-family="Arial, sans-serif">acceptance closes: 16</text>
<text x="86.0" y="708.0" font-size="14" fill="#f1f5f9" text-anchor="start" font-family="Arial, sans-serif">non-acceptance held bars: 16</text>
<text x="606.0" y="708.0" font-size="14" fill="#f1f5f9" text-anchor="start" font-family="Arial, sans-serif">MFE 15m: 11.50 | MAE 15m: 1.50</text>
<text x="86.0" y="732.0" font-size="14" fill="#f1f5f9" text-anchor="start" font-family="Arial, sans-serif">research only - verify visually before OCR reuse</text>
<text x="86.0" y="770.0" font-size="13" fill="#f4d35e" text-anchor="start" font-family="Arial, sans-serif">newsletter/source text:</text>
<text x="86.0" y="790.0" font-size="13" fill="#f1f5f9" text-anchor="start" font-family="Arial, sans-serif">A little after midnight, ES recovered that low (Failed Breakdown) and ripped to ~6800+ today.</text>
<text x="86.0" y="844.0" font-size="13" fill="#5bc0eb" text-anchor="start" font-family="Arial, sans-serif">case note:</text>
<text x="86.0" y="864.0" font-size="13" fill="#f1f5f9" text-anchor="start" font-family="Arial, sans-serif">Source-priority real Mancini packet. Use the newsletter/source text first; OHLC metrics and deterministic labels are secondary. Source</text>
<text x="86.0" y="882.0" font-size="13" fill="#f1f5f9" text-anchor="start" font-family="Arial, sans-serif">class=explicit_mancini_narrative; stat policy=included in timing statistics.</text>
</svg>