<svg xmlns="http://www.w3.org/2000/svg" width="1200" height="980" viewBox="0 0 1200 980">
<rect width="100%" height="100%" fill="#0b0d10"/>
<text x="28.0" y="38.0" font-size="24" fill="#ffffff" text-anchor="start" font-family="Arial, sans-serif">Real Mancini Packet - Accepted Timing - simple_reclaim_unclassified - level 6712.0</text>
<text x="28.0" y="65.0" font-size="15" fill="#d9e6ff" text-anchor="start" font-family="Arial, sans-serif">simple_reclaim_unclassified | level 6712.00 | packet mancini-es1m:2026-03-13T0748:6712.0:ae9878e26bb0</text>
<line x1="70.0" y1="90.0" x2="1110.0" y2="90.0" stroke="#263241" stroke-width="1"/>
<text x="1120.0" y="95.0" font-size="12" fill="#aeb9c8" text-anchor="start" font-family="Arial, sans-serif">6727.25</text>
<line x1="70.0" y1="190.0" x2="1110.0" y2="190.0" stroke="#263241" stroke-width="1"/>
<text x="1120.0" y="195.0" font-size="12" fill="#aeb9c8" text-anchor="start" font-family="Arial, sans-serif">6721.25</text>
<line x1="70.0" y1="290.0" x2="1110.0" y2="290.0" stroke="#263241" stroke-width="1"/>
<text x="1120.0" y="295.0" font-size="12" fill="#aeb9c8" text-anchor="start" font-family="Arial, sans-serif">6715.25</text>
<line x1="70.0" y1="390.0" x2="1110.0" y2="390.0" stroke="#263241" stroke-width="1"/>
<text x="1120.0" y="395.0" font-size="12" fill="#aeb9c8" text-anchor="start" font-family="Arial, sans-serif">6709.25</text>
<line x1="70.0" y1="490.0" x2="1110.0" y2="490.0" stroke="#263241" stroke-width="1"/>
<text x="1120.0" y="495.0" font-size="12" fill="#aeb9c8" text-anchor="start" font-family="Arial, sans-serif">6703.25</text>
<line x1="70.0" y1="590.0" x2="1110.0" y2="590.0" stroke="#263241" stroke-width="1"/>
<text x="1120.0" y="595.0" font-size="12" fill="#aeb9c8" text-anchor="start" font-family="Arial, sans-serif">6697.25</text>
<line x1="70.0" y1="344.2" x2="1110.0" y2="344.2" stroke="#f4d35e" stroke-width="2"/>
<text x="78.0" y="336.2" font-size="13" fill="#f4d35e" text-anchor="start" font-family="Arial, sans-serif">reclaimed level 6712.00</text>
<line x1="70.0" y1="260.8" x2="1110.0" y2="260.8" stroke="#5bc0eb" stroke-width="1.5" stroke-dasharray="8 6"/>
<text x="78.0" y="252.8" font-size="13" fill="#5bc0eb" text-anchor="start" font-family="Arial, sans-serif">non-acceptance danger line level + 5 = 6717.00</text>
<line x1="70.0" y1="556.7" x2="1110.0" y2="556.7" stroke="#f25f5c" stroke-width="1.5" stroke-dasharray="5 5"/>
<text x="78.0" y="574.7" font-size="13" fill="#f25f5c" text-anchor="start" font-family="Arial, sans-serif">invalidation anchor 6699.25</text>
<line x1="86.8" y1="415.0" x2="86.8" y2="469.2" stroke="#ff5c5c" stroke-width="1"/>
<rect x="72.0" y="419.2" width="29.5" height="8.3" fill="#ff5c5c" opacity="0.9"/>
<line x1="120.3" y1="419.2" x2="120.3" y2="452.5" stroke="#ff5c5c" stroke-width="1"/>
<rect x="105.5" y="427.5" width="29.5" height="16.7" fill="#ff5c5c" opacity="0.9"/>
<line x1="153.9" y1="444.2" x2="153.9" y2="515.0" stroke="#ff5c5c" stroke-width="1"/>
<rect x="139.1" y="444.2" width="29.5" height="66.7" fill="#ff5c5c" opacity="0.9"/>
<line x1="187.4" y1="485.8" x2="187.4" y2="527.5" stroke="#32d074" stroke-width="1"/>
<rect x="172.6" y="485.8" width="29.5" height="20.8" fill="#32d074" opacity="0.9"/>
<line x1="221.0" y1="473.3" x2="221.0" y2="523.3" stroke="#ff5c5c" stroke-width="1"/>
<rect x="206.2" y="490.0" width="29.5" height="29.2" fill="#ff5c5c" opacity="0.9"/>
<line x1="254.5" y1="515.0" x2="254.5" y2="552.5" stroke="#ff5c5c" stroke-width="1"/>
<rect x="239.7" y="519.2" width="29.5" height="20.8" fill="#ff5c5c" opacity="0.9"/>
<line x1="254.5" y1="90.0" x2="254.5" y2="590.0" stroke="#ff8c42" stroke-width="2" stroke-dasharray="4 4"/>
<text x="260.5" y="108.0" font-size="12" fill="#ffb37a" text-anchor="start" font-family="Arial, sans-serif">trap candle</text>
<line x1="288.1" y1="469.2" x2="288.1" y2="544.2" stroke="#32d074" stroke-width="1"/>
<rect x="273.3" y="473.3" width="29.5" height="70.8" fill="#32d074" opacity="0.9"/>
<line x1="321.6" y1="465.0" x2="321.6" y2="502.5" stroke="#ff5c5c" stroke-width="1"/>
<rect x="306.8" y="473.3" width="29.5" height="4.2" fill="#ff5c5c" opacity="0.9"/>
<line x1="355.2" y1="444.2" x2="355.2" y2="498.3" stroke="#32d074" stroke-width="1"/>
<rect x="340.4" y="456.7" width="29.5" height="20.8" fill="#32d074" opacity="0.9"/>
<line x1="388.7" y1="427.5" x2="388.7" y2="469.2" stroke="#ff5c5c" stroke-width="1"/>
<rect x="373.9" y="456.7" width="29.5" height="8.3" fill="#ff5c5c" opacity="0.9"/>
<line x1="422.3" y1="448.3" x2="422.3" y2="473.3" stroke="#32d074" stroke-width="1"/>
<rect x="407.5" y="465.0" width="29.5" height="2.0" fill="#32d074" opacity="0.9"/>
<line x1="455.8" y1="444.2" x2="455.8" y2="473.3" stroke="#32d074" stroke-width="1"/>
<rect x="441.0" y="448.3" width="29.5" height="16.7" fill="#32d074" opacity="0.9"/>
<line x1="489.4" y1="144.2" x2="489.4" y2="456.7" stroke="#32d074" stroke-width="1"/>
<rect x="474.6" y="165.0" width="29.5" height="283.3" fill="#32d074" opacity="0.9"/>
<line x1="522.9" y1="123.3" x2="522.9" y2="256.7" stroke="#ff5c5c" stroke-width="1"/>
<rect x="508.1" y="160.8" width="29.5" height="91.7" fill="#ff5c5c" opacity="0.9"/>
<line x1="556.5" y1="210.8" x2="556.5" y2="327.5" stroke="#ff5c5c" stroke-width="1"/>
<rect x="541.7" y="248.3" width="29.5" height="45.8" fill="#ff5c5c" opacity="0.9"/>
<line x1="590.0" y1="252.5" x2="590.0" y2="319.2" stroke="#ff5c5c" stroke-width="1"/>
<rect x="575.2" y="298.3" width="29.5" height="12.5" fill="#ff5c5c" opacity="0.9"/>
<line x1="590.0" y1="90.0" x2="590.0" y2="590.0" stroke="#7bd88f" stroke-width="2" stroke-dasharray="4 4"/>
<text x="596.0" y="126.0" font-size="12" fill="#a7f3b7" text-anchor="start" font-family="Arial, sans-serif">first reclaim close</text>
<line x1="623.5" y1="298.3" x2="623.5" y2="348.3" stroke="#ff5c5c" stroke-width="1"/>
<rect x="608.8" y="310.8" width="29.5" height="16.7" fill="#ff5c5c" opacity="0.9"/>
<line x1="657.1" y1="319.2" x2="657.1" y2="381.7" stroke="#ff5c5c" stroke-width="1"/>
<rect x="642.3" y="327.5" width="29.5" height="37.5" fill="#ff5c5c" opacity="0.9"/>
<line x1="690.6" y1="360.8" x2="690.6" y2="415.0" stroke="#ff5c5c" stroke-width="1"/>
<rect x="675.9" y="365.0" width="29.5" height="29.2" fill="#ff5c5c" opacity="0.9"/>
<line x1="724.2" y1="365.0" x2="724.2" y2="406.7" stroke="#32d074" stroke-width="1"/>
<rect x="709.4" y="377.5" width="29.5" height="16.7" fill="#32d074" opacity="0.9"/>
<line x1="757.7" y1="369.2" x2="757.7" y2="431.7" stroke="#ff5c5c" stroke-width="1"/>
<rect x="743.0" y="377.5" width="29.5" height="41.7" fill="#ff5c5c" opacity="0.9"/>
<line x1="791.3" y1="394.2" x2="791.3" y2="448.3" stroke="#32d074" stroke-width="1"/>
<rect x="776.5" y="410.8" width="29.5" height="12.5" fill="#32d074" opacity="0.9"/>
<line x1="824.8" y1="402.5" x2="824.8" y2="440.0" stroke="#ff5c5c" stroke-width="1"/>
<rect x="810.1" y="406.7" width="29.5" height="20.8" fill="#ff5c5c" opacity="0.9"/>
<line x1="858.4" y1="381.7" x2="858.4" y2="427.5" stroke="#32d074" stroke-width="1"/>
<rect x="843.6" y="398.3" width="29.5" height="29.2" fill="#32d074" opacity="0.9"/>
<line x1="891.9" y1="394.2" x2="891.9" y2="435.8" stroke="#ff5c5c" stroke-width="1"/>
<rect x="877.2" y="394.2" width="29.5" height="16.7" fill="#ff5c5c" opacity="0.9"/>
<line x1="925.5" y1="381.7" x2="925.5" y2="415.0" stroke="#32d074" stroke-width="1"/>
<rect x="910.7" y="381.7" width="29.5" height="20.8" fill="#32d074" opacity="0.9"/>
<line x1="959.0" y1="365.0" x2="959.0" y2="402.5" stroke="#32d074" stroke-width="1"/>
<rect x="944.3" y="373.3" width="29.5" height="4.2" fill="#32d074" opacity="0.9"/>
<line x1="992.6" y1="348.3" x2="992.6" y2="406.7" stroke="#ff5c5c" stroke-width="1"/>
<rect x="977.8" y="373.3" width="29.5" height="16.7" fill="#ff5c5c" opacity="0.9"/>
<line x1="1026.1" y1="327.5" x2="1026.1" y2="390.0" stroke="#32d074" stroke-width="1"/>
<rect x="1011.4" y="344.2" width="29.5" height="41.7" fill="#32d074" opacity="0.9"/>
<line x1="1059.7" y1="331.7" x2="1059.7" y2="373.3" stroke="#ff5c5c" stroke-width="1"/>
<rect x="1044.9" y="344.2" width="29.5" height="8.3" fill="#ff5c5c" opacity="0.9"/>
<line x1="1093.2" y1="348.3" x2="1093.2" y2="502.5" stroke="#ff5c5c" stroke-width="1"/>
<rect x="1078.5" y="348.3" width="29.5" height="79.2" fill="#ff5c5c" opacity="0.9"/>
<rect x="70" y="610" width="1040" height="340" fill="#141922" stroke="#344156" rx="6"/>
<text x="86.0" y="636.0" font-size="14" fill="#f1f5f9" text-anchor="start" font-family="Arial, sans-serif">source: longer-mancini-logs-2</text>
<text x="606.0" y="636.0" font-size="14" fill="#f1f5f9" text-anchor="start" font-family="Arial, sans-serif">source kind: daily_plan_text</text>
<text x="86.0" y="660.0" font-size="14" fill="#f1f5f9" text-anchor="start" font-family="Arial, sans-serif">timezone policy: barchart-raw</text>
<text x="606.0" y="660.0" font-size="14" fill="#f1f5f9" text-anchor="start" font-family="Arial, sans-serif">flush points: 12.50</text>
<text x="86.0" y="684.0" font-size="14" fill="#f1f5f9" text-anchor="start" font-family="Arial, sans-serif">reclaim minutes from trap: 10.00</text>
<text x="606.0" y="684.0" font-size="14" fill="#f1f5f9" text-anchor="start" font-family="Arial, sans-serif">acceptance closes: 2</text>
<text x="86.0" y="708.0" font-size="14" fill="#f1f5f9" text-anchor="start" font-family="Arial, sans-serif">non-acceptance held bars: 0</text>
<text x="606.0" y="708.0" font-size="14" fill="#f1f5f9" text-anchor="start" font-family="Arial, sans-serif">MFE 15m: 2.75 | MAE 15m: 12.25</text>
<text x="86.0" y="732.0" font-size="14" fill="#f1f5f9" text-anchor="start" font-family="Arial, sans-serif">research only - verify visually before OCR reuse</text>
<text x="86.0" y="770.0" font-size="13" fill="#f4d35e" text-anchor="start" font-family="Arial, sans-serif">newsletter/source text:</text>
<text x="86.0" y="790.0" font-size="13" fill="#f1f5f9" text-anchor="start" font-family="Arial, sans-serif">If we are freefalling at max speed though, at least wait for the zone to fail to something like 6712 and recover.&quot; By 7:30PM we hit 6716.</text>
<text x="86.0" y="844.0" font-size="13" fill="#5bc0eb" text-anchor="start" font-family="Arial, sans-serif">case note:</text>
<text x="86.0" y="864.0" font-size="13" fill="#f1f5f9" text-anchor="start" font-family="Arial, sans-serif">Source-priority real Mancini packet. Use the newsletter/source text first; OHLC metrics and deterministic labels are secondary. Source</text>
<text x="86.0" y="882.0" font-size="13" fill="#f1f5f9" text-anchor="start" font-family="Arial, sans-serif">class=explicit_mancini_narrative; stat policy=included in timing statistics.</text>
</svg>