<svg xmlns="http://www.w3.org/2000/svg" width="1200" height="980" viewBox="0 0 1200 980">
<rect width="100%" height="100%" fill="#0b0d10"/>
<text x="28.0" y="38.0" font-size="24" fill="#ffffff" text-anchor="start" font-family="Arial, sans-serif">Real Mancini Packet - Accepted Timing - non_acceptance_protocol - level 6727.0</text>
<text x="28.0" y="65.0" font-size="15" fill="#d9e6ff" text-anchor="start" font-family="Arial, sans-serif">non_acceptance_protocol | level 6727.00 | packet mancini-es1m:2026-03-13T0846:6727.0:c8d48af5481f</text>
<line x1="70.0" y1="90.0" x2="1110.0" y2="90.0" stroke="#263241" stroke-width="1"/>
<text x="1120.0" y="95.0" font-size="12" fill="#aeb9c8" text-anchor="start" font-family="Arial, sans-serif">6739.50</text>
<line x1="70.0" y1="190.0" x2="1110.0" y2="190.0" stroke="#263241" stroke-width="1"/>
<text x="1120.0" y="195.0" font-size="12" fill="#aeb9c8" text-anchor="start" font-family="Arial, sans-serif">6731.80</text>
<line x1="70.0" y1="290.0" x2="1110.0" y2="290.0" stroke="#263241" stroke-width="1"/>
<text x="1120.0" y="295.0" font-size="12" fill="#aeb9c8" text-anchor="start" font-family="Arial, sans-serif">6724.10</text>
<line x1="70.0" y1="390.0" x2="1110.0" y2="390.0" stroke="#263241" stroke-width="1"/>
<text x="1120.0" y="395.0" font-size="12" fill="#aeb9c8" text-anchor="start" font-family="Arial, sans-serif">6716.40</text>
<line x1="70.0" y1="490.0" x2="1110.0" y2="490.0" stroke="#263241" stroke-width="1"/>
<text x="1120.0" y="495.0" font-size="12" fill="#aeb9c8" text-anchor="start" font-family="Arial, sans-serif">6708.70</text>
<line x1="70.0" y1="590.0" x2="1110.0" y2="590.0" stroke="#263241" stroke-width="1"/>
<text x="1120.0" y="595.0" font-size="12" fill="#aeb9c8" text-anchor="start" font-family="Arial, sans-serif">6701.00</text>
<line x1="70.0" y1="252.3" x2="1110.0" y2="252.3" stroke="#f4d35e" stroke-width="2"/>
<text x="78.0" y="244.3" font-size="13" fill="#f4d35e" text-anchor="start" font-family="Arial, sans-serif">reclaimed level 6727.00</text>
<line x1="70.0" y1="187.4" x2="1110.0" y2="187.4" stroke="#5bc0eb" stroke-width="1.5" stroke-dasharray="8 6"/>
<text x="78.0" y="179.4" font-size="13" fill="#5bc0eb" text-anchor="start" font-family="Arial, sans-serif">non-acceptance danger line level + 5 = 6732.00</text>
<line x1="70.0" y1="564.0" x2="1110.0" y2="564.0" stroke="#f25f5c" stroke-width="1.5" stroke-dasharray="5 5"/>
<text x="78.0" y="582.0" font-size="13" fill="#f25f5c" text-anchor="start" font-family="Arial, sans-serif">invalidation anchor 6703.00</text>
<line x1="86.8" y1="388.7" x2="86.8" y2="489.4" stroke="#ff5c5c" stroke-width="1"/>
<rect x="72.0" y="414.7" width="29.5" height="16.2" fill="#ff5c5c" opacity="0.9"/>
<line x1="120.3" y1="417.9" x2="120.3" y2="489.4" stroke="#ff5c5c" stroke-width="1"/>
<rect x="105.5" y="430.9" width="29.5" height="32.5" fill="#ff5c5c" opacity="0.9"/>
<line x1="153.9" y1="382.2" x2="153.9" y2="479.6" stroke="#ff5c5c" stroke-width="1"/>
<rect x="139.1" y="460.1" width="29.5" height="13.0" fill="#ff5c5c" opacity="0.9"/>
<line x1="187.4" y1="430.9" x2="187.4" y2="495.8" stroke="#32d074" stroke-width="1"/>
<rect x="172.6" y="447.1" width="29.5" height="26.0" fill="#32d074" opacity="0.9"/>
<line x1="221.0" y1="437.4" x2="221.0" y2="547.8" stroke="#ff5c5c" stroke-width="1"/>
<rect x="206.2" y="450.4" width="29.5" height="35.7" fill="#ff5c5c" opacity="0.9"/>
<line x1="254.5" y1="482.9" x2="254.5" y2="560.8" stroke="#ff5c5c" stroke-width="1"/>
<rect x="239.7" y="482.9" width="29.5" height="19.5" fill="#ff5c5c" opacity="0.9"/>
<line x1="254.5" y1="90.0" x2="254.5" y2="590.0" stroke="#ff8c42" stroke-width="2" stroke-dasharray="4 4"/>
<text x="260.5" y="108.0" font-size="12" fill="#ffb37a" text-anchor="start" font-family="Arial, sans-serif">trap candle</text>
<line x1="288.1" y1="388.7" x2="288.1" y2="518.6" stroke="#32d074" stroke-width="1"/>
<rect x="273.3" y="411.4" width="29.5" height="90.9" fill="#32d074" opacity="0.9"/>
<line x1="321.6" y1="356.2" x2="321.6" y2="450.4" stroke="#32d074" stroke-width="1"/>
<rect x="306.8" y="362.7" width="29.5" height="51.9" fill="#32d074" opacity="0.9"/>
<line x1="355.2" y1="330.3" x2="355.2" y2="395.2" stroke="#ff5c5c" stroke-width="1"/>
<rect x="340.4" y="366.0" width="29.5" height="6.5" fill="#ff5c5c" opacity="0.9"/>
<line x1="388.7" y1="343.2" x2="388.7" y2="408.2" stroke="#32d074" stroke-width="1"/>
<rect x="373.9" y="343.2" width="29.5" height="26.0" fill="#32d074" opacity="0.9"/>
<line x1="422.3" y1="327.0" x2="422.3" y2="369.2" stroke="#32d074" stroke-width="1"/>
<rect x="407.5" y="336.8" width="29.5" height="6.5" fill="#32d074" opacity="0.9"/>
<line x1="455.8" y1="271.8" x2="455.8" y2="359.5" stroke="#32d074" stroke-width="1"/>
<rect x="441.0" y="288.1" width="29.5" height="48.7" fill="#32d074" opacity="0.9"/>
<line x1="489.4" y1="190.6" x2="489.4" y2="301.0" stroke="#32d074" stroke-width="1"/>
<rect x="474.6" y="200.4" width="29.5" height="87.7" fill="#32d074" opacity="0.9"/>
<line x1="522.9" y1="164.7" x2="522.9" y2="216.6" stroke="#32d074" stroke-width="1"/>
<rect x="508.1" y="167.9" width="29.5" height="35.7" fill="#32d074" opacity="0.9"/>
<line x1="556.5" y1="141.9" x2="556.5" y2="210.1" stroke="#32d074" stroke-width="1"/>
<rect x="541.7" y="148.4" width="29.5" height="22.7" fill="#32d074" opacity="0.9"/>
<line x1="590.0" y1="116.0" x2="590.0" y2="184.2" stroke="#ff5c5c" stroke-width="1"/>
<rect x="575.2" y="151.7" width="29.5" height="6.5" fill="#ff5c5c" opacity="0.9"/>
<line x1="590.0" y1="90.0" x2="590.0" y2="590.0" stroke="#7bd88f" stroke-width="2" stroke-dasharray="4 4"/>
<text x="596.0" y="126.0" font-size="12" fill="#a7f3b7" text-anchor="start" font-family="Arial, sans-serif">first reclaim close</text>
<line x1="623.5" y1="154.9" x2="623.5" y2="219.9" stroke="#32d074" stroke-width="1"/>
<rect x="608.8" y="158.2" width="29.5" height="3.2" fill="#32d074" opacity="0.9"/>
<line x1="657.1" y1="151.7" x2="657.1" y2="239.4" stroke="#ff5c5c" stroke-width="1"/>
<rect x="642.3" y="158.2" width="29.5" height="68.2" fill="#ff5c5c" opacity="0.9"/>
<line x1="690.6" y1="223.1" x2="690.6" y2="278.3" stroke="#ff5c5c" stroke-width="1"/>
<rect x="675.9" y="229.6" width="29.5" height="45.5" fill="#ff5c5c" opacity="0.9"/>
<line x1="724.2" y1="275.1" x2="724.2" y2="340.0" stroke="#ff5c5c" stroke-width="1"/>
<rect x="709.4" y="275.1" width="29.5" height="61.7" fill="#ff5c5c" opacity="0.9"/>
<line x1="757.7" y1="294.5" x2="757.7" y2="336.8" stroke="#32d074" stroke-width="1"/>
<rect x="743.0" y="330.3" width="29.5" height="6.5" fill="#32d074" opacity="0.9"/>
<line x1="791.3" y1="245.8" x2="791.3" y2="336.8" stroke="#32d074" stroke-width="1"/>
<rect x="776.5" y="301.0" width="29.5" height="32.5" fill="#32d074" opacity="0.9"/>
<line x1="824.8" y1="197.1" x2="824.8" y2="314.0" stroke="#32d074" stroke-width="1"/>
<rect x="810.1" y="203.6" width="29.5" height="94.2" fill="#32d074" opacity="0.9"/>
<line x1="858.4" y1="177.7" x2="858.4" y2="229.6" stroke="#32d074" stroke-width="1"/>
<rect x="843.6" y="200.4" width="29.5" height="3.2" fill="#32d074" opacity="0.9"/>
<line x1="891.9" y1="197.1" x2="891.9" y2="242.6" stroke="#ff5c5c" stroke-width="1"/>
<rect x="877.2" y="200.4" width="29.5" height="29.2" fill="#ff5c5c" opacity="0.9"/>
<line x1="925.5" y1="226.4" x2="925.5" y2="330.3" stroke="#ff5c5c" stroke-width="1"/>
<rect x="910.7" y="226.4" width="29.5" height="71.4" fill="#ff5c5c" opacity="0.9"/>
<line x1="959.0" y1="281.6" x2="959.0" y2="353.0" stroke="#ff5c5c" stroke-width="1"/>
<rect x="944.3" y="297.8" width="29.5" height="35.7" fill="#ff5c5c" opacity="0.9"/>
<line x1="992.6" y1="304.3" x2="992.6" y2="359.5" stroke="#32d074" stroke-width="1"/>
<rect x="977.8" y="304.3" width="29.5" height="32.5" fill="#32d074" opacity="0.9"/>
<line x1="1026.1" y1="291.3" x2="1026.1" y2="372.5" stroke="#ff5c5c" stroke-width="1"/>
<rect x="1011.4" y="304.3" width="29.5" height="42.2" fill="#ff5c5c" opacity="0.9"/>
<line x1="1059.7" y1="255.6" x2="1059.7" y2="353.0" stroke="#32d074" stroke-width="1"/>
<rect x="1044.9" y="288.1" width="29.5" height="64.9" fill="#32d074" opacity="0.9"/>
<line x1="1093.2" y1="281.6" x2="1093.2" y2="343.2" stroke="#ff5c5c" stroke-width="1"/>
<rect x="1078.5" y="288.1" width="29.5" height="19.5" fill="#ff5c5c" opacity="0.9"/>
<rect x="70" y="610" width="1040" height="340" fill="#141922" stroke="#344156" rx="6"/>
<text x="86.0" y="636.0" font-size="14" fill="#f1f5f9" text-anchor="start" font-family="Arial, sans-serif">source: longer-mancini-logs-2</text>
<text x="606.0" y="636.0" font-size="14" fill="#f1f5f9" text-anchor="start" font-family="Arial, sans-serif">source kind: daily_plan_text</text>
<text x="86.0" y="660.0" font-size="14" fill="#f1f5f9" text-anchor="start" font-family="Arial, sans-serif">timezone policy: barchart-raw</text>
<text x="606.0" y="660.0" font-size="14" fill="#f1f5f9" text-anchor="start" font-family="Arial, sans-serif">flush points: 23.75</text>
<text x="86.0" y="684.0" font-size="14" fill="#f1f5f9" text-anchor="start" font-family="Arial, sans-serif">reclaim minutes from trap: 10.00</text>
<text x="606.0" y="684.0" font-size="14" fill="#f1f5f9" text-anchor="start" font-family="Arial, sans-serif">acceptance closes: 3</text>
<text x="86.0" y="708.0" font-size="14" fill="#f1f5f9" text-anchor="start" font-family="Arial, sans-serif">non-acceptance held bars: 2</text>
<text x="606.0" y="708.0" font-size="14" fill="#f1f5f9" text-anchor="start" font-family="Arial, sans-serif">MFE 15m: 2.75 | MAE 15m: 17.00</text>
<text x="86.0" y="732.0" font-size="14" fill="#f1f5f9" text-anchor="start" font-family="Arial, sans-serif">research only - verify visually before OCR reuse</text>
<text x="86.0" y="770.0" font-size="13" fill="#f4d35e" text-anchor="start" font-family="Arial, sans-serif">newsletter/source text:</text>
<text x="86.0" y="790.0" font-size="13" fill="#f1f5f9" text-anchor="start" font-family="Arial, sans-serif">Double dip Failed Breakdowns look like this: By 10:45AM, we had this and spiked to 6727 again and I decided to add back a 25% runner again</text>
<text x="86.0" y="808.0" font-size="13" fill="#f1f5f9" text-anchor="start" font-family="Arial, sans-serif">similar entry.</text>
<text x="86.0" y="844.0" font-size="13" fill="#5bc0eb" text-anchor="start" font-family="Arial, sans-serif">case note:</text>
<text x="86.0" y="864.0" font-size="13" fill="#f1f5f9" text-anchor="start" font-family="Arial, sans-serif">Source-priority real Mancini packet. Use the newsletter/source text first; OHLC metrics and deterministic labels are secondary. Source</text>
<text x="86.0" y="882.0" font-size="13" fill="#f1f5f9" text-anchor="start" font-family="Arial, sans-serif">class=explicit_mancini_narrative; stat policy=included in timing statistics.</text>
</svg>