<svg xmlns="http://www.w3.org/2000/svg" width="1200" height="980" viewBox="0 0 1200 980">
<rect width="100%" height="100%" fill="#0b0d10"/>
<text x="28.0" y="38.0" font-size="24" fill="#ffffff" text-anchor="start" font-family="Arial, sans-serif">Real Mancini Packet - Accepted Timing - non_acceptance_protocol - level 6603.0</text>
<text x="28.0" y="65.0" font-size="15" fill="#d9e6ff" text-anchor="start" font-family="Arial, sans-serif">non_acceptance_protocol | level 6603.00 | packet mancini-es1m:2026-03-26T0847:6603.0:86e99e218426</text>
<line x1="70.0" y1="90.0" x2="1110.0" y2="90.0" stroke="#263241" stroke-width="1"/>
<text x="1120.0" y="95.0" font-size="12" fill="#aeb9c8" text-anchor="start" font-family="Arial, sans-serif">6622.25</text>
<line x1="70.0" y1="190.0" x2="1110.0" y2="190.0" stroke="#263241" stroke-width="1"/>
<text x="1120.0" y="195.0" font-size="12" fill="#aeb9c8" text-anchor="start" font-family="Arial, sans-serif">6613.30</text>
<line x1="70.0" y1="290.0" x2="1110.0" y2="290.0" stroke="#263241" stroke-width="1"/>
<text x="1120.0" y="295.0" font-size="12" fill="#aeb9c8" text-anchor="start" font-family="Arial, sans-serif">6604.35</text>
<line x1="70.0" y1="390.0" x2="1110.0" y2="390.0" stroke="#263241" stroke-width="1"/>
<text x="1120.0" y="395.0" font-size="12" fill="#aeb9c8" text-anchor="start" font-family="Arial, sans-serif">6595.40</text>
<line x1="70.0" y1="490.0" x2="1110.0" y2="490.0" stroke="#263241" stroke-width="1"/>
<text x="1120.0" y="495.0" font-size="12" fill="#aeb9c8" text-anchor="start" font-family="Arial, sans-serif">6586.45</text>
<line x1="70.0" y1="590.0" x2="1110.0" y2="590.0" stroke="#263241" stroke-width="1"/>
<text x="1120.0" y="595.0" font-size="12" fill="#aeb9c8" text-anchor="start" font-family="Arial, sans-serif">6577.50</text>
<line x1="70.0" y1="305.1" x2="1110.0" y2="305.1" stroke="#f4d35e" stroke-width="2"/>
<text x="78.0" y="297.1" font-size="13" fill="#f4d35e" text-anchor="start" font-family="Arial, sans-serif">reclaimed level 6603.00</text>
<line x1="70.0" y1="249.2" x2="1110.0" y2="249.2" stroke="#5bc0eb" stroke-width="1.5" stroke-dasharray="8 6"/>
<text x="78.0" y="241.2" font-size="13" fill="#5bc0eb" text-anchor="start" font-family="Arial, sans-serif">non-acceptance danger line level + 5 = 6608.00</text>
<line x1="70.0" y1="567.7" x2="1110.0" y2="567.7" stroke="#f25f5c" stroke-width="1.5" stroke-dasharray="5 5"/>
<text x="78.0" y="585.7" font-size="13" fill="#f25f5c" text-anchor="start" font-family="Arial, sans-serif">invalidation anchor 6579.50</text>
<line x1="86.8" y1="405.6" x2="86.8" y2="531.3" stroke="#ff5c5c" stroke-width="1"/>
<rect x="72.0" y="442.0" width="29.5" height="58.7" fill="#ff5c5c" opacity="0.9"/>
<line x1="120.3" y1="492.2" x2="120.3" y2="528.5" stroke="#ff5c5c" stroke-width="1"/>
<rect x="105.5" y="497.8" width="29.5" height="2.8" fill="#ff5c5c" opacity="0.9"/>
<line x1="153.9" y1="458.7" x2="153.9" y2="514.6" stroke="#32d074" stroke-width="1"/>
<rect x="139.1" y="461.5" width="29.5" height="39.1" fill="#32d074" opacity="0.9"/>
<line x1="187.4" y1="453.1" x2="187.4" y2="525.8" stroke="#ff5c5c" stroke-width="1"/>
<rect x="172.6" y="458.7" width="29.5" height="58.7" fill="#ff5c5c" opacity="0.9"/>
<line x1="221.0" y1="483.9" x2="221.0" y2="531.3" stroke="#32d074" stroke-width="1"/>
<rect x="206.2" y="500.6" width="29.5" height="14.0" fill="#32d074" opacity="0.9"/>
<line x1="254.5" y1="447.5" x2="254.5" y2="500.6" stroke="#32d074" stroke-width="1"/>
<rect x="239.7" y="458.7" width="29.5" height="41.9" fill="#32d074" opacity="0.9"/>
<line x1="288.1" y1="458.7" x2="288.1" y2="509.0" stroke="#ff5c5c" stroke-width="1"/>
<rect x="273.3" y="458.7" width="29.5" height="44.7" fill="#ff5c5c" opacity="0.9"/>
<line x1="321.6" y1="481.1" x2="321.6" y2="559.3" stroke="#ff5c5c" stroke-width="1"/>
<rect x="306.8" y="500.6" width="29.5" height="53.1" fill="#ff5c5c" opacity="0.9"/>
<line x1="355.2" y1="475.5" x2="355.2" y2="564.9" stroke="#32d074" stroke-width="1"/>
<rect x="340.4" y="523.0" width="29.5" height="33.5" fill="#32d074" opacity="0.9"/>
<line x1="355.2" y1="90.0" x2="355.2" y2="590.0" stroke="#ff8c42" stroke-width="2" stroke-dasharray="4 4"/>
<text x="361.2" y="108.0" font-size="12" fill="#ffb37a" text-anchor="start" font-family="Arial, sans-serif">trap candle</text>
<line x1="388.7" y1="475.5" x2="388.7" y2="528.5" stroke="#32d074" stroke-width="1"/>
<rect x="373.9" y="500.6" width="29.5" height="22.3" fill="#32d074" opacity="0.9"/>
<line x1="422.3" y1="436.4" x2="422.3" y2="509.0" stroke="#32d074" stroke-width="1"/>
<rect x="407.5" y="436.4" width="29.5" height="64.2" fill="#32d074" opacity="0.9"/>
<line x1="455.8" y1="369.3" x2="455.8" y2="450.3" stroke="#32d074" stroke-width="1"/>
<rect x="441.0" y="383.3" width="29.5" height="55.9" fill="#32d074" opacity="0.9"/>
<line x1="489.4" y1="299.5" x2="489.4" y2="400.1" stroke="#32d074" stroke-width="1"/>
<rect x="474.6" y="302.3" width="29.5" height="81.0" fill="#32d074" opacity="0.9"/>
<line x1="522.9" y1="224.1" x2="522.9" y2="316.3" stroke="#32d074" stroke-width="1"/>
<rect x="508.1" y="260.4" width="29.5" height="41.9" fill="#32d074" opacity="0.9"/>
<line x1="556.5" y1="240.8" x2="556.5" y2="296.7" stroke="#ff5c5c" stroke-width="1"/>
<rect x="541.7" y="260.4" width="29.5" height="19.6" fill="#ff5c5c" opacity="0.9"/>
<line x1="590.0" y1="185.0" x2="590.0" y2="305.1" stroke="#32d074" stroke-width="1"/>
<rect x="575.2" y="198.9" width="29.5" height="83.8" fill="#32d074" opacity="0.9"/>
<line x1="590.0" y1="90.0" x2="590.0" y2="590.0" stroke="#7bd88f" stroke-width="2" stroke-dasharray="4 4"/>
<text x="596.0" y="126.0" font-size="12" fill="#a7f3b7" text-anchor="start" font-family="Arial, sans-serif">first reclaim close</text>
<line x1="623.5" y1="185.0" x2="623.5" y2="240.8" stroke="#ff5c5c" stroke-width="1"/>
<rect x="608.8" y="198.9" width="29.5" height="27.9" fill="#ff5c5c" opacity="0.9"/>
<line x1="657.1" y1="221.3" x2="657.1" y2="277.2" stroke="#ff5c5c" stroke-width="1"/>
<rect x="642.3" y="224.1" width="29.5" height="36.3" fill="#ff5c5c" opacity="0.9"/>
<line x1="690.6" y1="232.5" x2="690.6" y2="279.9" stroke="#32d074" stroke-width="1"/>
<rect x="675.9" y="243.6" width="29.5" height="16.8" fill="#32d074" opacity="0.9"/>
<line x1="724.2" y1="176.6" x2="724.2" y2="252.0" stroke="#32d074" stroke-width="1"/>
<rect x="709.4" y="190.6" width="29.5" height="55.9" fill="#32d074" opacity="0.9"/>
<line x1="757.7" y1="140.3" x2="757.7" y2="218.5" stroke="#ff5c5c" stroke-width="1"/>
<rect x="743.0" y="187.8" width="29.5" height="19.6" fill="#ff5c5c" opacity="0.9"/>
<line x1="791.3" y1="120.7" x2="791.3" y2="240.8" stroke="#32d074" stroke-width="1"/>
<rect x="776.5" y="129.1" width="29.5" height="78.2" fill="#32d074" opacity="0.9"/>
<line x1="824.8" y1="129.1" x2="824.8" y2="182.2" stroke="#ff5c5c" stroke-width="1"/>
<rect x="810.1" y="131.9" width="29.5" height="11.2" fill="#ff5c5c" opacity="0.9"/>
<line x1="858.4" y1="140.3" x2="858.4" y2="201.7" stroke="#ff5c5c" stroke-width="1"/>
<rect x="843.6" y="140.3" width="29.5" height="47.5" fill="#ff5c5c" opacity="0.9"/>
<line x1="891.9" y1="162.6" x2="891.9" y2="210.1" stroke="#32d074" stroke-width="1"/>
<rect x="877.2" y="168.2" width="29.5" height="19.6" fill="#32d074" opacity="0.9"/>
<line x1="925.5" y1="159.8" x2="925.5" y2="238.0" stroke="#ff5c5c" stroke-width="1"/>
<rect x="910.7" y="168.2" width="29.5" height="47.5" fill="#ff5c5c" opacity="0.9"/>
<line x1="959.0" y1="207.3" x2="959.0" y2="291.1" stroke="#ff5c5c" stroke-width="1"/>
<rect x="944.3" y="215.7" width="29.5" height="72.6" fill="#ff5c5c" opacity="0.9"/>
<line x1="992.6" y1="126.3" x2="992.6" y2="327.4" stroke="#32d074" stroke-width="1"/>
<rect x="977.8" y="140.3" width="29.5" height="148.0" fill="#32d074" opacity="0.9"/>
<line x1="1026.1" y1="112.3" x2="1026.1" y2="179.4" stroke="#ff5c5c" stroke-width="1"/>
<rect x="1011.4" y="134.7" width="29.5" height="19.6" fill="#ff5c5c" opacity="0.9"/>
<line x1="1059.7" y1="129.1" x2="1059.7" y2="182.2" stroke="#32d074" stroke-width="1"/>
<rect x="1044.9" y="131.9" width="29.5" height="25.1" fill="#32d074" opacity="0.9"/>
<line x1="1093.2" y1="131.9" x2="1093.2" y2="176.6" stroke="#ff5c5c" stroke-width="1"/>
<rect x="1078.5" y="134.7" width="29.5" height="25.1" fill="#ff5c5c" opacity="0.9"/>
<rect x="70" y="610" width="1040" height="340" fill="#141922" stroke="#344156" rx="6"/>
<text x="86.0" y="636.0" font-size="14" fill="#f1f5f9" text-anchor="start" font-family="Arial, sans-serif">source: longer-mancini-logs</text>
<text x="606.0" y="636.0" font-size="14" fill="#f1f5f9" text-anchor="start" font-family="Arial, sans-serif">source kind: daily_plan_text</text>
<text x="86.0" y="660.0" font-size="14" fill="#f1f5f9" text-anchor="start" font-family="Arial, sans-serif">timezone policy: barchart-raw</text>
<text x="606.0" y="660.0" font-size="14" fill="#f1f5f9" text-anchor="start" font-family="Arial, sans-serif">flush points: 23.25</text>
<text x="86.0" y="684.0" font-size="14" fill="#f1f5f9" text-anchor="start" font-family="Arial, sans-serif">reclaim minutes from trap: 7.00</text>
<text x="606.0" y="684.0" font-size="14" fill="#f1f5f9" text-anchor="start" font-family="Arial, sans-serif">acceptance closes: 16</text>
<text x="86.0" y="708.0" font-size="14" fill="#f1f5f9" text-anchor="start" font-family="Arial, sans-serif">non-acceptance held bars: 8</text>
<text x="606.0" y="708.0" font-size="14" fill="#f1f5f9" text-anchor="start" font-family="Arial, sans-serif">MFE 15m: 15.25 | MAE 15m: 4.00</text>
<text x="86.0" y="732.0" font-size="14" fill="#f1f5f9" text-anchor="start" font-family="Arial, sans-serif">research only - verify visually before OCR reuse</text>
<text x="86.0" y="770.0" font-size="13" fill="#f4d35e" text-anchor="start" font-family="Arial, sans-serif">newsletter/source text:</text>
<text x="86.0" y="790.0" font-size="13" fill="#f1f5f9" text-anchor="start" font-family="Arial, sans-serif">...memeber the non-acceptance protocol automatically activates when price recovers the significant low (6598) by 5 points (6603) and holds at</text>
<text x="86.0" y="808.0" font-size="13" fill="#f1f5f9" text-anchor="start" font-family="Arial, sans-serif">or abov 6603 for a few minutes.</text>
<text x="86.0" y="844.0" font-size="13" fill="#5bc0eb" text-anchor="start" font-family="Arial, sans-serif">case note:</text>
<text x="86.0" y="864.0" font-size="13" fill="#f1f5f9" text-anchor="start" font-family="Arial, sans-serif">Source-priority real Mancini packet. Use the newsletter/source text first; OHLC metrics and deterministic labels are secondary. Source</text>
<text x="86.0" y="882.0" font-size="13" fill="#f1f5f9" text-anchor="start" font-family="Arial, sans-serif">class=explicit_mancini_narrative; stat policy=included in timing statistics.</text>
</svg>