<svg xmlns="http://www.w3.org/2000/svg" width="1200" height="980" viewBox="0 0 1200 980">
<rect width="100%" height="100%" fill="#0b0d10"/>
<text x="28.0" y="38.0" font-size="24" fill="#ffffff" text-anchor="start" font-family="Arial, sans-serif">Real Mancini Packet - Accepted Timing - classic_acceptance_second_attempt_reclaim - level 6616.0</text>
<text x="28.0" y="65.0" font-size="15" fill="#d9e6ff" text-anchor="start" font-family="Arial, sans-serif">classic_acceptance_second_attempt_reclaim | level 6616.00 | packet mancini-es1m:2026-03-26T0902:6616.0:e1f0ca306fd8</text>
<line x1="70.0" y1="90.0" x2="1110.0" y2="90.0" stroke="#263241" stroke-width="1"/>
<text x="1120.0" y="95.0" font-size="12" fill="#aeb9c8" text-anchor="start" font-family="Arial, sans-serif">6624.00</text>
<line x1="70.0" y1="190.0" x2="1110.0" y2="190.0" stroke="#263241" stroke-width="1"/>
<text x="1120.0" y="195.0" font-size="12" fill="#aeb9c8" text-anchor="start" font-family="Arial, sans-serif">6618.95</text>
<line x1="70.0" y1="290.0" x2="1110.0" y2="290.0" stroke="#263241" stroke-width="1"/>
<text x="1120.0" y="295.0" font-size="12" fill="#aeb9c8" text-anchor="start" font-family="Arial, sans-serif">6613.90</text>
<line x1="70.0" y1="390.0" x2="1110.0" y2="390.0" stroke="#263241" stroke-width="1"/>
<text x="1120.0" y="395.0" font-size="12" fill="#aeb9c8" text-anchor="start" font-family="Arial, sans-serif">6608.85</text>
<line x1="70.0" y1="490.0" x2="1110.0" y2="490.0" stroke="#263241" stroke-width="1"/>
<text x="1120.0" y="495.0" font-size="12" fill="#aeb9c8" text-anchor="start" font-family="Arial, sans-serif">6603.80</text>
<line x1="70.0" y1="590.0" x2="1110.0" y2="590.0" stroke="#263241" stroke-width="1"/>
<text x="1120.0" y="595.0" font-size="12" fill="#aeb9c8" text-anchor="start" font-family="Arial, sans-serif">6598.75</text>
<line x1="70.0" y1="248.4" x2="1110.0" y2="248.4" stroke="#f4d35e" stroke-width="2"/>
<text x="78.0" y="240.4" font-size="13" fill="#f4d35e" text-anchor="start" font-family="Arial, sans-serif">reclaimed level 6616.00</text>
<line x1="70.0" y1="149.4" x2="1110.0" y2="149.4" stroke="#5bc0eb" stroke-width="1.5" stroke-dasharray="8 6"/>
<text x="78.0" y="141.4" font-size="13" fill="#5bc0eb" text-anchor="start" font-family="Arial, sans-serif">non-acceptance danger line level + 5 = 6621.00</text>
<line x1="70.0" y1="550.4" x2="1110.0" y2="550.4" stroke="#f25f5c" stroke-width="1.5" stroke-dasharray="5 5"/>
<text x="78.0" y="568.4" font-size="13" fill="#f25f5c" text-anchor="start" font-family="Arial, sans-serif">invalidation anchor 6600.75</text>
<line x1="86.8" y1="293.0" x2="86.8" y2="505.8" stroke="#32d074" stroke-width="1"/>
<rect x="72.0" y="317.7" width="29.5" height="148.5" fill="#32d074" opacity="0.9"/>
<line x1="120.3" y1="293.0" x2="120.3" y2="392.0" stroke="#ff5c5c" stroke-width="1"/>
<rect x="105.5" y="317.7" width="29.5" height="49.5" fill="#ff5c5c" opacity="0.9"/>
<line x1="153.9" y1="357.3" x2="153.9" y2="456.3" stroke="#ff5c5c" stroke-width="1"/>
<rect x="139.1" y="362.3" width="29.5" height="64.4" fill="#ff5c5c" opacity="0.9"/>
<line x1="187.4" y1="377.1" x2="187.4" y2="461.3" stroke="#32d074" stroke-width="1"/>
<rect x="172.6" y="396.9" width="29.5" height="29.7" fill="#32d074" opacity="0.9"/>
<line x1="221.0" y1="278.1" x2="221.0" y2="411.8" stroke="#32d074" stroke-width="1"/>
<rect x="206.2" y="302.9" width="29.5" height="99.0" fill="#32d074" opacity="0.9"/>
<line x1="254.5" y1="213.8" x2="254.5" y2="352.4" stroke="#ff5c5c" stroke-width="1"/>
<rect x="239.7" y="297.9" width="29.5" height="34.7" fill="#ff5c5c" opacity="0.9"/>
<line x1="288.1" y1="179.1" x2="288.1" y2="392.0" stroke="#32d074" stroke-width="1"/>
<rect x="273.3" y="194.0" width="29.5" height="138.6" fill="#32d074" opacity="0.9"/>
<line x1="321.6" y1="194.0" x2="321.6" y2="288.0" stroke="#ff5c5c" stroke-width="1"/>
<rect x="306.8" y="198.9" width="29.5" height="19.8" fill="#ff5c5c" opacity="0.9"/>
<line x1="355.2" y1="213.8" x2="355.2" y2="322.7" stroke="#ff5c5c" stroke-width="1"/>
<rect x="340.4" y="213.8" width="29.5" height="84.2" fill="#ff5c5c" opacity="0.9"/>
<line x1="388.7" y1="253.4" x2="388.7" y2="337.5" stroke="#32d074" stroke-width="1"/>
<rect x="373.9" y="263.3" width="29.5" height="34.7" fill="#32d074" opacity="0.9"/>
<line x1="422.3" y1="248.4" x2="422.3" y2="387.0" stroke="#ff5c5c" stroke-width="1"/>
<rect x="407.5" y="263.3" width="29.5" height="84.2" fill="#ff5c5c" opacity="0.9"/>
<line x1="455.8" y1="332.6" x2="455.8" y2="481.1" stroke="#ff5c5c" stroke-width="1"/>
<rect x="441.0" y="347.4" width="29.5" height="128.7" fill="#ff5c5c" opacity="0.9"/>
<line x1="489.4" y1="189.0" x2="489.4" y2="545.4" stroke="#32d074" stroke-width="1"/>
<rect x="474.6" y="213.8" width="29.5" height="262.4" fill="#32d074" opacity="0.9"/>
<line x1="489.4" y1="90.0" x2="489.4" y2="590.0" stroke="#ff8c42" stroke-width="2" stroke-dasharray="4 4"/>
<text x="495.4" y="108.0" font-size="12" fill="#ffb37a" text-anchor="start" font-family="Arial, sans-serif">trap candle</text>
<line x1="522.9" y1="164.3" x2="522.9" y2="283.1" stroke="#ff5c5c" stroke-width="1"/>
<rect x="508.1" y="203.9" width="29.5" height="34.7" fill="#ff5c5c" opacity="0.9"/>
<line x1="556.5" y1="194.0" x2="556.5" y2="288.0" stroke="#32d074" stroke-width="1"/>
<rect x="541.7" y="198.9" width="29.5" height="44.6" fill="#32d074" opacity="0.9"/>
<line x1="590.0" y1="198.9" x2="590.0" y2="278.1" stroke="#ff5c5c" stroke-width="1"/>
<rect x="575.2" y="203.9" width="29.5" height="44.6" fill="#ff5c5c" opacity="0.9"/>
<line x1="590.0" y1="90.0" x2="590.0" y2="590.0" stroke="#7bd88f" stroke-width="2" stroke-dasharray="4 4"/>
<text x="596.0" y="126.0" font-size="12" fill="#a7f3b7" text-anchor="start" font-family="Arial, sans-serif">first reclaim close</text>
<line x1="623.5" y1="208.8" x2="623.5" y2="302.9" stroke="#32d074" stroke-width="1"/>
<rect x="608.8" y="228.6" width="29.5" height="19.8" fill="#32d074" opacity="0.9"/>
<line x1="657.1" y1="203.9" x2="657.1" y2="347.4" stroke="#ff5c5c" stroke-width="1"/>
<rect x="642.3" y="228.6" width="29.5" height="79.2" fill="#ff5c5c" opacity="0.9"/>
<line x1="690.6" y1="297.9" x2="690.6" y2="401.9" stroke="#32d074" stroke-width="1"/>
<rect x="675.9" y="307.8" width="29.5" height="5.0" fill="#32d074" opacity="0.9"/>
<line x1="724.2" y1="208.8" x2="724.2" y2="327.6" stroke="#32d074" stroke-width="1"/>
<rect x="709.4" y="213.8" width="29.5" height="99.0" fill="#32d074" opacity="0.9"/>
<line x1="757.7" y1="144.5" x2="757.7" y2="263.3" stroke="#ff5c5c" stroke-width="1"/>
<rect x="743.0" y="218.7" width="29.5" height="5.0" fill="#ff5c5c" opacity="0.9"/>
<line x1="791.3" y1="198.9" x2="791.3" y2="382.1" stroke="#ff5c5c" stroke-width="1"/>
<rect x="776.5" y="223.7" width="29.5" height="148.5" fill="#ff5c5c" opacity="0.9"/>
<line x1="824.8" y1="297.9" x2="824.8" y2="387.0" stroke="#32d074" stroke-width="1"/>
<rect x="810.1" y="317.7" width="29.5" height="59.4" fill="#32d074" opacity="0.9"/>
<line x1="858.4" y1="297.9" x2="858.4" y2="377.1" stroke="#ff5c5c" stroke-width="1"/>
<rect x="843.6" y="322.7" width="29.5" height="14.9" fill="#ff5c5c" opacity="0.9"/>
<line x1="891.9" y1="337.5" x2="891.9" y2="431.6" stroke="#ff5c5c" stroke-width="1"/>
<rect x="877.2" y="337.5" width="29.5" height="79.2" fill="#ff5c5c" opacity="0.9"/>
<line x1="925.5" y1="283.1" x2="925.5" y2="426.6" stroke="#32d074" stroke-width="1"/>
<rect x="910.7" y="312.8" width="29.5" height="108.9" fill="#32d074" opacity="0.9"/>
<line x1="959.0" y1="263.3" x2="959.0" y2="372.2" stroke="#32d074" stroke-width="1"/>
<rect x="944.3" y="273.2" width="29.5" height="44.6" fill="#32d074" opacity="0.9"/>
<line x1="992.6" y1="213.8" x2="992.6" y2="312.8" stroke="#32d074" stroke-width="1"/>
<rect x="977.8" y="213.8" width="29.5" height="64.4" fill="#32d074" opacity="0.9"/>
<line x1="1026.1" y1="129.6" x2="1026.1" y2="268.2" stroke="#32d074" stroke-width="1"/>
<rect x="1011.4" y="169.2" width="29.5" height="49.5" fill="#32d074" opacity="0.9"/>
<line x1="1059.7" y1="149.4" x2="1059.7" y2="208.8" stroke="#ff5c5c" stroke-width="1"/>
<rect x="1044.9" y="169.2" width="29.5" height="24.8" fill="#ff5c5c" opacity="0.9"/>
<line x1="1093.2" y1="189.0" x2="1093.2" y2="238.5" stroke="#ff5c5c" stroke-width="1"/>
<rect x="1078.5" y="194.0" width="29.5" height="14.9" fill="#ff5c5c" opacity="0.9"/>
<rect x="70" y="610" width="1040" height="340" fill="#141922" stroke="#344156" rx="6"/>
<text x="86.0" y="636.0" font-size="14" fill="#f1f5f9" text-anchor="start" font-family="Arial, sans-serif">source: longer-mancini-logs</text>
<text x="606.0" y="636.0" font-size="14" fill="#f1f5f9" text-anchor="start" font-family="Arial, sans-serif">source kind: daily_plan_text</text>
<text x="86.0" y="660.0" font-size="14" fill="#f1f5f9" text-anchor="start" font-family="Arial, sans-serif">timezone policy: barchart-raw</text>
<text x="606.0" y="660.0" font-size="14" fill="#f1f5f9" text-anchor="start" font-family="Arial, sans-serif">flush points: 15.00</text>
<text x="86.0" y="684.0" font-size="14" fill="#f1f5f9" text-anchor="start" font-family="Arial, sans-serif">reclaim minutes from trap: 3.00</text>
<text x="606.0" y="684.0" font-size="14" fill="#f1f5f9" text-anchor="start" font-family="Arial, sans-serif">acceptance closes: 2</text>
<text x="86.0" y="708.0" font-size="14" fill="#f1f5f9" text-anchor="start" font-family="Arial, sans-serif">non-acceptance held bars: 0</text>
<text x="606.0" y="708.0" font-size="14" fill="#f1f5f9" text-anchor="start" font-family="Arial, sans-serif">MFE 15m: 3.75 | MAE 15m: 11.50</text>
<text x="86.0" y="732.0" font-size="14" fill="#f1f5f9" text-anchor="start" font-family="Arial, sans-serif">research only - verify visually before OCR reuse</text>
<text x="86.0" y="770.0" font-size="13" fill="#f4d35e" text-anchor="start" font-family="Arial, sans-serif">newsletter/source text:</text>
<text x="86.0" y="790.0" font-size="13" fill="#f1f5f9" text-anchor="start" font-family="Arial, sans-serif">Supports are: 6616</text>
<text x="86.0" y="844.0" font-size="13" fill="#5bc0eb" text-anchor="start" font-family="Arial, sans-serif">case note:</text>
<text x="86.0" y="864.0" font-size="13" fill="#f1f5f9" text-anchor="start" font-family="Arial, sans-serif">Source-priority real Mancini packet. Use the newsletter/source text first; OHLC metrics and deterministic labels are secondary. Source</text>
<text x="86.0" y="882.0" font-size="13" fill="#f1f5f9" text-anchor="start" font-family="Arial, sans-serif">class=support_resistance_list; stat policy=included in timing statistics.</text>
</svg>