<svg xmlns="http://www.w3.org/2000/svg" width="1200" height="980" viewBox="0 0 1200 980">
<rect width="100%" height="100%" fill="#0b0d10"/>
<text x="28.0" y="38.0" font-size="24" fill="#ffffff" text-anchor="start" font-family="Arial, sans-serif">Real Mancini Packet - Accepted Timing - classic_acceptance_second_attempt_reclaim - level 6617.0</text>
<text x="28.0" y="65.0" font-size="15" fill="#d9e6ff" text-anchor="start" font-family="Arial, sans-serif">classic_acceptance_second_attempt_reclaim | level 6617.00 | packet mancini-es1m:2026-03-26T0917:6617.0:55f735ad6a3e</text>
<line x1="70.0" y1="90.0" x2="1110.0" y2="90.0" stroke="#263241" stroke-width="1"/>
<text x="1120.0" y="95.0" font-size="12" fill="#aeb9c8" text-anchor="start" font-family="Arial, sans-serif">6624.00</text>
<line x1="70.0" y1="190.0" x2="1110.0" y2="190.0" stroke="#263241" stroke-width="1"/>
<text x="1120.0" y="195.0" font-size="12" fill="#aeb9c8" text-anchor="start" font-family="Arial, sans-serif">6620.10</text>
<line x1="70.0" y1="290.0" x2="1110.0" y2="290.0" stroke="#263241" stroke-width="1"/>
<text x="1120.0" y="295.0" font-size="12" fill="#aeb9c8" text-anchor="start" font-family="Arial, sans-serif">6616.20</text>
<line x1="70.0" y1="390.0" x2="1110.0" y2="390.0" stroke="#263241" stroke-width="1"/>
<text x="1120.0" y="395.0" font-size="12" fill="#aeb9c8" text-anchor="start" font-family="Arial, sans-serif">6612.30</text>
<line x1="70.0" y1="490.0" x2="1110.0" y2="490.0" stroke="#263241" stroke-width="1"/>
<text x="1120.0" y="495.0" font-size="12" fill="#aeb9c8" text-anchor="start" font-family="Arial, sans-serif">6608.40</text>
<line x1="70.0" y1="590.0" x2="1110.0" y2="590.0" stroke="#263241" stroke-width="1"/>
<text x="1120.0" y="595.0" font-size="12" fill="#aeb9c8" text-anchor="start" font-family="Arial, sans-serif">6604.50</text>
<line x1="70.0" y1="269.5" x2="1110.0" y2="269.5" stroke="#f4d35e" stroke-width="2"/>
<text x="78.0" y="261.5" font-size="13" fill="#f4d35e" text-anchor="start" font-family="Arial, sans-serif">reclaimed level 6617.00</text>
<line x1="70.0" y1="141.3" x2="1110.0" y2="141.3" stroke="#5bc0eb" stroke-width="1.5" stroke-dasharray="8 6"/>
<text x="78.0" y="133.3" font-size="13" fill="#5bc0eb" text-anchor="start" font-family="Arial, sans-serif">non-acceptance danger line level + 5 = 6622.00</text>
<line x1="70.0" y1="538.7" x2="1110.0" y2="538.7" stroke="#f25f5c" stroke-width="1.5" stroke-dasharray="5 5"/>
<text x="78.0" y="556.7" font-size="13" fill="#f25f5c" text-anchor="start" font-family="Arial, sans-serif">invalidation anchor 6606.50</text>
<line x1="86.8" y1="231.0" x2="86.8" y2="333.6" stroke="#ff5c5c" stroke-width="1"/>
<rect x="72.0" y="237.4" width="29.5" height="57.7" fill="#ff5c5c" opacity="0.9"/>
<line x1="120.3" y1="243.8" x2="120.3" y2="365.6" stroke="#32d074" stroke-width="1"/>
<rect x="105.5" y="269.5" width="29.5" height="25.6" fill="#32d074" opacity="0.9"/>
<line x1="153.9" y1="237.4" x2="153.9" y2="423.3" stroke="#ff5c5c" stroke-width="1"/>
<rect x="139.1" y="269.5" width="29.5" height="102.6" fill="#ff5c5c" opacity="0.9"/>
<line x1="187.4" y1="359.2" x2="187.4" y2="493.8" stroke="#32d074" stroke-width="1"/>
<rect x="172.6" y="372.1" width="29.5" height="6.4" fill="#32d074" opacity="0.9"/>
<line x1="221.0" y1="243.8" x2="221.0" y2="397.7" stroke="#32d074" stroke-width="1"/>
<rect x="206.2" y="250.3" width="29.5" height="128.2" fill="#32d074" opacity="0.9"/>
<line x1="254.5" y1="160.5" x2="254.5" y2="314.4" stroke="#ff5c5c" stroke-width="1"/>
<rect x="239.7" y="256.7" width="29.5" height="6.4" fill="#ff5c5c" opacity="0.9"/>
<line x1="288.1" y1="231.0" x2="288.1" y2="468.2" stroke="#ff5c5c" stroke-width="1"/>
<rect x="273.3" y="263.1" width="29.5" height="192.3" fill="#ff5c5c" opacity="0.9"/>
<line x1="321.6" y1="359.2" x2="321.6" y2="474.6" stroke="#32d074" stroke-width="1"/>
<rect x="306.8" y="384.9" width="29.5" height="76.9" fill="#32d074" opacity="0.9"/>
<line x1="355.2" y1="359.2" x2="355.2" y2="461.8" stroke="#ff5c5c" stroke-width="1"/>
<rect x="340.4" y="391.3" width="29.5" height="19.2" fill="#ff5c5c" opacity="0.9"/>
<line x1="388.7" y1="410.5" x2="388.7" y2="532.3" stroke="#ff5c5c" stroke-width="1"/>
<rect x="373.9" y="410.5" width="29.5" height="102.6" fill="#ff5c5c" opacity="0.9"/>
<line x1="388.7" y1="90.0" x2="388.7" y2="590.0" stroke="#ff8c42" stroke-width="2" stroke-dasharray="4 4"/>
<text x="394.7" y="108.0" font-size="12" fill="#ffb37a" text-anchor="start" font-family="Arial, sans-serif">trap candle</text>
<line x1="422.3" y1="340.0" x2="422.3" y2="525.9" stroke="#32d074" stroke-width="1"/>
<rect x="407.5" y="378.5" width="29.5" height="141.0" fill="#32d074" opacity="0.9"/>
<line x1="455.8" y1="314.4" x2="455.8" y2="455.4" stroke="#32d074" stroke-width="1"/>
<rect x="441.0" y="327.2" width="29.5" height="57.7" fill="#32d074" opacity="0.9"/>
<line x1="489.4" y1="250.3" x2="489.4" y2="378.5" stroke="#32d074" stroke-width="1"/>
<rect x="474.6" y="250.3" width="29.5" height="83.3" fill="#32d074" opacity="0.9"/>
<line x1="522.9" y1="141.3" x2="522.9" y2="320.8" stroke="#32d074" stroke-width="1"/>
<rect x="508.1" y="192.6" width="29.5" height="64.1" fill="#32d074" opacity="0.9"/>
<line x1="556.5" y1="166.9" x2="556.5" y2="243.8" stroke="#ff5c5c" stroke-width="1"/>
<rect x="541.7" y="192.6" width="29.5" height="32.1" fill="#ff5c5c" opacity="0.9"/>
<line x1="590.0" y1="218.2" x2="590.0" y2="282.3" stroke="#ff5c5c" stroke-width="1"/>
<rect x="575.2" y="224.6" width="29.5" height="19.2" fill="#ff5c5c" opacity="0.9"/>
<line x1="590.0" y1="90.0" x2="590.0" y2="590.0" stroke="#7bd88f" stroke-width="2" stroke-dasharray="4 4"/>
<text x="596.0" y="126.0" font-size="12" fill="#a7f3b7" text-anchor="start" font-family="Arial, sans-serif">first reclaim close</text>
<line x1="623.5" y1="192.6" x2="623.5" y2="288.7" stroke="#ff5c5c" stroke-width="1"/>
<rect x="608.8" y="243.8" width="29.5" height="44.9" fill="#ff5c5c" opacity="0.9"/>
<line x1="657.1" y1="269.5" x2="657.1" y2="397.7" stroke="#ff5c5c" stroke-width="1"/>
<rect x="642.3" y="288.7" width="29.5" height="83.3" fill="#ff5c5c" opacity="0.9"/>
<line x1="690.6" y1="295.1" x2="690.6" y2="442.6" stroke="#32d074" stroke-width="1"/>
<rect x="675.9" y="346.4" width="29.5" height="25.6" fill="#32d074" opacity="0.9"/>
<line x1="724.2" y1="307.9" x2="724.2" y2="384.9" stroke="#ff5c5c" stroke-width="1"/>
<rect x="709.4" y="340.0" width="29.5" height="12.8" fill="#ff5c5c" opacity="0.9"/>
<line x1="757.7" y1="179.7" x2="757.7" y2="352.8" stroke="#32d074" stroke-width="1"/>
<rect x="743.0" y="199.0" width="29.5" height="153.8" fill="#32d074" opacity="0.9"/>
<line x1="791.3" y1="205.4" x2="791.3" y2="288.7" stroke="#ff5c5c" stroke-width="1"/>
<rect x="776.5" y="205.4" width="29.5" height="38.5" fill="#ff5c5c" opacity="0.9"/>
<line x1="824.8" y1="224.6" x2="824.8" y2="314.4" stroke="#ff5c5c" stroke-width="1"/>
<rect x="810.1" y="243.8" width="29.5" height="57.7" fill="#ff5c5c" opacity="0.9"/>
<line x1="858.4" y1="282.3" x2="858.4" y2="372.1" stroke="#32d074" stroke-width="1"/>
<rect x="843.6" y="295.1" width="29.5" height="12.8" fill="#32d074" opacity="0.9"/>
<line x1="891.9" y1="250.3" x2="891.9" y2="320.8" stroke="#ff5c5c" stroke-width="1"/>
<rect x="877.2" y="295.1" width="29.5" height="19.2" fill="#ff5c5c" opacity="0.9"/>
<line x1="925.5" y1="295.1" x2="925.5" y2="384.9" stroke="#ff5c5c" stroke-width="1"/>
<rect x="910.7" y="320.8" width="29.5" height="38.5" fill="#ff5c5c" opacity="0.9"/>
<line x1="959.0" y1="340.0" x2="959.0" y2="397.7" stroke="#ff5c5c" stroke-width="1"/>
<rect x="944.3" y="359.2" width="29.5" height="6.4" fill="#ff5c5c" opacity="0.9"/>
<line x1="992.6" y1="346.4" x2="992.6" y2="481.0" stroke="#ff5c5c" stroke-width="1"/>
<rect x="977.8" y="365.6" width="29.5" height="102.6" fill="#ff5c5c" opacity="0.9"/>
<line x1="1026.1" y1="352.8" x2="1026.1" y2="474.6" stroke="#32d074" stroke-width="1"/>
<rect x="1011.4" y="378.5" width="29.5" height="89.7" fill="#32d074" opacity="0.9"/>
<line x1="1059.7" y1="263.1" x2="1059.7" y2="372.1" stroke="#32d074" stroke-width="1"/>
<rect x="1044.9" y="282.3" width="29.5" height="89.7" fill="#32d074" opacity="0.9"/>
<line x1="1093.2" y1="250.3" x2="1093.2" y2="346.4" stroke="#ff5c5c" stroke-width="1"/>
<rect x="1078.5" y="275.9" width="29.5" height="25.6" fill="#ff5c5c" opacity="0.9"/>
<rect x="70" y="610" width="1040" height="340" fill="#141922" stroke="#344156" rx="6"/>
<text x="86.0" y="636.0" font-size="14" fill="#f1f5f9" text-anchor="start" font-family="Arial, sans-serif">source: longer-mancini-logs</text>
<text x="606.0" y="636.0" font-size="14" fill="#f1f5f9" text-anchor="start" font-family="Arial, sans-serif">source kind: daily_plan_text</text>
<text x="86.0" y="660.0" font-size="14" fill="#f1f5f9" text-anchor="start" font-family="Arial, sans-serif">timezone policy: barchart-raw</text>
<text x="606.0" y="660.0" font-size="14" fill="#f1f5f9" text-anchor="start" font-family="Arial, sans-serif">flush points: 10.25</text>
<text x="86.0" y="684.0" font-size="14" fill="#f1f5f9" text-anchor="start" font-family="Arial, sans-serif">reclaim minutes from trap: 6.00</text>
<text x="606.0" y="684.0" font-size="14" fill="#f1f5f9" text-anchor="start" font-family="Arial, sans-serif">acceptance closes: 1</text>
<text x="86.0" y="708.0" font-size="14" fill="#f1f5f9" text-anchor="start" font-family="Arial, sans-serif">non-acceptance held bars: 0</text>
<text x="606.0" y="708.0" font-size="14" fill="#f1f5f9" text-anchor="start" font-family="Arial, sans-serif">MFE 15m: 1.75 | MAE 15m: 10.00</text>
<text x="86.0" y="732.0" font-size="14" fill="#f1f5f9" text-anchor="start" font-family="Arial, sans-serif">research only - verify visually before OCR reuse</text>
<text x="86.0" y="770.0" font-size="13" fill="#f4d35e" text-anchor="start" font-family="Arial, sans-serif">newsletter/source text:</text>
<text x="86.0" y="790.0" font-size="13" fill="#f1f5f9" text-anchor="start" font-family="Arial, sans-serif">We went elevator down to 6617 by noon or so, recovered a big low set at 8am at 6623, and rallied again to 6700 to set the high of day.</text>
<text x="86.0" y="844.0" font-size="13" fill="#5bc0eb" text-anchor="start" font-family="Arial, sans-serif">case note:</text>
<text x="86.0" y="864.0" font-size="13" fill="#f1f5f9" text-anchor="start" font-family="Arial, sans-serif">Source-priority real Mancini packet. Use the newsletter/source text first; OHLC metrics and deterministic labels are secondary. Source</text>
<text x="86.0" y="882.0" font-size="13" fill="#f1f5f9" text-anchor="start" font-family="Arial, sans-serif">class=explicit_mancini_narrative; stat policy=included in timing statistics.</text>
</svg>