<svg xmlns="http://www.w3.org/2000/svg" width="1200" height="980" viewBox="0 0 1200 980">
<rect width="100%" height="100%" fill="#0b0d10"/>
<text x="28.0" y="38.0" font-size="24" fill="#ffffff" text-anchor="start" font-family="Arial, sans-serif">Real Mancini Packet - Accepted Timing - non_acceptance_protocol - level 7147.0</text>
<text x="28.0" y="65.0" font-size="15" fill="#d9e6ff" text-anchor="start" font-family="Arial, sans-serif">non_acceptance_protocol | level 7147.00 | packet mancini-es1m:2026-04-20T0832:7147.0:419ee4aff98b</text>
<line x1="70.0" y1="90.0" x2="1110.0" y2="90.0" stroke="#263241" stroke-width="1"/>
<text x="1120.0" y="95.0" font-size="12" fill="#aeb9c8" text-anchor="start" font-family="Arial, sans-serif">7156.50</text>
<line x1="70.0" y1="190.0" x2="1110.0" y2="190.0" stroke="#263241" stroke-width="1"/>
<text x="1120.0" y="195.0" font-size="12" fill="#aeb9c8" text-anchor="start" font-family="Arial, sans-serif">7152.65</text>
<line x1="70.0" y1="290.0" x2="1110.0" y2="290.0" stroke="#263241" stroke-width="1"/>
<text x="1120.0" y="295.0" font-size="12" fill="#aeb9c8" text-anchor="start" font-family="Arial, sans-serif">7148.80</text>
<line x1="70.0" y1="390.0" x2="1110.0" y2="390.0" stroke="#263241" stroke-width="1"/>
<text x="1120.0" y="395.0" font-size="12" fill="#aeb9c8" text-anchor="start" font-family="Arial, sans-serif">7144.95</text>
<line x1="70.0" y1="490.0" x2="1110.0" y2="490.0" stroke="#263241" stroke-width="1"/>
<text x="1120.0" y="495.0" font-size="12" fill="#aeb9c8" text-anchor="start" font-family="Arial, sans-serif">7141.10</text>
<line x1="70.0" y1="590.0" x2="1110.0" y2="590.0" stroke="#263241" stroke-width="1"/>
<text x="1120.0" y="595.0" font-size="12" fill="#aeb9c8" text-anchor="start" font-family="Arial, sans-serif">7137.25</text>
<line x1="70.0" y1="336.8" x2="1110.0" y2="336.8" stroke="#f4d35e" stroke-width="2"/>
<text x="78.0" y="328.8" font-size="13" fill="#f4d35e" text-anchor="start" font-family="Arial, sans-serif">reclaimed level 7147.00</text>
<line x1="70.0" y1="206.9" x2="1110.0" y2="206.9" stroke="#5bc0eb" stroke-width="1.5" stroke-dasharray="8 6"/>
<text x="78.0" y="198.9" font-size="13" fill="#5bc0eb" text-anchor="start" font-family="Arial, sans-serif">non-acceptance danger line level + 5 = 7152.00</text>
<line x1="70.0" y1="538.1" x2="1110.0" y2="538.1" stroke="#f25f5c" stroke-width="1.5" stroke-dasharray="5 5"/>
<text x="78.0" y="556.1" font-size="13" fill="#f25f5c" text-anchor="start" font-family="Arial, sans-serif">invalidation anchor 7139.25</text>
<line x1="86.8" y1="479.6" x2="86.8" y2="518.6" stroke="#ff5c5c" stroke-width="1"/>
<rect x="72.0" y="486.1" width="29.5" height="32.5" fill="#ff5c5c" opacity="0.9"/>
<line x1="120.3" y1="486.1" x2="120.3" y2="531.6" stroke="#32d074" stroke-width="1"/>
<rect x="105.5" y="499.1" width="29.5" height="26.0" fill="#32d074" opacity="0.9"/>
<line x1="120.3" y1="90.0" x2="120.3" y2="590.0" stroke="#ff8c42" stroke-width="2" stroke-dasharray="4 4"/>
<text x="126.3" y="108.0" font-size="12" fill="#ffb37a" text-anchor="start" font-family="Arial, sans-serif">trap candle</text>
<line x1="153.9" y1="460.1" x2="153.9" y2="512.1" stroke="#ff5c5c" stroke-width="1"/>
<rect x="139.1" y="492.6" width="29.5" height="13.0" fill="#ff5c5c" opacity="0.9"/>
<line x1="187.4" y1="499.1" x2="187.4" y2="525.1" stroke="#ff5c5c" stroke-width="1"/>
<rect x="172.6" y="505.6" width="29.5" height="6.5" fill="#ff5c5c" opacity="0.9"/>
<line x1="221.0" y1="486.1" x2="221.0" y2="531.6" stroke="#32d074" stroke-width="1"/>
<rect x="206.2" y="492.6" width="29.5" height="13.0" fill="#32d074" opacity="0.9"/>
<line x1="254.5" y1="408.2" x2="254.5" y2="499.1" stroke="#32d074" stroke-width="1"/>
<rect x="239.7" y="427.7" width="29.5" height="58.4" fill="#32d074" opacity="0.9"/>
<line x1="288.1" y1="401.7" x2="288.1" y2="466.6" stroke="#32d074" stroke-width="1"/>
<rect x="273.3" y="421.2" width="29.5" height="6.5" fill="#32d074" opacity="0.9"/>
<line x1="321.6" y1="408.2" x2="321.6" y2="473.1" stroke="#ff5c5c" stroke-width="1"/>
<rect x="306.8" y="427.7" width="29.5" height="13.0" fill="#ff5c5c" opacity="0.9"/>
<line x1="355.2" y1="440.6" x2="355.2" y2="479.6" stroke="#ff5c5c" stroke-width="1"/>
<rect x="340.4" y="440.6" width="29.5" height="26.0" fill="#ff5c5c" opacity="0.9"/>
<line x1="388.7" y1="440.6" x2="388.7" y2="473.1" stroke="#32d074" stroke-width="1"/>
<rect x="373.9" y="447.1" width="29.5" height="13.0" fill="#32d074" opacity="0.9"/>
<line x1="422.3" y1="356.2" x2="422.3" y2="447.1" stroke="#32d074" stroke-width="1"/>
<rect x="407.5" y="395.2" width="29.5" height="51.9" fill="#32d074" opacity="0.9"/>
<line x1="455.8" y1="343.2" x2="455.8" y2="395.2" stroke="#32d074" stroke-width="1"/>
<rect x="441.0" y="362.7" width="29.5" height="32.5" fill="#32d074" opacity="0.9"/>
<line x1="489.4" y1="304.3" x2="489.4" y2="369.2" stroke="#32d074" stroke-width="1"/>
<rect x="474.6" y="304.3" width="29.5" height="51.9" fill="#32d074" opacity="0.9"/>
<line x1="522.9" y1="167.9" x2="522.9" y2="310.8" stroke="#32d074" stroke-width="1"/>
<rect x="508.1" y="245.8" width="29.5" height="58.4" fill="#32d074" opacity="0.9"/>
<line x1="556.5" y1="245.8" x2="556.5" y2="421.2" stroke="#ff5c5c" stroke-width="1"/>
<rect x="541.7" y="245.8" width="29.5" height="39.0" fill="#ff5c5c" opacity="0.9"/>
<line x1="590.0" y1="245.8" x2="590.0" y2="317.3" stroke="#32d074" stroke-width="1"/>
<rect x="575.2" y="271.8" width="29.5" height="13.0" fill="#32d074" opacity="0.9"/>
<line x1="590.0" y1="90.0" x2="590.0" y2="590.0" stroke="#7bd88f" stroke-width="2" stroke-dasharray="4 4"/>
<text x="596.0" y="126.0" font-size="12" fill="#a7f3b7" text-anchor="start" font-family="Arial, sans-serif">first reclaim close</text>
<line x1="623.5" y1="239.4" x2="623.5" y2="317.3" stroke="#32d074" stroke-width="1"/>
<rect x="608.8" y="245.8" width="29.5" height="26.0" fill="#32d074" opacity="0.9"/>
<line x1="657.1" y1="200.4" x2="657.1" y2="304.3" stroke="#32d074" stroke-width="1"/>
<rect x="642.3" y="226.4" width="29.5" height="26.0" fill="#32d074" opacity="0.9"/>
<line x1="690.6" y1="193.9" x2="690.6" y2="252.3" stroke="#32d074" stroke-width="1"/>
<rect x="675.9" y="219.9" width="29.5" height="6.5" fill="#32d074" opacity="0.9"/>
<line x1="724.2" y1="154.9" x2="724.2" y2="265.3" stroke="#32d074" stroke-width="1"/>
<rect x="709.4" y="193.9" width="29.5" height="26.0" fill="#32d074" opacity="0.9"/>
<line x1="757.7" y1="141.9" x2="757.7" y2="219.9" stroke="#ff5c5c" stroke-width="1"/>
<rect x="743.0" y="193.9" width="29.5" height="6.5" fill="#ff5c5c" opacity="0.9"/>
<line x1="791.3" y1="167.9" x2="791.3" y2="336.8" stroke="#ff5c5c" stroke-width="1"/>
<rect x="776.5" y="206.9" width="29.5" height="123.4" fill="#ff5c5c" opacity="0.9"/>
<line x1="824.8" y1="304.3" x2="824.8" y2="414.7" stroke="#ff5c5c" stroke-width="1"/>
<rect x="810.1" y="330.3" width="29.5" height="26.0" fill="#ff5c5c" opacity="0.9"/>
<line x1="858.4" y1="349.7" x2="858.4" y2="460.1" stroke="#ff5c5c" stroke-width="1"/>
<rect x="843.6" y="349.7" width="29.5" height="32.5" fill="#ff5c5c" opacity="0.9"/>
<line x1="891.9" y1="278.3" x2="891.9" y2="401.7" stroke="#32d074" stroke-width="1"/>
<rect x="877.2" y="369.2" width="29.5" height="13.0" fill="#32d074" opacity="0.9"/>
<line x1="925.5" y1="310.8" x2="925.5" y2="401.7" stroke="#32d074" stroke-width="1"/>
<rect x="910.7" y="323.8" width="29.5" height="45.5" fill="#32d074" opacity="0.9"/>
<line x1="959.0" y1="252.3" x2="959.0" y2="362.7" stroke="#32d074" stroke-width="1"/>
<rect x="944.3" y="291.3" width="29.5" height="32.5" fill="#32d074" opacity="0.9"/>
<line x1="992.6" y1="271.8" x2="992.6" y2="317.3" stroke="#ff5c5c" stroke-width="1"/>
<rect x="977.8" y="291.3" width="29.5" height="6.5" fill="#ff5c5c" opacity="0.9"/>
<line x1="1026.1" y1="245.8" x2="1026.1" y2="349.7" stroke="#32d074" stroke-width="1"/>
<rect x="1011.4" y="245.8" width="29.5" height="51.9" fill="#32d074" opacity="0.9"/>
<line x1="1059.7" y1="252.3" x2="1059.7" y2="330.3" stroke="#ff5c5c" stroke-width="1"/>
<rect x="1044.9" y="252.3" width="29.5" height="64.9" fill="#ff5c5c" opacity="0.9"/>
<line x1="1093.2" y1="245.8" x2="1093.2" y2="336.8" stroke="#32d074" stroke-width="1"/>
<rect x="1078.5" y="271.8" width="29.5" height="45.5" fill="#32d074" opacity="0.9"/>
<rect x="70" y="610" width="1040" height="340" fill="#141922" stroke="#344156" rx="6"/>
<text x="86.0" y="636.0" font-size="14" fill="#f1f5f9" text-anchor="start" font-family="Arial, sans-serif">source: longer-mancini-logs</text>
<text x="606.0" y="636.0" font-size="14" fill="#f1f5f9" text-anchor="start" font-family="Arial, sans-serif">source kind: daily_plan_text</text>
<text x="86.0" y="660.0" font-size="14" fill="#f1f5f9" text-anchor="start" font-family="Arial, sans-serif">timezone policy: barchart-raw</text>
<text x="606.0" y="660.0" font-size="14" fill="#f1f5f9" text-anchor="start" font-family="Arial, sans-serif">flush points: 7.50</text>
<text x="86.0" y="684.0" font-size="14" fill="#f1f5f9" text-anchor="start" font-family="Arial, sans-serif">reclaim minutes from trap: 14.00</text>
<text x="606.0" y="684.0" font-size="14" fill="#f1f5f9" text-anchor="start" font-family="Arial, sans-serif">acceptance closes: 7</text>
<text x="86.0" y="708.0" font-size="14" fill="#f1f5f9" text-anchor="start" font-family="Arial, sans-serif">non-acceptance held bars: 2</text>
<text x="606.0" y="708.0" font-size="14" fill="#f1f5f9" text-anchor="start" font-family="Arial, sans-serif">MFE 15m: 5.50 | MAE 15m: 6.75</text>
<text x="86.0" y="732.0" font-size="14" fill="#f1f5f9" text-anchor="start" font-family="Arial, sans-serif">research only - verify visually before OCR reuse</text>
<text x="86.0" y="770.0" font-size="13" fill="#f4d35e" text-anchor="start" font-family="Arial, sans-serif">newsletter/source text:</text>
<text x="86.0" y="790.0" font-size="13" fill="#f1f5f9" text-anchor="start" font-family="Arial, sans-serif">Supports are: 7147 (major)</text>
<text x="86.0" y="844.0" font-size="13" fill="#5bc0eb" text-anchor="start" font-family="Arial, sans-serif">case note:</text>
<text x="86.0" y="864.0" font-size="13" fill="#f1f5f9" text-anchor="start" font-family="Arial, sans-serif">Source-priority real Mancini packet. Use the newsletter/source text first; OHLC metrics and deterministic labels are secondary. Source</text>
<text x="86.0" y="882.0" font-size="13" fill="#f1f5f9" text-anchor="start" font-family="Arial, sans-serif">class=support_resistance_list; stat policy=included in timing statistics.</text>
</svg>