<svg xmlns="http://www.w3.org/2000/svg" width="1200" height="980" viewBox="0 0 1200 980">
<rect width="100%" height="100%" fill="#0b0d10"/>
<text x="28.0" y="38.0" font-size="24" fill="#ffffff" text-anchor="start" font-family="Arial, sans-serif">Real Mancini Packet - Excluded Timing - non_acceptance_protocol - level 7116.0</text>
<text x="28.0" y="65.0" font-size="15" fill="#d9e6ff" text-anchor="start" font-family="Arial, sans-serif">non_acceptance_protocol | level 7116.00 | packet mancini-es1m:2026-04-21T1147:7116.0:0f18cf305c88</text>
<line x1="70.0" y1="90.0" x2="1110.0" y2="90.0" stroke="#263241" stroke-width="1"/>
<text x="1120.0" y="95.0" font-size="12" fill="#aeb9c8" text-anchor="start" font-family="Arial, sans-serif">7133.00</text>
<line x1="70.0" y1="190.0" x2="1110.0" y2="190.0" stroke="#263241" stroke-width="1"/>
<text x="1120.0" y="195.0" font-size="12" fill="#aeb9c8" text-anchor="start" font-family="Arial, sans-serif">7128.65</text>
<line x1="70.0" y1="290.0" x2="1110.0" y2="290.0" stroke="#263241" stroke-width="1"/>
<text x="1120.0" y="295.0" font-size="12" fill="#aeb9c8" text-anchor="start" font-family="Arial, sans-serif">7124.30</text>
<line x1="70.0" y1="390.0" x2="1110.0" y2="390.0" stroke="#263241" stroke-width="1"/>
<text x="1120.0" y="395.0" font-size="12" fill="#aeb9c8" text-anchor="start" font-family="Arial, sans-serif">7119.95</text>
<line x1="70.0" y1="490.0" x2="1110.0" y2="490.0" stroke="#263241" stroke-width="1"/>
<text x="1120.0" y="495.0" font-size="12" fill="#aeb9c8" text-anchor="start" font-family="Arial, sans-serif">7115.60</text>
<line x1="70.0" y1="590.0" x2="1110.0" y2="590.0" stroke="#263241" stroke-width="1"/>
<text x="1120.0" y="595.0" font-size="12" fill="#aeb9c8" text-anchor="start" font-family="Arial, sans-serif">7111.25</text>
<line x1="70.0" y1="480.8" x2="1110.0" y2="480.8" stroke="#f4d35e" stroke-width="2"/>
<text x="78.0" y="472.8" font-size="13" fill="#f4d35e" text-anchor="start" font-family="Arial, sans-serif">reclaimed level 7116.00</text>
<line x1="70.0" y1="365.9" x2="1110.0" y2="365.9" stroke="#5bc0eb" stroke-width="1.5" stroke-dasharray="8 6"/>
<text x="78.0" y="357.9" font-size="13" fill="#5bc0eb" text-anchor="start" font-family="Arial, sans-serif">non-acceptance danger line level + 5 = 7121.00</text>
<line x1="70.0" y1="544.0" x2="1110.0" y2="544.0" stroke="#f25f5c" stroke-width="1.5" stroke-dasharray="5 5"/>
<text x="78.0" y="562.0" font-size="13" fill="#f25f5c" text-anchor="start" font-family="Arial, sans-serif">invalidation anchor 7113.25</text>
<line x1="86.8" y1="204.9" x2="86.8" y2="245.2" stroke="#32d074" stroke-width="1"/>
<rect x="72.0" y="222.2" width="29.5" height="2.0" fill="#32d074" opacity="0.9"/>
<line x1="120.3" y1="199.2" x2="120.3" y2="233.7" stroke="#32d074" stroke-width="1"/>
<rect x="105.5" y="210.7" width="29.5" height="11.5" fill="#32d074" opacity="0.9"/>
<line x1="153.9" y1="187.7" x2="153.9" y2="227.9" stroke="#32d074" stroke-width="1"/>
<rect x="139.1" y="199.2" width="29.5" height="5.7" fill="#32d074" opacity="0.9"/>
<line x1="187.4" y1="136.0" x2="187.4" y2="193.4" stroke="#32d074" stroke-width="1"/>
<rect x="172.6" y="170.5" width="29.5" height="23.0" fill="#32d074" opacity="0.9"/>
<line x1="221.0" y1="164.7" x2="221.0" y2="245.2" stroke="#ff5c5c" stroke-width="1"/>
<rect x="206.2" y="164.7" width="29.5" height="69.0" fill="#ff5c5c" opacity="0.9"/>
<line x1="254.5" y1="233.7" x2="254.5" y2="319.9" stroke="#ff5c5c" stroke-width="1"/>
<rect x="239.7" y="233.7" width="29.5" height="74.7" fill="#ff5c5c" opacity="0.9"/>
<line x1="288.1" y1="296.9" x2="288.1" y2="342.9" stroke="#ff5c5c" stroke-width="1"/>
<rect x="273.3" y="302.6" width="29.5" height="34.5" fill="#ff5c5c" opacity="0.9"/>
<line x1="321.6" y1="273.9" x2="321.6" y2="337.1" stroke="#32d074" stroke-width="1"/>
<rect x="306.8" y="291.1" width="29.5" height="46.0" fill="#32d074" opacity="0.9"/>
<line x1="355.2" y1="262.4" x2="355.2" y2="302.6" stroke="#ff5c5c" stroke-width="1"/>
<rect x="340.4" y="285.4" width="29.5" height="17.2" fill="#ff5c5c" opacity="0.9"/>
<line x1="388.7" y1="302.6" x2="388.7" y2="342.9" stroke="#ff5c5c" stroke-width="1"/>
<rect x="373.9" y="302.6" width="29.5" height="40.2" fill="#ff5c5c" opacity="0.9"/>
<line x1="422.3" y1="319.9" x2="422.3" y2="365.9" stroke="#32d074" stroke-width="1"/>
<rect x="407.5" y="337.1" width="29.5" height="2.0" fill="#32d074" opacity="0.9"/>
<line x1="455.8" y1="337.1" x2="455.8" y2="429.1" stroke="#ff5c5c" stroke-width="1"/>
<rect x="441.0" y="337.1" width="29.5" height="80.5" fill="#ff5c5c" opacity="0.9"/>
<line x1="489.4" y1="411.8" x2="489.4" y2="492.3" stroke="#ff5c5c" stroke-width="1"/>
<rect x="474.6" y="417.6" width="29.5" height="23.0" fill="#ff5c5c" opacity="0.9"/>
<line x1="522.9" y1="354.4" x2="522.9" y2="446.3" stroke="#32d074" stroke-width="1"/>
<rect x="508.1" y="365.9" width="29.5" height="74.7" fill="#32d074" opacity="0.9"/>
<line x1="556.5" y1="302.6" x2="556.5" y2="388.9" stroke="#32d074" stroke-width="1"/>
<rect x="541.7" y="325.6" width="29.5" height="40.2" fill="#32d074" opacity="0.9"/>
<line x1="590.0" y1="314.1" x2="590.0" y2="348.6" stroke="#32d074" stroke-width="1"/>
<rect x="575.2" y="319.9" width="29.5" height="5.7" fill="#32d074" opacity="0.9"/>
<line x1="590.0" y1="90.0" x2="590.0" y2="590.0" stroke="#7bd88f" stroke-width="2" stroke-dasharray="4 4"/>
<text x="596.0" y="126.0" font-size="12" fill="#a7f3b7" text-anchor="start" font-family="Arial, sans-serif">first reclaim close</text>
<line x1="623.5" y1="273.9" x2="623.5" y2="331.4" stroke="#32d074" stroke-width="1"/>
<rect x="608.8" y="279.7" width="29.5" height="40.2" fill="#32d074" opacity="0.9"/>
<line x1="657.1" y1="262.4" x2="657.1" y2="302.6" stroke="#32d074" stroke-width="1"/>
<rect x="642.3" y="273.9" width="29.5" height="2.0" fill="#32d074" opacity="0.9"/>
<line x1="690.6" y1="268.2" x2="690.6" y2="314.1" stroke="#ff5c5c" stroke-width="1"/>
<rect x="675.9" y="279.7" width="29.5" height="28.7" fill="#ff5c5c" opacity="0.9"/>
<line x1="724.2" y1="291.1" x2="724.2" y2="377.4" stroke="#ff5c5c" stroke-width="1"/>
<rect x="709.4" y="308.4" width="29.5" height="46.0" fill="#ff5c5c" opacity="0.9"/>
<line x1="757.7" y1="331.4" x2="757.7" y2="377.4" stroke="#ff5c5c" stroke-width="1"/>
<rect x="743.0" y="354.4" width="29.5" height="5.7" fill="#ff5c5c" opacity="0.9"/>
<line x1="791.3" y1="348.6" x2="791.3" y2="371.6" stroke="#32d074" stroke-width="1"/>
<rect x="776.5" y="360.1" width="29.5" height="2.0" fill="#32d074" opacity="0.9"/>
<line x1="824.8" y1="360.1" x2="824.8" y2="411.8" stroke="#ff5c5c" stroke-width="1"/>
<rect x="810.1" y="360.1" width="29.5" height="23.0" fill="#ff5c5c" opacity="0.9"/>
<line x1="858.4" y1="383.1" x2="858.4" y2="429.1" stroke="#ff5c5c" stroke-width="1"/>
<rect x="843.6" y="383.1" width="29.5" height="46.0" fill="#ff5c5c" opacity="0.9"/>
<line x1="891.9" y1="423.3" x2="891.9" y2="475.1" stroke="#ff5c5c" stroke-width="1"/>
<rect x="877.2" y="429.1" width="29.5" height="28.7" fill="#ff5c5c" opacity="0.9"/>
<line x1="925.5" y1="423.3" x2="925.5" y2="469.3" stroke="#32d074" stroke-width="1"/>
<rect x="910.7" y="452.1" width="29.5" height="2.0" fill="#32d074" opacity="0.9"/>
<line x1="959.0" y1="434.8" x2="959.0" y2="486.6" stroke="#ff5c5c" stroke-width="1"/>
<rect x="944.3" y="452.1" width="29.5" height="23.0" fill="#ff5c5c" opacity="0.9"/>
<line x1="992.6" y1="475.1" x2="992.6" y2="538.3" stroke="#ff5c5c" stroke-width="1"/>
<rect x="977.8" y="475.1" width="29.5" height="34.5" fill="#ff5c5c" opacity="0.9"/>
<line x1="992.6" y1="90.0" x2="992.6" y2="590.0" stroke="#ff8c42" stroke-width="2" stroke-dasharray="4 4"/>
<text x="998.6" y="108.0" font-size="12" fill="#ffb37a" text-anchor="start" font-family="Arial, sans-serif">trap candle</text>
<line x1="1026.1" y1="440.6" x2="1026.1" y2="515.3" stroke="#32d074" stroke-width="1"/>
<rect x="1011.4" y="446.3" width="29.5" height="69.0" fill="#32d074" opacity="0.9"/>
<line x1="1059.7" y1="377.4" x2="1059.7" y2="457.8" stroke="#32d074" stroke-width="1"/>
<rect x="1044.9" y="388.9" width="29.5" height="57.5" fill="#32d074" opacity="0.9"/>
<line x1="1093.2" y1="348.6" x2="1093.2" y2="394.6" stroke="#32d074" stroke-width="1"/>
<rect x="1078.5" y="365.9" width="29.5" height="17.2" fill="#32d074" opacity="0.9"/>
<rect x="70" y="610" width="1040" height="340" fill="#141922" stroke="#344156" rx="6"/>
<text x="86.0" y="636.0" font-size="14" fill="#f1f5f9" text-anchor="start" font-family="Arial, sans-serif">source: longer-mancini-logs</text>
<text x="606.0" y="636.0" font-size="14" fill="#f1f5f9" text-anchor="start" font-family="Arial, sans-serif">source kind: daily_plan_text</text>
<text x="86.0" y="660.0" font-size="14" fill="#f1f5f9" text-anchor="start" font-family="Arial, sans-serif">timezone policy: barchart-raw</text>
<text x="606.0" y="660.0" font-size="14" fill="#f1f5f9" text-anchor="start" font-family="Arial, sans-serif">flush points: 2.50</text>
<text x="86.0" y="684.0" font-size="14" fill="#f1f5f9" text-anchor="start" font-family="Arial, sans-serif">reclaim minutes from trap: 0.00</text>
<text x="606.0" y="684.0" font-size="14" fill="#f1f5f9" text-anchor="start" font-family="Arial, sans-serif">acceptance closes: 12</text>
<text x="86.0" y="708.0" font-size="14" fill="#f1f5f9" text-anchor="start" font-family="Arial, sans-serif">non-acceptance held bars: 7</text>
<text x="606.0" y="708.0" font-size="14" fill="#f1f5f9" text-anchor="start" font-family="Arial, sans-serif">MFE 15m: 2.75 | MAE 15m: 9.25</text>
<text x="86.0" y="732.0" font-size="14" fill="#f1f5f9" text-anchor="start" font-family="Arial, sans-serif">research only - verify visually before OCR reuse</text>
<text x="86.0" y="770.0" font-size="13" fill="#f4d35e" text-anchor="start" font-family="Arial, sans-serif">newsletter/source text:</text>
<text x="86.0" y="790.0" font-size="13" fill="#f1f5f9" text-anchor="start" font-family="Arial, sans-serif">By 9pm we returned to 7116, recovered that structure and one could long anywhere between 7116 and 7120.</text>
<text x="86.0" y="844.0" font-size="13" fill="#5bc0eb" text-anchor="start" font-family="Arial, sans-serif">case note:</text>
<text x="86.0" y="864.0" font-size="13" fill="#f1f5f9" text-anchor="start" font-family="Arial, sans-serif">Source-priority real Mancini packet. Use the newsletter/source text first; OHLC metrics and deterministic labels are secondary. Source</text>
<text x="86.0" y="882.0" font-size="13" fill="#f1f5f9" text-anchor="start" font-family="Arial, sans-serif">class=explicit_mancini_narrative; stat policy=excluded from timing statistics: missing_or_nonpositive_reclaim_minutes.</text>
</svg>