<svg xmlns="http://www.w3.org/2000/svg" width="1200" height="980" viewBox="0 0 1200 980">
<rect width="100%" height="100%" fill="#0b0d10"/>
<text x="28.0" y="38.0" font-size="24" fill="#ffffff" text-anchor="start" font-family="Arial, sans-serif">Real Mancini Packet - Accepted Timing - classic_acceptance_second_attempt_reclaim - level 7135.0</text>
<text x="28.0" y="65.0" font-size="15" fill="#d9e6ff" text-anchor="start" font-family="Arial, sans-serif">classic_acceptance_second_attempt_reclaim | level 7135.00 | packet mancini-es1m:2026-04-21T1012:7135.0:7469ae980e21</text>
<line x1="70.0" y1="90.0" x2="1110.0" y2="90.0" stroke="#263241" stroke-width="1"/>
<text x="1120.0" y="95.0" font-size="12" fill="#aeb9c8" text-anchor="start" font-family="Arial, sans-serif">7149.75</text>
<line x1="70.0" y1="190.0" x2="1110.0" y2="190.0" stroke="#263241" stroke-width="1"/>
<text x="1120.0" y="195.0" font-size="12" fill="#aeb9c8" text-anchor="start" font-family="Arial, sans-serif">7143.50</text>
<line x1="70.0" y1="290.0" x2="1110.0" y2="290.0" stroke="#263241" stroke-width="1"/>
<text x="1120.0" y="295.0" font-size="12" fill="#aeb9c8" text-anchor="start" font-family="Arial, sans-serif">7137.25</text>
<line x1="70.0" y1="390.0" x2="1110.0" y2="390.0" stroke="#263241" stroke-width="1"/>
<text x="1120.0" y="395.0" font-size="12" fill="#aeb9c8" text-anchor="start" font-family="Arial, sans-serif">7131.00</text>
<line x1="70.0" y1="490.0" x2="1110.0" y2="490.0" stroke="#263241" stroke-width="1"/>
<text x="1120.0" y="495.0" font-size="12" fill="#aeb9c8" text-anchor="start" font-family="Arial, sans-serif">7124.75</text>
<line x1="70.0" y1="590.0" x2="1110.0" y2="590.0" stroke="#263241" stroke-width="1"/>
<text x="1120.0" y="595.0" font-size="12" fill="#aeb9c8" text-anchor="start" font-family="Arial, sans-serif">7118.50</text>
<line x1="70.0" y1="326.0" x2="1110.0" y2="326.0" stroke="#f4d35e" stroke-width="2"/>
<text x="78.0" y="318.0" font-size="13" fill="#f4d35e" text-anchor="start" font-family="Arial, sans-serif">reclaimed level 7135.00</text>
<line x1="70.0" y1="246.0" x2="1110.0" y2="246.0" stroke="#5bc0eb" stroke-width="1.5" stroke-dasharray="8 6"/>
<text x="78.0" y="238.0" font-size="13" fill="#5bc0eb" text-anchor="start" font-family="Arial, sans-serif">non-acceptance danger line level + 5 = 7140.00</text>
<line x1="70.0" y1="558.0" x2="1110.0" y2="558.0" stroke="#f25f5c" stroke-width="1.5" stroke-dasharray="5 5"/>
<text x="78.0" y="576.0" font-size="13" fill="#f25f5c" text-anchor="start" font-family="Arial, sans-serif">invalidation anchor 7120.50</text>
<line x1="86.8" y1="122.0" x2="86.8" y2="210.0" stroke="#ff5c5c" stroke-width="1"/>
<rect x="72.0" y="130.0" width="29.5" height="64.0" fill="#ff5c5c" opacity="0.9"/>
<line x1="120.3" y1="190.0" x2="120.3" y2="274.0" stroke="#ff5c5c" stroke-width="1"/>
<rect x="105.5" y="194.0" width="29.5" height="60.0" fill="#ff5c5c" opacity="0.9"/>
<line x1="153.9" y1="238.0" x2="153.9" y2="342.0" stroke="#ff5c5c" stroke-width="1"/>
<rect x="139.1" y="254.0" width="29.5" height="68.0" fill="#ff5c5c" opacity="0.9"/>
<line x1="187.4" y1="274.0" x2="187.4" y2="426.0" stroke="#ff5c5c" stroke-width="1"/>
<rect x="172.6" y="318.0" width="29.5" height="60.0" fill="#ff5c5c" opacity="0.9"/>
<line x1="221.0" y1="350.0" x2="221.0" y2="474.0" stroke="#ff5c5c" stroke-width="1"/>
<rect x="206.2" y="378.0" width="29.5" height="56.0" fill="#ff5c5c" opacity="0.9"/>
<line x1="254.5" y1="386.0" x2="254.5" y2="474.0" stroke="#ff5c5c" stroke-width="1"/>
<rect x="239.7" y="434.0" width="29.5" height="36.0" fill="#ff5c5c" opacity="0.9"/>
<line x1="288.1" y1="462.0" x2="288.1" y2="542.0" stroke="#ff5c5c" stroke-width="1"/>
<rect x="273.3" y="474.0" width="29.5" height="48.0" fill="#ff5c5c" opacity="0.9"/>
<line x1="321.6" y1="410.0" x2="321.6" y2="534.0" stroke="#32d074" stroke-width="1"/>
<rect x="306.8" y="458.0" width="29.5" height="64.0" fill="#32d074" opacity="0.9"/>
<line x1="355.2" y1="450.0" x2="355.2" y2="554.0" stroke="#ff5c5c" stroke-width="1"/>
<rect x="340.4" y="462.0" width="29.5" height="60.0" fill="#ff5c5c" opacity="0.9"/>
<line x1="355.2" y1="90.0" x2="355.2" y2="590.0" stroke="#ff8c42" stroke-width="2" stroke-dasharray="4 4"/>
<text x="361.2" y="108.0" font-size="12" fill="#ffb37a" text-anchor="start" font-family="Arial, sans-serif">trap candle</text>
<line x1="388.7" y1="470.0" x2="388.7" y2="530.0" stroke="#32d074" stroke-width="1"/>
<rect x="373.9" y="482.0" width="29.5" height="44.0" fill="#32d074" opacity="0.9"/>
<line x1="422.3" y1="350.0" x2="422.3" y2="494.0" stroke="#32d074" stroke-width="1"/>
<rect x="407.5" y="366.0" width="29.5" height="116.0" fill="#32d074" opacity="0.9"/>
<line x1="455.8" y1="310.0" x2="455.8" y2="390.0" stroke="#32d074" stroke-width="1"/>
<rect x="441.0" y="346.0" width="29.5" height="16.0" fill="#32d074" opacity="0.9"/>
<line x1="489.4" y1="282.0" x2="489.4" y2="350.0" stroke="#32d074" stroke-width="1"/>
<rect x="474.6" y="298.0" width="29.5" height="48.0" fill="#32d074" opacity="0.9"/>
<line x1="522.9" y1="242.0" x2="522.9" y2="302.0" stroke="#32d074" stroke-width="1"/>
<rect x="508.1" y="254.0" width="29.5" height="44.0" fill="#32d074" opacity="0.9"/>
<line x1="556.5" y1="246.0" x2="556.5" y2="290.0" stroke="#ff5c5c" stroke-width="1"/>
<rect x="541.7" y="250.0" width="29.5" height="36.0" fill="#ff5c5c" opacity="0.9"/>
<line x1="590.0" y1="254.0" x2="590.0" y2="302.0" stroke="#32d074" stroke-width="1"/>
<rect x="575.2" y="282.0" width="29.5" height="2.0" fill="#32d074" opacity="0.9"/>
<line x1="590.0" y1="90.0" x2="590.0" y2="590.0" stroke="#7bd88f" stroke-width="2" stroke-dasharray="4 4"/>
<text x="596.0" y="126.0" font-size="12" fill="#a7f3b7" text-anchor="start" font-family="Arial, sans-serif">first reclaim close</text>
<line x1="623.5" y1="266.0" x2="623.5" y2="298.0" stroke="#ff5c5c" stroke-width="1"/>
<rect x="608.8" y="282.0" width="29.5" height="4.0" fill="#ff5c5c" opacity="0.9"/>
<line x1="657.1" y1="246.0" x2="657.1" y2="286.0" stroke="#32d074" stroke-width="1"/>
<rect x="642.3" y="270.0" width="29.5" height="16.0" fill="#32d074" opacity="0.9"/>
<line x1="690.6" y1="222.0" x2="690.6" y2="278.0" stroke="#32d074" stroke-width="1"/>
<rect x="675.9" y="266.0" width="29.5" height="8.0" fill="#32d074" opacity="0.9"/>
<line x1="724.2" y1="258.0" x2="724.2" y2="350.0" stroke="#ff5c5c" stroke-width="1"/>
<rect x="709.4" y="266.0" width="29.5" height="64.0" fill="#ff5c5c" opacity="0.9"/>
<line x1="757.7" y1="322.0" x2="757.7" y2="362.0" stroke="#32d074" stroke-width="1"/>
<rect x="743.0" y="322.0" width="29.5" height="4.0" fill="#32d074" opacity="0.9"/>
<line x1="791.3" y1="306.0" x2="791.3" y2="366.0" stroke="#32d074" stroke-width="1"/>
<rect x="776.5" y="322.0" width="29.5" height="2.0" fill="#32d074" opacity="0.9"/>
<line x1="824.8" y1="258.0" x2="824.8" y2="334.0" stroke="#32d074" stroke-width="1"/>
<rect x="810.1" y="282.0" width="29.5" height="44.0" fill="#32d074" opacity="0.9"/>
<line x1="858.4" y1="258.0" x2="858.4" y2="302.0" stroke="#ff5c5c" stroke-width="1"/>
<rect x="843.6" y="282.0" width="29.5" height="12.0" fill="#ff5c5c" opacity="0.9"/>
<line x1="891.9" y1="290.0" x2="891.9" y2="338.0" stroke="#32d074" stroke-width="1"/>
<rect x="877.2" y="294.0" width="29.5" height="4.0" fill="#32d074" opacity="0.9"/>
<line x1="925.5" y1="282.0" x2="925.5" y2="350.0" stroke="#ff5c5c" stroke-width="1"/>
<rect x="910.7" y="290.0" width="29.5" height="28.0" fill="#ff5c5c" opacity="0.9"/>
<line x1="959.0" y1="302.0" x2="959.0" y2="390.0" stroke="#ff5c5c" stroke-width="1"/>
<rect x="944.3" y="318.0" width="29.5" height="48.0" fill="#ff5c5c" opacity="0.9"/>
<line x1="992.6" y1="354.0" x2="992.6" y2="398.0" stroke="#ff5c5c" stroke-width="1"/>
<rect x="977.8" y="370.0" width="29.5" height="4.0" fill="#ff5c5c" opacity="0.9"/>
<line x1="1026.1" y1="374.0" x2="1026.1" y2="434.0" stroke="#ff5c5c" stroke-width="1"/>
<rect x="1011.4" y="374.0" width="29.5" height="44.0" fill="#ff5c5c" opacity="0.9"/>
<line x1="1059.7" y1="414.0" x2="1059.7" y2="494.0" stroke="#ff5c5c" stroke-width="1"/>
<rect x="1044.9" y="414.0" width="29.5" height="52.0" fill="#ff5c5c" opacity="0.9"/>
<line x1="1093.2" y1="466.0" x2="1093.2" y2="538.0" stroke="#ff5c5c" stroke-width="1"/>
<rect x="1078.5" y="470.0" width="29.5" height="4.0" fill="#ff5c5c" opacity="0.9"/>
<rect x="70" y="610" width="1040" height="340" fill="#141922" stroke="#344156" rx="6"/>
<text x="86.0" y="636.0" font-size="14" fill="#f1f5f9" text-anchor="start" font-family="Arial, sans-serif">source: longer-mancini-logs</text>
<text x="606.0" y="636.0" font-size="14" fill="#f1f5f9" text-anchor="start" font-family="Arial, sans-serif">source kind: daily_plan_text</text>
<text x="86.0" y="660.0" font-size="14" fill="#f1f5f9" text-anchor="start" font-family="Arial, sans-serif">timezone policy: barchart-raw</text>
<text x="606.0" y="660.0" font-size="14" fill="#f1f5f9" text-anchor="start" font-family="Arial, sans-serif">flush points: 14.25</text>
<text x="86.0" y="684.0" font-size="14" fill="#f1f5f9" text-anchor="start" font-family="Arial, sans-serif">reclaim minutes from trap: 7.00</text>
<text x="606.0" y="684.0" font-size="14" fill="#f1f5f9" text-anchor="start" font-family="Arial, sans-serif">acceptance closes: 4</text>
<text x="86.0" y="708.0" font-size="14" fill="#f1f5f9" text-anchor="start" font-family="Arial, sans-serif">non-acceptance held bars: 0</text>
<text x="606.0" y="708.0" font-size="14" fill="#f1f5f9" text-anchor="start" font-family="Arial, sans-serif">MFE 15m: 3.75 | MAE 15m: 16.00</text>
<text x="86.0" y="732.0" font-size="14" fill="#f1f5f9" text-anchor="start" font-family="Arial, sans-serif">research only - verify visually before OCR reuse</text>
<text x="86.0" y="770.0" font-size="13" fill="#f4d35e" text-anchor="start" font-family="Arial, sans-serif">newsletter/source text:</text>
<text x="86.0" y="790.0" font-size="13" fill="#f1f5f9" text-anchor="start" font-family="Arial, sans-serif">Supports are: 7135 (major)</text>
<text x="86.0" y="844.0" font-size="13" fill="#5bc0eb" text-anchor="start" font-family="Arial, sans-serif">case note:</text>
<text x="86.0" y="864.0" font-size="13" fill="#f1f5f9" text-anchor="start" font-family="Arial, sans-serif">Source-priority real Mancini packet. Use the newsletter/source text first; OHLC metrics and deterministic labels are secondary. Source</text>
<text x="86.0" y="882.0" font-size="13" fill="#f1f5f9" text-anchor="start" font-family="Arial, sans-serif">class=support_resistance_list; stat policy=included in timing statistics.</text>
</svg>