<svg xmlns="http://www.w3.org/2000/svg" width="1200" height="980" viewBox="0 0 1200 980">
<rect width="100%" height="100%" fill="#0b0d10"/>
<text x="28.0" y="38.0" font-size="24" fill="#ffffff" text-anchor="start" font-family="Arial, sans-serif">Real Mancini Packet - Accepted Timing - classic_acceptance_second_attempt_reclaim - level 7177.0</text>
<text x="28.0" y="65.0" font-size="15" fill="#d9e6ff" text-anchor="start" font-family="Arial, sans-serif">classic_acceptance_second_attempt_reclaim | level 7177.00 | packet mancini-es1m:2026-04-28T0844:7177.0:ec0f8eaadff6</text>
<line x1="70.0" y1="90.0" x2="1110.0" y2="90.0" stroke="#263241" stroke-width="1"/>
<text x="1120.0" y="95.0" font-size="12" fill="#aeb9c8" text-anchor="start" font-family="Arial, sans-serif">7185.00</text>
<line x1="70.0" y1="190.0" x2="1110.0" y2="190.0" stroke="#263241" stroke-width="1"/>
<text x="1120.0" y="195.0" font-size="12" fill="#aeb9c8" text-anchor="start" font-family="Arial, sans-serif">7179.90</text>
<line x1="70.0" y1="290.0" x2="1110.0" y2="290.0" stroke="#263241" stroke-width="1"/>
<text x="1120.0" y="295.0" font-size="12" fill="#aeb9c8" text-anchor="start" font-family="Arial, sans-serif">7174.80</text>
<line x1="70.0" y1="390.0" x2="1110.0" y2="390.0" stroke="#263241" stroke-width="1"/>
<text x="1120.0" y="395.0" font-size="12" fill="#aeb9c8" text-anchor="start" font-family="Arial, sans-serif">7169.70</text>
<line x1="70.0" y1="490.0" x2="1110.0" y2="490.0" stroke="#263241" stroke-width="1"/>
<text x="1120.0" y="495.0" font-size="12" fill="#aeb9c8" text-anchor="start" font-family="Arial, sans-serif">7164.60</text>
<line x1="70.0" y1="590.0" x2="1110.0" y2="590.0" stroke="#263241" stroke-width="1"/>
<text x="1120.0" y="595.0" font-size="12" fill="#aeb9c8" text-anchor="start" font-family="Arial, sans-serif">7159.50</text>
<line x1="70.0" y1="246.9" x2="1110.0" y2="246.9" stroke="#f4d35e" stroke-width="2"/>
<text x="78.0" y="238.9" font-size="13" fill="#f4d35e" text-anchor="start" font-family="Arial, sans-serif">reclaimed level 7177.00</text>
<line x1="70.0" y1="148.8" x2="1110.0" y2="148.8" stroke="#5bc0eb" stroke-width="1.5" stroke-dasharray="8 6"/>
<text x="78.0" y="140.8" font-size="13" fill="#5bc0eb" text-anchor="start" font-family="Arial, sans-serif">non-acceptance danger line level + 5 = 7182.00</text>
<line x1="70.0" y1="550.8" x2="1110.0" y2="550.8" stroke="#f25f5c" stroke-width="1.5" stroke-dasharray="5 5"/>
<text x="78.0" y="568.8" font-size="13" fill="#f25f5c" text-anchor="start" font-family="Arial, sans-serif">invalidation anchor 7161.50</text>
<line x1="86.8" y1="286.1" x2="86.8" y2="452.7" stroke="#32d074" stroke-width="1"/>
<rect x="72.0" y="340.0" width="29.5" height="93.1" fill="#32d074" opacity="0.9"/>
<line x1="120.3" y1="300.8" x2="120.3" y2="541.0" stroke="#ff5c5c" stroke-width="1"/>
<rect x="105.5" y="344.9" width="29.5" height="166.7" fill="#ff5c5c" opacity="0.9"/>
<line x1="153.9" y1="428.2" x2="153.9" y2="545.9" stroke="#ff5c5c" stroke-width="1"/>
<rect x="139.1" y="506.7" width="29.5" height="9.8" fill="#ff5c5c" opacity="0.9"/>
<line x1="153.9" y1="90.0" x2="153.9" y2="590.0" stroke="#ff8c42" stroke-width="2" stroke-dasharray="4 4"/>
<text x="159.9" y="108.0" font-size="12" fill="#ffb37a" text-anchor="start" font-family="Arial, sans-serif">trap candle</text>
<line x1="187.4" y1="398.8" x2="187.4" y2="545.9" stroke="#32d074" stroke-width="1"/>
<rect x="172.6" y="423.3" width="29.5" height="93.1" fill="#32d074" opacity="0.9"/>
<line x1="221.0" y1="379.2" x2="221.0" y2="438.0" stroke="#32d074" stroke-width="1"/>
<rect x="206.2" y="398.8" width="29.5" height="24.5" fill="#32d074" opacity="0.9"/>
<line x1="254.5" y1="359.6" x2="254.5" y2="413.5" stroke="#ff5c5c" stroke-width="1"/>
<rect x="239.7" y="393.9" width="29.5" height="4.9" fill="#ff5c5c" opacity="0.9"/>
<line x1="288.1" y1="340.0" x2="288.1" y2="418.4" stroke="#32d074" stroke-width="1"/>
<rect x="273.3" y="359.6" width="29.5" height="39.2" fill="#32d074" opacity="0.9"/>
<line x1="321.6" y1="325.3" x2="321.6" y2="393.9" stroke="#32d074" stroke-width="1"/>
<rect x="306.8" y="344.9" width="29.5" height="14.7" fill="#32d074" opacity="0.9"/>
<line x1="355.2" y1="300.8" x2="355.2" y2="349.8" stroke="#32d074" stroke-width="1"/>
<rect x="340.4" y="315.5" width="29.5" height="29.4" fill="#32d074" opacity="0.9"/>
<line x1="388.7" y1="271.4" x2="388.7" y2="335.1" stroke="#ff5c5c" stroke-width="1"/>
<rect x="373.9" y="315.5" width="29.5" height="19.6" fill="#ff5c5c" opacity="0.9"/>
<line x1="422.3" y1="276.3" x2="422.3" y2="349.8" stroke="#32d074" stroke-width="1"/>
<rect x="407.5" y="295.9" width="29.5" height="39.2" fill="#32d074" opacity="0.9"/>
<line x1="455.8" y1="271.4" x2="455.8" y2="330.2" stroke="#32d074" stroke-width="1"/>
<rect x="441.0" y="295.9" width="29.5" height="4.9" fill="#32d074" opacity="0.9"/>
<line x1="489.4" y1="217.5" x2="489.4" y2="315.5" stroke="#32d074" stroke-width="1"/>
<rect x="474.6" y="242.0" width="29.5" height="53.9" fill="#32d074" opacity="0.9"/>
<line x1="522.9" y1="148.8" x2="522.9" y2="256.7" stroke="#32d074" stroke-width="1"/>
<rect x="508.1" y="183.1" width="29.5" height="53.9" fill="#32d074" opacity="0.9"/>
<line x1="556.5" y1="129.2" x2="556.5" y2="222.4" stroke="#ff5c5c" stroke-width="1"/>
<rect x="541.7" y="183.1" width="29.5" height="29.4" fill="#ff5c5c" opacity="0.9"/>
<line x1="590.0" y1="197.8" x2="590.0" y2="232.2" stroke="#ff5c5c" stroke-width="1"/>
<rect x="575.2" y="217.5" width="29.5" height="14.7" fill="#ff5c5c" opacity="0.9"/>
<line x1="590.0" y1="90.0" x2="590.0" y2="590.0" stroke="#7bd88f" stroke-width="2" stroke-dasharray="4 4"/>
<text x="596.0" y="126.0" font-size="12" fill="#a7f3b7" text-anchor="start" font-family="Arial, sans-serif">first reclaim close</text>
<line x1="623.5" y1="222.4" x2="623.5" y2="261.6" stroke="#ff5c5c" stroke-width="1"/>
<rect x="608.8" y="227.3" width="29.5" height="29.4" fill="#ff5c5c" opacity="0.9"/>
<line x1="657.1" y1="202.7" x2="657.1" y2="281.2" stroke="#32d074" stroke-width="1"/>
<rect x="642.3" y="227.3" width="29.5" height="24.5" fill="#32d074" opacity="0.9"/>
<line x1="690.6" y1="207.6" x2="690.6" y2="246.9" stroke="#32d074" stroke-width="1"/>
<rect x="675.9" y="212.5" width="29.5" height="9.8" fill="#32d074" opacity="0.9"/>
<line x1="724.2" y1="207.6" x2="724.2" y2="256.7" stroke="#ff5c5c" stroke-width="1"/>
<rect x="709.4" y="212.5" width="29.5" height="4.9" fill="#ff5c5c" opacity="0.9"/>
<line x1="757.7" y1="188.0" x2="757.7" y2="335.1" stroke="#ff5c5c" stroke-width="1"/>
<rect x="743.0" y="212.5" width="29.5" height="49.0" fill="#ff5c5c" opacity="0.9"/>
<line x1="791.3" y1="237.1" x2="791.3" y2="300.8" stroke="#ff5c5c" stroke-width="1"/>
<rect x="776.5" y="261.6" width="29.5" height="9.8" fill="#ff5c5c" opacity="0.9"/>
<line x1="824.8" y1="232.2" x2="824.8" y2="291.0" stroke="#32d074" stroke-width="1"/>
<rect x="810.1" y="237.1" width="29.5" height="29.4" fill="#32d074" opacity="0.9"/>
<line x1="858.4" y1="227.3" x2="858.4" y2="325.3" stroke="#ff5c5c" stroke-width="1"/>
<rect x="843.6" y="237.1" width="29.5" height="73.5" fill="#ff5c5c" opacity="0.9"/>
<line x1="891.9" y1="305.7" x2="891.9" y2="384.1" stroke="#ff5c5c" stroke-width="1"/>
<rect x="877.2" y="310.6" width="29.5" height="63.7" fill="#ff5c5c" opacity="0.9"/>
<line x1="925.5" y1="340.0" x2="925.5" y2="418.4" stroke="#ff5c5c" stroke-width="1"/>
<rect x="910.7" y="369.4" width="29.5" height="9.8" fill="#ff5c5c" opacity="0.9"/>
<line x1="959.0" y1="374.3" x2="959.0" y2="482.2" stroke="#ff5c5c" stroke-width="1"/>
<rect x="944.3" y="374.3" width="29.5" height="98.0" fill="#ff5c5c" opacity="0.9"/>
<line x1="992.6" y1="442.9" x2="992.6" y2="511.6" stroke="#32d074" stroke-width="1"/>
<rect x="977.8" y="442.9" width="29.5" height="24.5" fill="#32d074" opacity="0.9"/>
<line x1="1026.1" y1="369.4" x2="1026.1" y2="447.8" stroke="#32d074" stroke-width="1"/>
<rect x="1011.4" y="423.3" width="29.5" height="19.6" fill="#32d074" opacity="0.9"/>
<line x1="1059.7" y1="369.4" x2="1059.7" y2="447.8" stroke="#32d074" stroke-width="1"/>
<rect x="1044.9" y="374.3" width="29.5" height="49.0" fill="#32d074" opacity="0.9"/>
<line x1="1093.2" y1="354.7" x2="1093.2" y2="398.8" stroke="#ff5c5c" stroke-width="1"/>
<rect x="1078.5" y="374.3" width="29.5" height="19.6" fill="#ff5c5c" opacity="0.9"/>
<rect x="70" y="610" width="1040" height="340" fill="#141922" stroke="#344156" rx="6"/>
<text x="86.0" y="636.0" font-size="14" fill="#f1f5f9" text-anchor="start" font-family="Arial, sans-serif">source: longer-mancini-logs</text>
<text x="606.0" y="636.0" font-size="14" fill="#f1f5f9" text-anchor="start" font-family="Arial, sans-serif">source kind: daily_plan_text</text>
<text x="86.0" y="660.0" font-size="14" fill="#f1f5f9" text-anchor="start" font-family="Arial, sans-serif">timezone policy: barchart-raw</text>
<text x="606.0" y="660.0" font-size="14" fill="#f1f5f9" text-anchor="start" font-family="Arial, sans-serif">flush points: 15.25</text>
<text x="86.0" y="684.0" font-size="14" fill="#f1f5f9" text-anchor="start" font-family="Arial, sans-serif">reclaim minutes from trap: 13.00</text>
<text x="606.0" y="684.0" font-size="14" fill="#f1f5f9" text-anchor="start" font-family="Arial, sans-serif">acceptance closes: 1</text>
<text x="86.0" y="708.0" font-size="14" fill="#f1f5f9" text-anchor="start" font-family="Arial, sans-serif">non-acceptance held bars: 0</text>
<text x="606.0" y="708.0" font-size="14" fill="#f1f5f9" text-anchor="start" font-family="Arial, sans-serif">MFE 15m: 1.50 | MAE 15m: 15.00</text>
<text x="86.0" y="732.0" font-size="14" fill="#f1f5f9" text-anchor="start" font-family="Arial, sans-serif">research only - verify visually before OCR reuse</text>
<text x="86.0" y="770.0" font-size="13" fill="#f4d35e" text-anchor="start" font-family="Arial, sans-serif">newsletter/source text:</text>
<text x="86.0" y="790.0" font-size="13" fill="#f1f5f9" text-anchor="start" font-family="Arial, sans-serif">...and the 8:40PM 7185 Failed Breakdown Long Futures opened on Sunday at 6pm with a small gap down from 7194, selling into 7177 by 6:30PM.</text>
<text x="86.0" y="844.0" font-size="13" fill="#5bc0eb" text-anchor="start" font-family="Arial, sans-serif">case note:</text>
<text x="86.0" y="864.0" font-size="13" fill="#f1f5f9" text-anchor="start" font-family="Arial, sans-serif">Source-priority real Mancini packet. Use the newsletter/source text first; OHLC metrics and deterministic labels are secondary. Source</text>
<text x="86.0" y="882.0" font-size="13" fill="#f1f5f9" text-anchor="start" font-family="Arial, sans-serif">class=explicit_mancini_narrative; stat policy=included in timing statistics.</text>
</svg>