<svg xmlns="http://www.w3.org/2000/svg" width="1200" height="980" viewBox="0 0 1200 980">
<rect width="100%" height="100%" fill="#0b0d10"/>
<text x="28.0" y="38.0" font-size="24" fill="#ffffff" text-anchor="start" font-family="Arial, sans-serif">Real Mancini Packet - Accepted Timing - non_acceptance_protocol - level 7185.0</text>
<text x="28.0" y="65.0" font-size="15" fill="#d9e6ff" text-anchor="start" font-family="Arial, sans-serif">non_acceptance_protocol | level 7185.00 | packet mancini-es1m:2026-04-29T1717:7185.0:fcf59234d20c</text>
<line x1="70.0" y1="90.0" x2="1110.0" y2="90.0" stroke="#263241" stroke-width="1"/>
<text x="1120.0" y="95.0" font-size="12" fill="#aeb9c8" text-anchor="start" font-family="Arial, sans-serif">7198.50</text>
<line x1="70.0" y1="190.0" x2="1110.0" y2="190.0" stroke="#263241" stroke-width="1"/>
<text x="1120.0" y="195.0" font-size="12" fill="#aeb9c8" text-anchor="start" font-family="Arial, sans-serif">7189.90</text>
<line x1="70.0" y1="290.0" x2="1110.0" y2="290.0" stroke="#263241" stroke-width="1"/>
<text x="1120.0" y="295.0" font-size="12" fill="#aeb9c8" text-anchor="start" font-family="Arial, sans-serif">7181.30</text>
<line x1="70.0" y1="390.0" x2="1110.0" y2="390.0" stroke="#263241" stroke-width="1"/>
<text x="1120.0" y="395.0" font-size="12" fill="#aeb9c8" text-anchor="start" font-family="Arial, sans-serif">7172.70</text>
<line x1="70.0" y1="490.0" x2="1110.0" y2="490.0" stroke="#263241" stroke-width="1"/>
<text x="1120.0" y="495.0" font-size="12" fill="#aeb9c8" text-anchor="start" font-family="Arial, sans-serif">7164.10</text>
<line x1="70.0" y1="590.0" x2="1110.0" y2="590.0" stroke="#263241" stroke-width="1"/>
<text x="1120.0" y="595.0" font-size="12" fill="#aeb9c8" text-anchor="start" font-family="Arial, sans-serif">7155.50</text>
<line x1="70.0" y1="247.0" x2="1110.0" y2="247.0" stroke="#f4d35e" stroke-width="2"/>
<text x="78.0" y="239.0" font-size="13" fill="#f4d35e" text-anchor="start" font-family="Arial, sans-serif">reclaimed level 7185.00</text>
<line x1="70.0" y1="188.8" x2="1110.0" y2="188.8" stroke="#5bc0eb" stroke-width="1.5" stroke-dasharray="8 6"/>
<text x="78.0" y="180.8" font-size="13" fill="#5bc0eb" text-anchor="start" font-family="Arial, sans-serif">non-acceptance danger line level + 5 = 7190.00</text>
<line x1="70.0" y1="566.7" x2="1110.0" y2="566.7" stroke="#f25f5c" stroke-width="1.5" stroke-dasharray="5 5"/>
<text x="78.0" y="584.7" font-size="13" fill="#f25f5c" text-anchor="start" font-family="Arial, sans-serif">invalidation anchor 7157.50</text>
<line x1="86.8" y1="491.2" x2="86.8" y2="563.8" stroke="#32d074" stroke-width="1"/>
<rect x="72.0" y="508.6" width="29.5" height="55.2" fill="#32d074" opacity="0.9"/>
<line x1="86.8" y1="90.0" x2="86.8" y2="590.0" stroke="#ff8c42" stroke-width="2" stroke-dasharray="4 4"/>
<text x="92.8" y="108.0" font-size="12" fill="#ffb37a" text-anchor="start" font-family="Arial, sans-serif">trap candle</text>
<line x1="120.3" y1="473.7" x2="120.3" y2="517.3" stroke="#32d074" stroke-width="1"/>
<rect x="105.5" y="485.3" width="29.5" height="23.3" fill="#32d074" opacity="0.9"/>
<line x1="153.9" y1="476.6" x2="153.9" y2="549.3" stroke="#32d074" stroke-width="1"/>
<rect x="139.1" y="482.4" width="29.5" height="8.7" fill="#32d074" opacity="0.9"/>
<line x1="187.4" y1="374.9" x2="187.4" y2="485.3" stroke="#32d074" stroke-width="1"/>
<rect x="172.6" y="377.8" width="29.5" height="98.8" fill="#32d074" opacity="0.9"/>
<line x1="221.0" y1="351.6" x2="221.0" y2="395.2" stroke="#ff5c5c" stroke-width="1"/>
<rect x="206.2" y="380.7" width="29.5" height="5.8" fill="#ff5c5c" opacity="0.9"/>
<line x1="254.5" y1="372.0" x2="254.5" y2="389.4" stroke="#32d074" stroke-width="1"/>
<rect x="239.7" y="372.0" width="29.5" height="11.6" fill="#32d074" opacity="0.9"/>
<line x1="288.1" y1="334.2" x2="288.1" y2="377.8" stroke="#32d074" stroke-width="1"/>
<rect x="273.3" y="345.8" width="29.5" height="26.2" fill="#32d074" opacity="0.9"/>
<line x1="321.6" y1="305.1" x2="321.6" y2="351.6" stroke="#32d074" stroke-width="1"/>
<rect x="306.8" y="310.9" width="29.5" height="37.8" fill="#32d074" opacity="0.9"/>
<line x1="355.2" y1="293.5" x2="355.2" y2="328.4" stroke="#32d074" stroke-width="1"/>
<rect x="340.4" y="302.2" width="29.5" height="11.6" fill="#32d074" opacity="0.9"/>
<line x1="388.7" y1="267.3" x2="388.7" y2="331.3" stroke="#ff5c5c" stroke-width="1"/>
<rect x="373.9" y="299.3" width="29.5" height="26.2" fill="#ff5c5c" opacity="0.9"/>
<line x1="422.3" y1="310.9" x2="422.3" y2="337.1" stroke="#ff5c5c" stroke-width="1"/>
<rect x="407.5" y="322.6" width="29.5" height="2.9" fill="#ff5c5c" opacity="0.9"/>
<line x1="455.8" y1="270.2" x2="455.8" y2="325.5" stroke="#32d074" stroke-width="1"/>
<rect x="441.0" y="276.0" width="29.5" height="49.4" fill="#32d074" opacity="0.9"/>
<line x1="489.4" y1="232.4" x2="489.4" y2="273.1" stroke="#32d074" stroke-width="1"/>
<rect x="474.6" y="238.3" width="29.5" height="34.9" fill="#32d074" opacity="0.9"/>
<line x1="522.9" y1="212.1" x2="522.9" y2="258.6" stroke="#32d074" stroke-width="1"/>
<rect x="508.1" y="217.9" width="29.5" height="17.4" fill="#32d074" opacity="0.9"/>
<line x1="556.5" y1="142.3" x2="556.5" y2="229.5" stroke="#32d074" stroke-width="1"/>
<rect x="541.7" y="162.7" width="29.5" height="55.2" fill="#32d074" opacity="0.9"/>
<line x1="590.0" y1="133.6" x2="590.0" y2="177.2" stroke="#ff5c5c" stroke-width="1"/>
<rect x="575.2" y="156.9" width="29.5" height="11.6" fill="#ff5c5c" opacity="0.9"/>
<line x1="590.0" y1="90.0" x2="590.0" y2="590.0" stroke="#7bd88f" stroke-width="2" stroke-dasharray="4 4"/>
<text x="596.0" y="126.0" font-size="12" fill="#a7f3b7" text-anchor="start" font-family="Arial, sans-serif">first reclaim close</text>
<line x1="623.5" y1="159.8" x2="623.5" y2="191.7" stroke="#32d074" stroke-width="1"/>
<rect x="608.8" y="168.5" width="29.5" height="2.9" fill="#32d074" opacity="0.9"/>
<line x1="657.1" y1="113.3" x2="657.1" y2="171.4" stroke="#32d074" stroke-width="1"/>
<rect x="642.3" y="127.8" width="29.5" height="40.7" fill="#32d074" opacity="0.9"/>
<line x1="690.6" y1="119.1" x2="690.6" y2="148.1" stroke="#ff5c5c" stroke-width="1"/>
<rect x="675.9" y="127.8" width="29.5" height="8.7" fill="#ff5c5c" opacity="0.9"/>
<line x1="724.2" y1="130.7" x2="724.2" y2="168.5" stroke="#ff5c5c" stroke-width="1"/>
<rect x="709.4" y="136.5" width="29.5" height="32.0" fill="#ff5c5c" opacity="0.9"/>
<line x1="757.7" y1="162.7" x2="757.7" y2="188.8" stroke="#ff5c5c" stroke-width="1"/>
<rect x="743.0" y="165.6" width="29.5" height="20.3" fill="#ff5c5c" opacity="0.9"/>
<line x1="791.3" y1="185.9" x2="791.3" y2="217.9" stroke="#ff5c5c" stroke-width="1"/>
<rect x="776.5" y="185.9" width="29.5" height="17.4" fill="#ff5c5c" opacity="0.9"/>
<line x1="824.8" y1="174.3" x2="824.8" y2="212.1" stroke="#32d074" stroke-width="1"/>
<rect x="810.1" y="180.1" width="29.5" height="23.3" fill="#32d074" opacity="0.9"/>
<line x1="858.4" y1="180.1" x2="858.4" y2="209.2" stroke="#ff5c5c" stroke-width="1"/>
<rect x="843.6" y="180.1" width="29.5" height="29.1" fill="#ff5c5c" opacity="0.9"/>
<line x1="891.9" y1="197.6" x2="891.9" y2="223.7" stroke="#ff5c5c" stroke-width="1"/>
<rect x="877.2" y="209.2" width="29.5" height="11.6" fill="#ff5c5c" opacity="0.9"/>
<line x1="925.5" y1="215.0" x2="925.5" y2="238.3" stroke="#ff5c5c" stroke-width="1"/>
<rect x="910.7" y="220.8" width="29.5" height="14.5" fill="#ff5c5c" opacity="0.9"/>
<line x1="959.0" y1="217.9" x2="959.0" y2="238.3" stroke="#32d074" stroke-width="1"/>
<rect x="944.3" y="235.3" width="29.5" height="2.0" fill="#32d074" opacity="0.9"/>
<line x1="992.6" y1="203.4" x2="992.6" y2="238.3" stroke="#32d074" stroke-width="1"/>
<rect x="977.8" y="212.1" width="29.5" height="23.3" fill="#32d074" opacity="0.9"/>
<line x1="1026.1" y1="180.1" x2="1026.1" y2="215.0" stroke="#32d074" stroke-width="1"/>
<rect x="1011.4" y="206.3" width="29.5" height="5.8" fill="#32d074" opacity="0.9"/>
<line x1="1059.7" y1="185.9" x2="1059.7" y2="206.3" stroke="#32d074" stroke-width="1"/>
<rect x="1044.9" y="188.8" width="29.5" height="17.4" fill="#32d074" opacity="0.9"/>
<line x1="1093.2" y1="171.4" x2="1093.2" y2="197.6" stroke="#32d074" stroke-width="1"/>
<rect x="1078.5" y="188.8" width="29.5" height="2.0" fill="#32d074" opacity="0.9"/>
<rect x="70" y="610" width="1040" height="340" fill="#141922" stroke="#344156" rx="6"/>
<text x="86.0" y="636.0" font-size="14" fill="#f1f5f9" text-anchor="start" font-family="Arial, sans-serif">source: longer-mancini-logs</text>
<text x="606.0" y="636.0" font-size="14" fill="#f1f5f9" text-anchor="start" font-family="Arial, sans-serif">source kind: daily_plan_text</text>
<text x="86.0" y="660.0" font-size="14" fill="#f1f5f9" text-anchor="start" font-family="Arial, sans-serif">timezone policy: barchart-raw</text>
<text x="606.0" y="660.0" font-size="14" fill="#f1f5f9" text-anchor="start" font-family="Arial, sans-serif">flush points: 27.25</text>
<text x="86.0" y="684.0" font-size="14" fill="#f1f5f9" text-anchor="start" font-family="Arial, sans-serif">reclaim minutes from trap: 15.00</text>
<text x="606.0" y="684.0" font-size="14" fill="#f1f5f9" text-anchor="start" font-family="Arial, sans-serif">acceptance closes: 16</text>
<text x="86.0" y="708.0" font-size="14" fill="#f1f5f9" text-anchor="start" font-family="Arial, sans-serif">non-acceptance held bars: 6</text>
<text x="606.0" y="708.0" font-size="14" fill="#f1f5f9" text-anchor="start" font-family="Arial, sans-serif">MFE 15m: 3.75 | MAE 15m: 7.00</text>
<text x="86.0" y="732.0" font-size="14" fill="#f1f5f9" text-anchor="start" font-family="Arial, sans-serif">research only - verify visually before OCR reuse</text>
<text x="86.0" y="770.0" font-size="13" fill="#f4d35e" text-anchor="start" font-family="Arial, sans-serif">newsletter/source text:</text>
<text x="86.0" y="790.0" font-size="13" fill="#f1f5f9" text-anchor="start" font-family="Arial, sans-serif">Then last evening, ES recovered 7185 (a big shelf of lows set during the day Friday), and put in an actionable scalp to 7208 Sunday evening</text>
<text x="86.0" y="808.0" font-size="13" fill="#f1f5f9" text-anchor="start" font-family="Arial, sans-serif">and strength continued into 7224 Monday evening.</text>
<text x="86.0" y="844.0" font-size="13" fill="#5bc0eb" text-anchor="start" font-family="Arial, sans-serif">case note:</text>
<text x="86.0" y="864.0" font-size="13" fill="#f1f5f9" text-anchor="start" font-family="Arial, sans-serif">Source-priority real Mancini packet. Use the newsletter/source text first; OHLC metrics and deterministic labels are secondary. Source</text>
<text x="86.0" y="882.0" font-size="13" fill="#f1f5f9" text-anchor="start" font-family="Arial, sans-serif">class=explicit_mancini_narrative; stat policy=included in timing statistics.</text>
</svg>