<svg xmlns="http://www.w3.org/2000/svg" width="1200" height="980" viewBox="0 0 1200 980">
<rect width="100%" height="100%" fill="#0b0d10"/>
<text x="28.0" y="38.0" font-size="24" fill="#ffffff" text-anchor="start" font-family="Arial, sans-serif">Real Mancini Packet - Accepted Timing - non_acceptance_protocol - level 7186.0</text>
<text x="28.0" y="65.0" font-size="15" fill="#d9e6ff" text-anchor="start" font-family="Arial, sans-serif">non_acceptance_protocol | level 7186.00 | packet mancini-es1m:2026-04-29T1718:7186.0:88c265e86f37</text>
<line x1="70.0" y1="90.0" x2="1110.0" y2="90.0" stroke="#263241" stroke-width="1"/>
<text x="1120.0" y="95.0" font-size="12" fill="#aeb9c8" text-anchor="start" font-family="Arial, sans-serif">7198.50</text>
<line x1="70.0" y1="190.0" x2="1110.0" y2="190.0" stroke="#263241" stroke-width="1"/>
<text x="1120.0" y="195.0" font-size="12" fill="#aeb9c8" text-anchor="start" font-family="Arial, sans-serif">7190.15</text>
<line x1="70.0" y1="290.0" x2="1110.0" y2="290.0" stroke="#263241" stroke-width="1"/>
<text x="1120.0" y="295.0" font-size="12" fill="#aeb9c8" text-anchor="start" font-family="Arial, sans-serif">7181.80</text>
<line x1="70.0" y1="390.0" x2="1110.0" y2="390.0" stroke="#263241" stroke-width="1"/>
<text x="1120.0" y="395.0" font-size="12" fill="#aeb9c8" text-anchor="start" font-family="Arial, sans-serif">7173.45</text>
<line x1="70.0" y1="490.0" x2="1110.0" y2="490.0" stroke="#263241" stroke-width="1"/>
<text x="1120.0" y="495.0" font-size="12" fill="#aeb9c8" text-anchor="start" font-family="Arial, sans-serif">7165.10</text>
<line x1="70.0" y1="590.0" x2="1110.0" y2="590.0" stroke="#263241" stroke-width="1"/>
<text x="1120.0" y="595.0" font-size="12" fill="#aeb9c8" text-anchor="start" font-family="Arial, sans-serif">7156.75</text>
<line x1="70.0" y1="239.7" x2="1110.0" y2="239.7" stroke="#f4d35e" stroke-width="2"/>
<text x="78.0" y="231.7" font-size="13" fill="#f4d35e" text-anchor="start" font-family="Arial, sans-serif">reclaimed level 7186.00</text>
<line x1="70.0" y1="179.8" x2="1110.0" y2="179.8" stroke="#5bc0eb" stroke-width="1.5" stroke-dasharray="8 6"/>
<text x="78.0" y="171.8" font-size="13" fill="#5bc0eb" text-anchor="start" font-family="Arial, sans-serif">non-acceptance danger line level + 5 = 7191.00</text>
<line x1="70.0" y1="566.0" x2="1110.0" y2="566.0" stroke="#f25f5c" stroke-width="1.5" stroke-dasharray="5 5"/>
<text x="78.0" y="584.0" font-size="13" fill="#f25f5c" text-anchor="start" font-family="Arial, sans-serif">invalidation anchor 7158.75</text>
<line x1="86.8" y1="485.2" x2="86.8" y2="530.1" stroke="#32d074" stroke-width="1"/>
<rect x="72.0" y="497.2" width="29.5" height="24.0" fill="#32d074" opacity="0.9"/>
<line x1="120.3" y1="488.2" x2="120.3" y2="563.1" stroke="#32d074" stroke-width="1"/>
<rect x="105.5" y="494.2" width="29.5" height="9.0" fill="#32d074" opacity="0.9"/>
<line x1="120.3" y1="90.0" x2="120.3" y2="590.0" stroke="#ff8c42" stroke-width="2" stroke-dasharray="4 4"/>
<text x="126.3" y="108.0" font-size="12" fill="#ffb37a" text-anchor="start" font-family="Arial, sans-serif">trap candle</text>
<line x1="153.9" y1="383.4" x2="153.9" y2="497.2" stroke="#32d074" stroke-width="1"/>
<rect x="139.1" y="386.4" width="29.5" height="101.8" fill="#32d074" opacity="0.9"/>
<line x1="187.4" y1="359.5" x2="187.4" y2="404.4" stroke="#ff5c5c" stroke-width="1"/>
<rect x="172.6" y="389.4" width="29.5" height="6.0" fill="#ff5c5c" opacity="0.9"/>
<line x1="221.0" y1="380.4" x2="221.0" y2="398.4" stroke="#32d074" stroke-width="1"/>
<rect x="206.2" y="380.4" width="29.5" height="12.0" fill="#32d074" opacity="0.9"/>
<line x1="254.5" y1="341.5" x2="254.5" y2="386.4" stroke="#32d074" stroke-width="1"/>
<rect x="239.7" y="353.5" width="29.5" height="26.9" fill="#32d074" opacity="0.9"/>
<line x1="288.1" y1="311.6" x2="288.1" y2="359.5" stroke="#32d074" stroke-width="1"/>
<rect x="273.3" y="317.5" width="29.5" height="38.9" fill="#32d074" opacity="0.9"/>
<line x1="321.6" y1="299.6" x2="321.6" y2="335.5" stroke="#32d074" stroke-width="1"/>
<rect x="306.8" y="308.6" width="29.5" height="12.0" fill="#32d074" opacity="0.9"/>
<line x1="355.2" y1="272.6" x2="355.2" y2="338.5" stroke="#ff5c5c" stroke-width="1"/>
<rect x="340.4" y="305.6" width="29.5" height="26.9" fill="#ff5c5c" opacity="0.9"/>
<line x1="388.7" y1="317.5" x2="388.7" y2="344.5" stroke="#ff5c5c" stroke-width="1"/>
<rect x="373.9" y="329.5" width="29.5" height="3.0" fill="#ff5c5c" opacity="0.9"/>
<line x1="422.3" y1="275.6" x2="422.3" y2="332.5" stroke="#32d074" stroke-width="1"/>
<rect x="407.5" y="281.6" width="29.5" height="50.9" fill="#32d074" opacity="0.9"/>
<line x1="455.8" y1="236.7" x2="455.8" y2="278.6" stroke="#32d074" stroke-width="1"/>
<rect x="441.0" y="242.7" width="29.5" height="35.9" fill="#32d074" opacity="0.9"/>
<line x1="489.4" y1="215.7" x2="489.4" y2="263.7" stroke="#32d074" stroke-width="1"/>
<rect x="474.6" y="221.7" width="29.5" height="18.0" fill="#32d074" opacity="0.9"/>
<line x1="522.9" y1="143.9" x2="522.9" y2="233.7" stroke="#32d074" stroke-width="1"/>
<rect x="508.1" y="164.9" width="29.5" height="56.9" fill="#32d074" opacity="0.9"/>
<line x1="556.5" y1="134.9" x2="556.5" y2="179.8" stroke="#ff5c5c" stroke-width="1"/>
<rect x="541.7" y="158.9" width="29.5" height="12.0" fill="#ff5c5c" opacity="0.9"/>
<line x1="590.0" y1="161.9" x2="590.0" y2="194.8" stroke="#32d074" stroke-width="1"/>
<rect x="575.2" y="170.8" width="29.5" height="3.0" fill="#32d074" opacity="0.9"/>
<line x1="590.0" y1="90.0" x2="590.0" y2="590.0" stroke="#7bd88f" stroke-width="2" stroke-dasharray="4 4"/>
<text x="596.0" y="126.0" font-size="12" fill="#a7f3b7" text-anchor="start" font-family="Arial, sans-serif">first reclaim close</text>
<line x1="623.5" y1="114.0" x2="623.5" y2="173.8" stroke="#32d074" stroke-width="1"/>
<rect x="608.8" y="128.9" width="29.5" height="41.9" fill="#32d074" opacity="0.9"/>
<line x1="657.1" y1="119.9" x2="657.1" y2="149.9" stroke="#ff5c5c" stroke-width="1"/>
<rect x="642.3" y="128.9" width="29.5" height="9.0" fill="#ff5c5c" opacity="0.9"/>
<line x1="690.6" y1="131.9" x2="690.6" y2="170.8" stroke="#ff5c5c" stroke-width="1"/>
<rect x="675.9" y="137.9" width="29.5" height="32.9" fill="#ff5c5c" opacity="0.9"/>
<line x1="724.2" y1="164.9" x2="724.2" y2="191.8" stroke="#ff5c5c" stroke-width="1"/>
<rect x="709.4" y="167.8" width="29.5" height="21.0" fill="#ff5c5c" opacity="0.9"/>
<line x1="757.7" y1="188.8" x2="757.7" y2="221.7" stroke="#ff5c5c" stroke-width="1"/>
<rect x="743.0" y="188.8" width="29.5" height="18.0" fill="#ff5c5c" opacity="0.9"/>
<line x1="791.3" y1="176.8" x2="791.3" y2="215.7" stroke="#32d074" stroke-width="1"/>
<rect x="776.5" y="182.8" width="29.5" height="24.0" fill="#32d074" opacity="0.9"/>
<line x1="824.8" y1="182.8" x2="824.8" y2="212.8" stroke="#ff5c5c" stroke-width="1"/>
<rect x="810.1" y="182.8" width="29.5" height="29.9" fill="#ff5c5c" opacity="0.9"/>
<line x1="858.4" y1="200.8" x2="858.4" y2="227.7" stroke="#ff5c5c" stroke-width="1"/>
<rect x="843.6" y="212.8" width="29.5" height="12.0" fill="#ff5c5c" opacity="0.9"/>
<line x1="891.9" y1="218.7" x2="891.9" y2="242.7" stroke="#ff5c5c" stroke-width="1"/>
<rect x="877.2" y="224.7" width="29.5" height="15.0" fill="#ff5c5c" opacity="0.9"/>
<line x1="925.5" y1="221.7" x2="925.5" y2="242.7" stroke="#32d074" stroke-width="1"/>
<rect x="910.7" y="239.7" width="29.5" height="2.0" fill="#32d074" opacity="0.9"/>
<line x1="959.0" y1="206.8" x2="959.0" y2="242.7" stroke="#32d074" stroke-width="1"/>
<rect x="944.3" y="215.7" width="29.5" height="24.0" fill="#32d074" opacity="0.9"/>
<line x1="992.6" y1="182.8" x2="992.6" y2="218.7" stroke="#32d074" stroke-width="1"/>
<rect x="977.8" y="209.8" width="29.5" height="6.0" fill="#32d074" opacity="0.9"/>
<line x1="1026.1" y1="188.8" x2="1026.1" y2="209.8" stroke="#32d074" stroke-width="1"/>
<rect x="1011.4" y="191.8" width="29.5" height="18.0" fill="#32d074" opacity="0.9"/>
<line x1="1059.7" y1="173.8" x2="1059.7" y2="200.8" stroke="#32d074" stroke-width="1"/>
<rect x="1044.9" y="191.8" width="29.5" height="2.0" fill="#32d074" opacity="0.9"/>
<line x1="1093.2" y1="182.8" x2="1093.2" y2="203.8" stroke="#ff5c5c" stroke-width="1"/>
<rect x="1078.5" y="194.8" width="29.5" height="9.0" fill="#ff5c5c" opacity="0.9"/>
<rect x="70" y="610" width="1040" height="340" fill="#141922" stroke="#344156" rx="6"/>
<text x="86.0" y="636.0" font-size="14" fill="#f1f5f9" text-anchor="start" font-family="Arial, sans-serif">source: longer-mancini-logs</text>
<text x="606.0" y="636.0" font-size="14" fill="#f1f5f9" text-anchor="start" font-family="Arial, sans-serif">source kind: daily_plan_text</text>
<text x="86.0" y="660.0" font-size="14" fill="#f1f5f9" text-anchor="start" font-family="Arial, sans-serif">timezone policy: barchart-raw</text>
<text x="606.0" y="660.0" font-size="14" fill="#f1f5f9" text-anchor="start" font-family="Arial, sans-serif">flush points: 27.00</text>
<text x="86.0" y="684.0" font-size="14" fill="#f1f5f9" text-anchor="start" font-family="Arial, sans-serif">reclaim minutes from trap: 14.00</text>
<text x="606.0" y="684.0" font-size="14" fill="#f1f5f9" text-anchor="start" font-family="Arial, sans-serif">acceptance closes: 16</text>
<text x="86.0" y="708.0" font-size="14" fill="#f1f5f9" text-anchor="start" font-family="Arial, sans-serif">non-acceptance held bars: 4</text>
<text x="606.0" y="708.0" font-size="14" fill="#f1f5f9" text-anchor="start" font-family="Arial, sans-serif">MFE 15m: 5.00 | MAE 15m: 5.75</text>
<text x="86.0" y="732.0" font-size="14" fill="#f1f5f9" text-anchor="start" font-family="Arial, sans-serif">research only - verify visually before OCR reuse</text>
<text x="86.0" y="770.0" font-size="13" fill="#f4d35e" text-anchor="start" font-family="Arial, sans-serif">newsletter/source text:</text>
<text x="86.0" y="790.0" font-size="13" fill="#f1f5f9" text-anchor="start" font-family="Arial, sans-serif">Targets then become 7186, 7204, 7214, then 7234, then 7246.</text>
<text x="86.0" y="844.0" font-size="13" fill="#5bc0eb" text-anchor="start" font-family="Arial, sans-serif">case note:</text>
<text x="86.0" y="864.0" font-size="13" fill="#f1f5f9" text-anchor="start" font-family="Arial, sans-serif">Source-priority real Mancini packet. Use the newsletter/source text first; OHLC metrics and deterministic labels are secondary. Source</text>
<text x="86.0" y="882.0" font-size="13" fill="#f1f5f9" text-anchor="start" font-family="Arial, sans-serif">class=mancini_context_text; stat policy=included in timing statistics.</text>
</svg>