<svg xmlns="http://www.w3.org/2000/svg" width="1200" height="980" viewBox="0 0 1200 980">
<rect width="100%" height="100%" fill="#0b0d10"/>
<text x="28.0" y="38.0" font-size="24" fill="#ffffff" text-anchor="start" font-family="Arial, sans-serif">Real Mancini Packet - Accepted Timing - simple_reclaim_unclassified - level 7214.0</text>
<text x="28.0" y="65.0" font-size="15" fill="#d9e6ff" text-anchor="start" font-family="Arial, sans-serif">simple_reclaim_unclassified | level 7214.00 | packet mancini-es1m:2026-04-30T1233:7214.0:08789e63503b</text>
<line x1="70.0" y1="90.0" x2="1110.0" y2="90.0" stroke="#263241" stroke-width="1"/>
<text x="1120.0" y="95.0" font-size="12" fill="#aeb9c8" text-anchor="start" font-family="Arial, sans-serif">7224.50</text>
<line x1="70.0" y1="190.0" x2="1110.0" y2="190.0" stroke="#263241" stroke-width="1"/>
<text x="1120.0" y="195.0" font-size="12" fill="#aeb9c8" text-anchor="start" font-family="Arial, sans-serif">7220.25</text>
<line x1="70.0" y1="290.0" x2="1110.0" y2="290.0" stroke="#263241" stroke-width="1"/>
<text x="1120.0" y="295.0" font-size="12" fill="#aeb9c8" text-anchor="start" font-family="Arial, sans-serif">7216.00</text>
<line x1="70.0" y1="390.0" x2="1110.0" y2="390.0" stroke="#263241" stroke-width="1"/>
<text x="1120.0" y="395.0" font-size="12" fill="#aeb9c8" text-anchor="start" font-family="Arial, sans-serif">7211.75</text>
<line x1="70.0" y1="490.0" x2="1110.0" y2="490.0" stroke="#263241" stroke-width="1"/>
<text x="1120.0" y="495.0" font-size="12" fill="#aeb9c8" text-anchor="start" font-family="Arial, sans-serif">7207.50</text>
<line x1="70.0" y1="590.0" x2="1110.0" y2="590.0" stroke="#263241" stroke-width="1"/>
<text x="1120.0" y="595.0" font-size="12" fill="#aeb9c8" text-anchor="start" font-family="Arial, sans-serif">7203.25</text>
<line x1="70.0" y1="337.1" x2="1110.0" y2="337.1" stroke="#f4d35e" stroke-width="2"/>
<text x="78.0" y="329.1" font-size="13" fill="#f4d35e" text-anchor="start" font-family="Arial, sans-serif">reclaimed level 7214.00</text>
<line x1="70.0" y1="219.4" x2="1110.0" y2="219.4" stroke="#5bc0eb" stroke-width="1.5" stroke-dasharray="8 6"/>
<text x="78.0" y="211.4" font-size="13" fill="#5bc0eb" text-anchor="start" font-family="Arial, sans-serif">non-acceptance danger line level + 5 = 7219.00</text>
<line x1="70.0" y1="542.9" x2="1110.0" y2="542.9" stroke="#f25f5c" stroke-width="1.5" stroke-dasharray="5 5"/>
<text x="78.0" y="560.9" font-size="13" fill="#f25f5c" text-anchor="start" font-family="Arial, sans-serif">invalidation anchor 7205.25</text>
<line x1="86.8" y1="478.2" x2="86.8" y2="537.1" stroke="#32d074" stroke-width="1"/>
<rect x="72.0" y="478.2" width="29.5" height="47.1" fill="#32d074" opacity="0.9"/>
<line x1="86.8" y1="90.0" x2="86.8" y2="590.0" stroke="#ff8c42" stroke-width="2" stroke-dasharray="4 4"/>
<text x="92.8" y="108.0" font-size="12" fill="#ffb37a" text-anchor="start" font-family="Arial, sans-serif">trap candle</text>
<line x1="120.3" y1="454.7" x2="120.3" y2="490.0" stroke="#32d074" stroke-width="1"/>
<rect x="105.5" y="472.4" width="29.5" height="5.9" fill="#32d074" opacity="0.9"/>
<line x1="153.9" y1="437.1" x2="153.9" y2="478.2" stroke="#32d074" stroke-width="1"/>
<rect x="139.1" y="448.8" width="29.5" height="23.5" fill="#32d074" opacity="0.9"/>
<line x1="187.4" y1="437.1" x2="187.4" y2="460.6" stroke="#ff5c5c" stroke-width="1"/>
<rect x="172.6" y="442.9" width="29.5" height="17.6" fill="#ff5c5c" opacity="0.9"/>
<line x1="221.0" y1="448.8" x2="221.0" y2="484.1" stroke="#ff5c5c" stroke-width="1"/>
<rect x="206.2" y="460.6" width="29.5" height="11.8" fill="#ff5c5c" opacity="0.9"/>
<line x1="254.5" y1="448.8" x2="254.5" y2="525.3" stroke="#32d074" stroke-width="1"/>
<rect x="239.7" y="454.7" width="29.5" height="17.6" fill="#32d074" opacity="0.9"/>
<line x1="288.1" y1="401.8" x2="288.1" y2="484.1" stroke="#32d074" stroke-width="1"/>
<rect x="273.3" y="419.4" width="29.5" height="41.2" fill="#32d074" opacity="0.9"/>
<line x1="321.6" y1="407.6" x2="321.6" y2="448.8" stroke="#ff5c5c" stroke-width="1"/>
<rect x="306.8" y="413.5" width="29.5" height="11.8" fill="#ff5c5c" opacity="0.9"/>
<line x1="355.2" y1="401.8" x2="355.2" y2="472.4" stroke="#ff5c5c" stroke-width="1"/>
<rect x="340.4" y="425.3" width="29.5" height="17.6" fill="#ff5c5c" opacity="0.9"/>
<line x1="388.7" y1="419.4" x2="388.7" y2="454.7" stroke="#32d074" stroke-width="1"/>
<rect x="373.9" y="442.9" width="29.5" height="5.9" fill="#32d074" opacity="0.9"/>
<line x1="422.3" y1="431.2" x2="422.3" y2="460.6" stroke="#32d074" stroke-width="1"/>
<rect x="407.5" y="437.1" width="29.5" height="5.9" fill="#32d074" opacity="0.9"/>
<line x1="455.8" y1="360.6" x2="455.8" y2="454.7" stroke="#32d074" stroke-width="1"/>
<rect x="441.0" y="384.1" width="29.5" height="58.8" fill="#32d074" opacity="0.9"/>
<line x1="489.4" y1="195.9" x2="489.4" y2="384.1" stroke="#32d074" stroke-width="1"/>
<rect x="474.6" y="219.4" width="29.5" height="164.7" fill="#32d074" opacity="0.9"/>
<line x1="522.9" y1="178.2" x2="522.9" y2="313.5" stroke="#ff5c5c" stroke-width="1"/>
<rect x="508.1" y="225.3" width="29.5" height="64.7" fill="#ff5c5c" opacity="0.9"/>
<line x1="556.5" y1="266.5" x2="556.5" y2="319.4" stroke="#ff5c5c" stroke-width="1"/>
<rect x="541.7" y="295.9" width="29.5" height="11.8" fill="#ff5c5c" opacity="0.9"/>
<line x1="590.0" y1="295.9" x2="590.0" y2="325.3" stroke="#32d074" stroke-width="1"/>
<rect x="575.2" y="307.6" width="29.5" height="2.0" fill="#32d074" opacity="0.9"/>
<line x1="590.0" y1="90.0" x2="590.0" y2="590.0" stroke="#7bd88f" stroke-width="2" stroke-dasharray="4 4"/>
<text x="596.0" y="126.0" font-size="12" fill="#a7f3b7" text-anchor="start" font-family="Arial, sans-serif">first reclaim close</text>
<line x1="623.5" y1="272.4" x2="623.5" y2="325.3" stroke="#32d074" stroke-width="1"/>
<rect x="608.8" y="290.0" width="29.5" height="23.5" fill="#32d074" opacity="0.9"/>
<line x1="657.1" y1="225.3" x2="657.1" y2="284.1" stroke="#32d074" stroke-width="1"/>
<rect x="642.3" y="266.5" width="29.5" height="17.6" fill="#32d074" opacity="0.9"/>
<line x1="690.6" y1="237.1" x2="690.6" y2="284.1" stroke="#32d074" stroke-width="1"/>
<rect x="675.9" y="242.9" width="29.5" height="23.5" fill="#32d074" opacity="0.9"/>
<line x1="724.2" y1="225.3" x2="724.2" y2="260.6" stroke="#32d074" stroke-width="1"/>
<rect x="709.4" y="231.2" width="29.5" height="11.8" fill="#32d074" opacity="0.9"/>
<line x1="757.7" y1="225.3" x2="757.7" y2="260.6" stroke="#ff5c5c" stroke-width="1"/>
<rect x="743.0" y="237.1" width="29.5" height="17.6" fill="#ff5c5c" opacity="0.9"/>
<line x1="791.3" y1="219.4" x2="791.3" y2="272.4" stroke="#32d074" stroke-width="1"/>
<rect x="776.5" y="225.3" width="29.5" height="29.4" fill="#32d074" opacity="0.9"/>
<line x1="824.8" y1="225.3" x2="824.8" y2="266.5" stroke="#ff5c5c" stroke-width="1"/>
<rect x="810.1" y="231.2" width="29.5" height="29.4" fill="#ff5c5c" opacity="0.9"/>
<line x1="858.4" y1="225.3" x2="858.4" y2="266.5" stroke="#32d074" stroke-width="1"/>
<rect x="843.6" y="231.2" width="29.5" height="35.3" fill="#32d074" opacity="0.9"/>
<line x1="891.9" y1="225.3" x2="891.9" y2="278.2" stroke="#ff5c5c" stroke-width="1"/>
<rect x="877.2" y="231.2" width="29.5" height="29.4" fill="#ff5c5c" opacity="0.9"/>
<line x1="925.5" y1="231.2" x2="925.5" y2="272.4" stroke="#32d074" stroke-width="1"/>
<rect x="910.7" y="231.2" width="29.5" height="23.5" fill="#32d074" opacity="0.9"/>
<line x1="959.0" y1="219.4" x2="959.0" y2="254.7" stroke="#ff5c5c" stroke-width="1"/>
<rect x="944.3" y="231.2" width="29.5" height="5.9" fill="#ff5c5c" opacity="0.9"/>
<line x1="992.6" y1="166.5" x2="992.6" y2="242.9" stroke="#32d074" stroke-width="1"/>
<rect x="977.8" y="172.4" width="29.5" height="64.7" fill="#32d074" opacity="0.9"/>
<line x1="1026.1" y1="137.1" x2="1026.1" y2="184.1" stroke="#32d074" stroke-width="1"/>
<rect x="1011.4" y="142.9" width="29.5" height="29.4" fill="#32d074" opacity="0.9"/>
<line x1="1059.7" y1="137.1" x2="1059.7" y2="166.5" stroke="#ff5c5c" stroke-width="1"/>
<rect x="1044.9" y="148.8" width="29.5" height="17.6" fill="#ff5c5c" opacity="0.9"/>
<line x1="1093.2" y1="142.9" x2="1093.2" y2="184.1" stroke="#32d074" stroke-width="1"/>
<rect x="1078.5" y="154.7" width="29.5" height="17.6" fill="#32d074" opacity="0.9"/>
<rect x="70" y="610" width="1040" height="340" fill="#141922" stroke="#344156" rx="6"/>
<text x="86.0" y="636.0" font-size="14" fill="#f1f5f9" text-anchor="start" font-family="Arial, sans-serif">source: longer-mancini-logs</text>
<text x="606.0" y="636.0" font-size="14" fill="#f1f5f9" text-anchor="start" font-family="Arial, sans-serif">source kind: daily_plan_text</text>
<text x="86.0" y="660.0" font-size="14" fill="#f1f5f9" text-anchor="start" font-family="Arial, sans-serif">timezone policy: barchart-raw</text>
<text x="606.0" y="660.0" font-size="14" fill="#f1f5f9" text-anchor="start" font-family="Arial, sans-serif">flush points: 8.50</text>
<text x="86.0" y="684.0" font-size="14" fill="#f1f5f9" text-anchor="start" font-family="Arial, sans-serif">reclaim minutes from trap: 15.00</text>
<text x="606.0" y="684.0" font-size="14" fill="#f1f5f9" text-anchor="start" font-family="Arial, sans-serif">acceptance closes: 16</text>
<text x="86.0" y="708.0" font-size="14" fill="#f1f5f9" text-anchor="start" font-family="Arial, sans-serif">non-acceptance held bars: 0</text>
<text x="606.0" y="708.0" font-size="14" fill="#f1f5f9" text-anchor="start" font-family="Arial, sans-serif">MFE 15m: 7.25 | MAE 15m: 0.75</text>
<text x="86.0" y="732.0" font-size="14" fill="#f1f5f9" text-anchor="start" font-family="Arial, sans-serif">research only - verify visually before OCR reuse</text>
<text x="86.0" y="770.0" font-size="13" fill="#f4d35e" text-anchor="start" font-family="Arial, sans-serif">newsletter/source text:</text>
<text x="86.0" y="790.0" font-size="13" fill="#f1f5f9" text-anchor="start" font-family="Arial, sans-serif">Targets then become 7186, 7204, 7214, then 7234, then 7246.</text>
<text x="86.0" y="844.0" font-size="13" fill="#5bc0eb" text-anchor="start" font-family="Arial, sans-serif">case note:</text>
<text x="86.0" y="864.0" font-size="13" fill="#f1f5f9" text-anchor="start" font-family="Arial, sans-serif">Source-priority real Mancini packet. Use the newsletter/source text first; OHLC metrics and deterministic labels are secondary. Source</text>
<text x="86.0" y="882.0" font-size="13" fill="#f1f5f9" text-anchor="start" font-family="Arial, sans-serif">class=mancini_context_text; stat policy=included in timing statistics.</text>
</svg>