<svg xmlns="http://www.w3.org/2000/svg" width="1200" height="980" viewBox="0 0 1200 980">
<rect width="100%" height="100%" fill="#0b0d10"/>
<text x="28.0" y="38.0" font-size="24" fill="#ffffff" text-anchor="start" font-family="Arial, sans-serif">Real Mancini Packet - Accepted Timing - classic_acceptance_second_attempt_reclaim - level 7221.0</text>
<text x="28.0" y="65.0" font-size="15" fill="#d9e6ff" text-anchor="start" font-family="Arial, sans-serif">classic_acceptance_second_attempt_reclaim | level 7221.00 | packet mancini-es1m:2026-04-30T1249:7221.0:97231e7109c1</text>
<line x1="70.0" y1="90.0" x2="1110.0" y2="90.0" stroke="#263241" stroke-width="1"/>
<text x="1120.0" y="95.0" font-size="12" fill="#aeb9c8" text-anchor="start" font-family="Arial, sans-serif">7235.25</text>
<line x1="70.0" y1="190.0" x2="1110.0" y2="190.0" stroke="#263241" stroke-width="1"/>
<text x="1120.0" y="195.0" font-size="12" fill="#aeb9c8" text-anchor="start" font-family="Arial, sans-serif">7230.65</text>
<line x1="70.0" y1="290.0" x2="1110.0" y2="290.0" stroke="#263241" stroke-width="1"/>
<text x="1120.0" y="295.0" font-size="12" fill="#aeb9c8" text-anchor="start" font-family="Arial, sans-serif">7226.05</text>
<line x1="70.0" y1="390.0" x2="1110.0" y2="390.0" stroke="#263241" stroke-width="1"/>
<text x="1120.0" y="395.0" font-size="12" fill="#aeb9c8" text-anchor="start" font-family="Arial, sans-serif">7221.45</text>
<line x1="70.0" y1="490.0" x2="1110.0" y2="490.0" stroke="#263241" stroke-width="1"/>
<text x="1120.0" y="495.0" font-size="12" fill="#aeb9c8" text-anchor="start" font-family="Arial, sans-serif">7216.85</text>
<line x1="70.0" y1="590.0" x2="1110.0" y2="590.0" stroke="#263241" stroke-width="1"/>
<text x="1120.0" y="595.0" font-size="12" fill="#aeb9c8" text-anchor="start" font-family="Arial, sans-serif">7212.25</text>
<line x1="70.0" y1="399.8" x2="1110.0" y2="399.8" stroke="#f4d35e" stroke-width="2"/>
<text x="78.0" y="391.8" font-size="13" fill="#f4d35e" text-anchor="start" font-family="Arial, sans-serif">reclaimed level 7221.00</text>
<line x1="70.0" y1="291.1" x2="1110.0" y2="291.1" stroke="#5bc0eb" stroke-width="1.5" stroke-dasharray="8 6"/>
<text x="78.0" y="283.1" font-size="13" fill="#5bc0eb" text-anchor="start" font-family="Arial, sans-serif">non-acceptance danger line level + 5 = 7226.00</text>
<line x1="70.0" y1="546.5" x2="1110.0" y2="546.5" stroke="#f25f5c" stroke-width="1.5" stroke-dasharray="5 5"/>
<text x="78.0" y="564.5" font-size="13" fill="#f25f5c" text-anchor="start" font-family="Arial, sans-serif">invalidation anchor 7214.25</text>
<line x1="86.8" y1="492.2" x2="86.8" y2="541.1" stroke="#32d074" stroke-width="1"/>
<rect x="72.0" y="508.5" width="29.5" height="21.7" fill="#32d074" opacity="0.9"/>
<line x1="86.8" y1="90.0" x2="86.8" y2="590.0" stroke="#ff8c42" stroke-width="2" stroke-dasharray="4 4"/>
<text x="92.8" y="108.0" font-size="12" fill="#ffb37a" text-anchor="start" font-family="Arial, sans-serif">trap candle</text>
<line x1="120.3" y1="448.7" x2="120.3" y2="503.0" stroke="#32d074" stroke-width="1"/>
<rect x="105.5" y="486.7" width="29.5" height="16.3" fill="#32d074" opacity="0.9"/>
<line x1="153.9" y1="459.6" x2="153.9" y2="503.0" stroke="#32d074" stroke-width="1"/>
<rect x="139.1" y="465.0" width="29.5" height="21.7" fill="#32d074" opacity="0.9"/>
<line x1="187.4" y1="448.7" x2="187.4" y2="481.3" stroke="#32d074" stroke-width="1"/>
<rect x="172.6" y="454.1" width="29.5" height="10.9" fill="#32d074" opacity="0.9"/>
<line x1="221.0" y1="448.7" x2="221.0" y2="481.3" stroke="#ff5c5c" stroke-width="1"/>
<rect x="206.2" y="459.6" width="29.5" height="16.3" fill="#ff5c5c" opacity="0.9"/>
<line x1="254.5" y1="443.3" x2="254.5" y2="492.2" stroke="#32d074" stroke-width="1"/>
<rect x="239.7" y="448.7" width="29.5" height="27.2" fill="#32d074" opacity="0.9"/>
<line x1="288.1" y1="448.7" x2="288.1" y2="486.7" stroke="#ff5c5c" stroke-width="1"/>
<rect x="273.3" y="454.1" width="29.5" height="27.2" fill="#ff5c5c" opacity="0.9"/>
<line x1="321.6" y1="448.7" x2="321.6" y2="486.7" stroke="#32d074" stroke-width="1"/>
<rect x="306.8" y="454.1" width="29.5" height="32.6" fill="#32d074" opacity="0.9"/>
<line x1="355.2" y1="448.7" x2="355.2" y2="497.6" stroke="#ff5c5c" stroke-width="1"/>
<rect x="340.4" y="454.1" width="29.5" height="27.2" fill="#ff5c5c" opacity="0.9"/>
<line x1="388.7" y1="454.1" x2="388.7" y2="492.2" stroke="#32d074" stroke-width="1"/>
<rect x="373.9" y="454.1" width="29.5" height="21.7" fill="#32d074" opacity="0.9"/>
<line x1="422.3" y1="443.3" x2="422.3" y2="475.9" stroke="#ff5c5c" stroke-width="1"/>
<rect x="407.5" y="454.1" width="29.5" height="5.4" fill="#ff5c5c" opacity="0.9"/>
<line x1="455.8" y1="394.3" x2="455.8" y2="465.0" stroke="#32d074" stroke-width="1"/>
<rect x="441.0" y="399.8" width="29.5" height="59.8" fill="#32d074" opacity="0.9"/>
<line x1="489.4" y1="367.2" x2="489.4" y2="410.7" stroke="#32d074" stroke-width="1"/>
<rect x="474.6" y="372.6" width="29.5" height="27.2" fill="#32d074" opacity="0.9"/>
<line x1="522.9" y1="367.2" x2="522.9" y2="394.3" stroke="#ff5c5c" stroke-width="1"/>
<rect x="508.1" y="378.0" width="29.5" height="16.3" fill="#ff5c5c" opacity="0.9"/>
<line x1="556.5" y1="372.6" x2="556.5" y2="410.7" stroke="#32d074" stroke-width="1"/>
<rect x="541.7" y="383.5" width="29.5" height="16.3" fill="#32d074" opacity="0.9"/>
<line x1="590.0" y1="378.0" x2="590.0" y2="399.8" stroke="#ff5c5c" stroke-width="1"/>
<rect x="575.2" y="383.5" width="29.5" height="5.4" fill="#ff5c5c" opacity="0.9"/>
<line x1="590.0" y1="90.0" x2="590.0" y2="590.0" stroke="#7bd88f" stroke-width="2" stroke-dasharray="4 4"/>
<text x="596.0" y="126.0" font-size="12" fill="#a7f3b7" text-anchor="start" font-family="Arial, sans-serif">first reclaim close</text>
<line x1="623.5" y1="372.6" x2="623.5" y2="405.2" stroke="#32d074" stroke-width="1"/>
<rect x="608.8" y="383.5" width="29.5" height="5.4" fill="#32d074" opacity="0.9"/>
<line x1="657.1" y1="378.0" x2="657.1" y2="427.0" stroke="#ff5c5c" stroke-width="1"/>
<rect x="642.3" y="378.0" width="29.5" height="32.6" fill="#ff5c5c" opacity="0.9"/>
<line x1="690.6" y1="399.8" x2="690.6" y2="432.4" stroke="#ff5c5c" stroke-width="1"/>
<rect x="675.9" y="410.7" width="29.5" height="5.4" fill="#ff5c5c" opacity="0.9"/>
<line x1="724.2" y1="383.5" x2="724.2" y2="427.0" stroke="#32d074" stroke-width="1"/>
<rect x="709.4" y="394.3" width="29.5" height="21.7" fill="#32d074" opacity="0.9"/>
<line x1="757.7" y1="394.3" x2="757.7" y2="410.7" stroke="#ff5c5c" stroke-width="1"/>
<rect x="743.0" y="394.3" width="29.5" height="10.9" fill="#ff5c5c" opacity="0.9"/>
<line x1="791.3" y1="394.3" x2="791.3" y2="416.1" stroke="#32d074" stroke-width="1"/>
<rect x="776.5" y="394.3" width="29.5" height="5.4" fill="#32d074" opacity="0.9"/>
<line x1="824.8" y1="361.7" x2="824.8" y2="394.3" stroke="#32d074" stroke-width="1"/>
<rect x="810.1" y="372.6" width="29.5" height="16.3" fill="#32d074" opacity="0.9"/>
<line x1="858.4" y1="334.6" x2="858.4" y2="372.6" stroke="#32d074" stroke-width="1"/>
<rect x="843.6" y="350.9" width="29.5" height="21.7" fill="#32d074" opacity="0.9"/>
<line x1="891.9" y1="318.3" x2="891.9" y2="356.3" stroke="#32d074" stroke-width="1"/>
<rect x="877.2" y="323.7" width="29.5" height="27.2" fill="#32d074" opacity="0.9"/>
<line x1="925.5" y1="302.0" x2="925.5" y2="334.6" stroke="#32d074" stroke-width="1"/>
<rect x="910.7" y="318.3" width="29.5" height="2.0" fill="#32d074" opacity="0.9"/>
<line x1="959.0" y1="182.4" x2="959.0" y2="329.1" stroke="#32d074" stroke-width="1"/>
<rect x="944.3" y="187.8" width="29.5" height="130.4" fill="#32d074" opacity="0.9"/>
<line x1="992.6" y1="166.1" x2="992.6" y2="215.0" stroke="#32d074" stroke-width="1"/>
<rect x="977.8" y="177.0" width="29.5" height="5.4" fill="#32d074" opacity="0.9"/>
<line x1="1026.1" y1="133.5" x2="1026.1" y2="187.8" stroke="#32d074" stroke-width="1"/>
<rect x="1011.4" y="160.7" width="29.5" height="16.3" fill="#32d074" opacity="0.9"/>
<line x1="1059.7" y1="133.5" x2="1059.7" y2="177.0" stroke="#32d074" stroke-width="1"/>
<rect x="1044.9" y="155.2" width="29.5" height="2.0" fill="#32d074" opacity="0.9"/>
<line x1="1093.2" y1="155.2" x2="1093.2" y2="198.7" stroke="#ff5c5c" stroke-width="1"/>
<rect x="1078.5" y="155.2" width="29.5" height="10.9" fill="#ff5c5c" opacity="0.9"/>
<rect x="70" y="610" width="1040" height="340" fill="#141922" stroke="#344156" rx="6"/>
<text x="86.0" y="636.0" font-size="14" fill="#f1f5f9" text-anchor="start" font-family="Arial, sans-serif">source: longer-mancini-logs</text>
<text x="606.0" y="636.0" font-size="14" fill="#f1f5f9" text-anchor="start" font-family="Arial, sans-serif">source kind: daily_plan_text</text>
<text x="86.0" y="660.0" font-size="14" fill="#f1f5f9" text-anchor="start" font-family="Arial, sans-serif">timezone policy: barchart-raw</text>
<text x="606.0" y="660.0" font-size="14" fill="#f1f5f9" text-anchor="start" font-family="Arial, sans-serif">flush points: 6.50</text>
<text x="86.0" y="684.0" font-size="14" fill="#f1f5f9" text-anchor="start" font-family="Arial, sans-serif">reclaim minutes from trap: 15.00</text>
<text x="606.0" y="684.0" font-size="14" fill="#f1f5f9" text-anchor="start" font-family="Arial, sans-serif">acceptance closes: 2</text>
<text x="86.0" y="708.0" font-size="14" fill="#f1f5f9" text-anchor="start" font-family="Arial, sans-serif">non-acceptance held bars: 0</text>
<text x="606.0" y="708.0" font-size="14" fill="#f1f5f9" text-anchor="start" font-family="Arial, sans-serif">MFE 15m: 11.50 | MAE 15m: 2.25</text>
<text x="86.0" y="732.0" font-size="14" fill="#f1f5f9" text-anchor="start" font-family="Arial, sans-serif">research only - verify visually before OCR reuse</text>
<text x="86.0" y="770.0" font-size="13" fill="#f4d35e" text-anchor="start" font-family="Arial, sans-serif">newsletter/source text:</text>
<text x="86.0" y="790.0" font-size="13" fill="#f1f5f9" text-anchor="start" font-family="Arial, sans-serif">Ideally we can fill out the 7175-80 to 7200-05 range, then resume up with next target slate being 7213, 7221, then 7244.&quot; Overnight Monday, we</text>
<text x="86.0" y="808.0" font-size="13" fill="#f1f5f9" text-anchor="start" font-family="Arial, sans-serif">got to ~7221, before finally cooling off into today.</text>
<text x="86.0" y="844.0" font-size="13" fill="#5bc0eb" text-anchor="start" font-family="Arial, sans-serif">case note:</text>
<text x="86.0" y="864.0" font-size="13" fill="#f1f5f9" text-anchor="start" font-family="Arial, sans-serif">Source-priority real Mancini packet. Use the newsletter/source text first; OHLC metrics and deterministic labels are secondary. Source</text>
<text x="86.0" y="882.0" font-size="13" fill="#f1f5f9" text-anchor="start" font-family="Arial, sans-serif">class=mancini_context_text; stat policy=included in timing statistics.</text>
</svg>