<svg xmlns="http://www.w3.org/2000/svg" width="1200" height="980" viewBox="0 0 1200 980">
<rect width="100%" height="100%" fill="#0b0d10"/>
<text x="28.0" y="38.0" font-size="24" fill="#ffffff" text-anchor="start" font-family="Arial, sans-serif">Real Mancini Packet - Accepted Timing - non_acceptance_protocol - level 7237.0</text>
<text x="28.0" y="65.0" font-size="15" fill="#d9e6ff" text-anchor="start" font-family="Arial, sans-serif">non_acceptance_protocol | level 7237.00 | packet mancini-es1m:2026-05-04T0535:7237.0:a0298424fc3d</text>
<line x1="70.0" y1="90.0" x2="1110.0" y2="90.0" stroke="#263241" stroke-width="1"/>
<text x="1120.0" y="95.0" font-size="12" fill="#aeb9c8" text-anchor="start" font-family="Arial, sans-serif">7256.00</text>
<line x1="70.0" y1="190.0" x2="1110.0" y2="190.0" stroke="#263241" stroke-width="1"/>
<text x="1120.0" y="195.0" font-size="12" fill="#aeb9c8" text-anchor="start" font-family="Arial, sans-serif">7247.10</text>
<line x1="70.0" y1="290.0" x2="1110.0" y2="290.0" stroke="#263241" stroke-width="1"/>
<text x="1120.0" y="295.0" font-size="12" fill="#aeb9c8" text-anchor="start" font-family="Arial, sans-serif">7238.20</text>
<line x1="70.0" y1="390.0" x2="1110.0" y2="390.0" stroke="#263241" stroke-width="1"/>
<text x="1120.0" y="395.0" font-size="12" fill="#aeb9c8" text-anchor="start" font-family="Arial, sans-serif">7229.30</text>
<line x1="70.0" y1="490.0" x2="1110.0" y2="490.0" stroke="#263241" stroke-width="1"/>
<text x="1120.0" y="495.0" font-size="12" fill="#aeb9c8" text-anchor="start" font-family="Arial, sans-serif">7220.40</text>
<line x1="70.0" y1="590.0" x2="1110.0" y2="590.0" stroke="#263241" stroke-width="1"/>
<text x="1120.0" y="595.0" font-size="12" fill="#aeb9c8" text-anchor="start" font-family="Arial, sans-serif">7211.50</text>
<line x1="70.0" y1="303.5" x2="1110.0" y2="303.5" stroke="#f4d35e" stroke-width="2"/>
<text x="78.0" y="295.5" font-size="13" fill="#f4d35e" text-anchor="start" font-family="Arial, sans-serif">reclaimed level 7237.00</text>
<line x1="70.0" y1="247.3" x2="1110.0" y2="247.3" stroke="#5bc0eb" stroke-width="1.5" stroke-dasharray="8 6"/>
<text x="78.0" y="239.3" font-size="13" fill="#5bc0eb" text-anchor="start" font-family="Arial, sans-serif">non-acceptance danger line level + 5 = 7242.00</text>
<line x1="70.0" y1="567.5" x2="1110.0" y2="567.5" stroke="#f25f5c" stroke-width="1.5" stroke-dasharray="5 5"/>
<text x="78.0" y="585.5" font-size="13" fill="#f25f5c" text-anchor="start" font-family="Arial, sans-serif">invalidation anchor 7213.50</text>
<line x1="86.8" y1="486.1" x2="86.8" y2="533.8" stroke="#32d074" stroke-width="1"/>
<rect x="72.0" y="497.3" width="29.5" height="25.3" fill="#32d074" opacity="0.9"/>
<line x1="120.3" y1="494.5" x2="120.3" y2="561.9" stroke="#ff5c5c" stroke-width="1"/>
<rect x="105.5" y="494.5" width="29.5" height="36.5" fill="#ff5c5c" opacity="0.9"/>
<line x1="153.9" y1="494.5" x2="153.9" y2="564.7" stroke="#32d074" stroke-width="1"/>
<rect x="139.1" y="497.3" width="29.5" height="33.7" fill="#32d074" opacity="0.9"/>
<line x1="153.9" y1="90.0" x2="153.9" y2="590.0" stroke="#ff8c42" stroke-width="2" stroke-dasharray="4 4"/>
<text x="159.9" y="108.0" font-size="12" fill="#ffb37a" text-anchor="start" font-family="Arial, sans-serif">trap candle</text>
<line x1="187.4" y1="455.2" x2="187.4" y2="505.7" stroke="#32d074" stroke-width="1"/>
<rect x="172.6" y="460.8" width="29.5" height="33.7" fill="#32d074" opacity="0.9"/>
<line x1="221.0" y1="429.9" x2="221.0" y2="472.0" stroke="#32d074" stroke-width="1"/>
<rect x="206.2" y="438.3" width="29.5" height="19.7" fill="#32d074" opacity="0.9"/>
<line x1="254.5" y1="379.3" x2="254.5" y2="438.3" stroke="#32d074" stroke-width="1"/>
<rect x="239.7" y="393.4" width="29.5" height="44.9" fill="#32d074" opacity="0.9"/>
<line x1="288.1" y1="326.0" x2="288.1" y2="393.4" stroke="#32d074" stroke-width="1"/>
<rect x="273.3" y="331.6" width="29.5" height="56.2" fill="#32d074" opacity="0.9"/>
<line x1="321.6" y1="320.3" x2="321.6" y2="373.7" stroke="#ff5c5c" stroke-width="1"/>
<rect x="306.8" y="331.6" width="29.5" height="39.3" fill="#ff5c5c" opacity="0.9"/>
<line x1="355.2" y1="356.9" x2="355.2" y2="384.9" stroke="#32d074" stroke-width="1"/>
<rect x="340.4" y="362.5" width="29.5" height="8.4" fill="#32d074" opacity="0.9"/>
<line x1="388.7" y1="337.2" x2="388.7" y2="368.1" stroke="#32d074" stroke-width="1"/>
<rect x="373.9" y="351.2" width="29.5" height="16.9" fill="#32d074" opacity="0.9"/>
<line x1="422.3" y1="311.9" x2="422.3" y2="376.5" stroke="#32d074" stroke-width="1"/>
<rect x="407.5" y="340.0" width="29.5" height="11.2" fill="#32d074" opacity="0.9"/>
<line x1="455.8" y1="297.9" x2="455.8" y2="368.1" stroke="#32d074" stroke-width="1"/>
<rect x="441.0" y="306.3" width="29.5" height="33.7" fill="#32d074" opacity="0.9"/>
<line x1="489.4" y1="112.5" x2="489.4" y2="320.3" stroke="#32d074" stroke-width="1"/>
<rect x="474.6" y="238.9" width="29.5" height="67.4" fill="#32d074" opacity="0.9"/>
<line x1="522.9" y1="196.7" x2="522.9" y2="255.7" stroke="#32d074" stroke-width="1"/>
<rect x="508.1" y="216.4" width="29.5" height="22.5" fill="#32d074" opacity="0.9"/>
<line x1="556.5" y1="179.9" x2="556.5" y2="222.0" stroke="#32d074" stroke-width="1"/>
<rect x="541.7" y="196.7" width="29.5" height="16.9" fill="#32d074" opacity="0.9"/>
<line x1="590.0" y1="171.5" x2="590.0" y2="199.6" stroke="#32d074" stroke-width="1"/>
<rect x="575.2" y="188.3" width="29.5" height="2.8" fill="#32d074" opacity="0.9"/>
<line x1="590.0" y1="90.0" x2="590.0" y2="590.0" stroke="#7bd88f" stroke-width="2" stroke-dasharray="4 4"/>
<text x="596.0" y="126.0" font-size="12" fill="#a7f3b7" text-anchor="start" font-family="Arial, sans-serif">first reclaim close</text>
<line x1="623.5" y1="165.8" x2="623.5" y2="205.2" stroke="#ff5c5c" stroke-width="1"/>
<rect x="608.8" y="185.5" width="29.5" height="11.2" fill="#ff5c5c" opacity="0.9"/>
<line x1="657.1" y1="171.5" x2="657.1" y2="224.8" stroke="#ff5c5c" stroke-width="1"/>
<rect x="642.3" y="199.6" width="29.5" height="22.5" fill="#ff5c5c" opacity="0.9"/>
<line x1="690.6" y1="213.6" x2="690.6" y2="241.7" stroke="#ff5c5c" stroke-width="1"/>
<rect x="675.9" y="224.8" width="29.5" height="5.6" fill="#ff5c5c" opacity="0.9"/>
<line x1="724.2" y1="165.8" x2="724.2" y2="233.3" stroke="#32d074" stroke-width="1"/>
<rect x="709.4" y="199.6" width="29.5" height="33.7" fill="#32d074" opacity="0.9"/>
<line x1="757.7" y1="165.8" x2="757.7" y2="208.0" stroke="#32d074" stroke-width="1"/>
<rect x="743.0" y="193.9" width="29.5" height="5.6" fill="#32d074" opacity="0.9"/>
<line x1="791.3" y1="149.0" x2="791.3" y2="196.7" stroke="#32d074" stroke-width="1"/>
<rect x="776.5" y="177.1" width="29.5" height="16.9" fill="#32d074" opacity="0.9"/>
<line x1="824.8" y1="163.0" x2="824.8" y2="196.7" stroke="#ff5c5c" stroke-width="1"/>
<rect x="810.1" y="179.9" width="29.5" height="8.4" fill="#ff5c5c" opacity="0.9"/>
<line x1="858.4" y1="140.6" x2="858.4" y2="191.1" stroke="#32d074" stroke-width="1"/>
<rect x="843.6" y="168.7" width="29.5" height="16.9" fill="#32d074" opacity="0.9"/>
<line x1="891.9" y1="146.2" x2="891.9" y2="174.3" stroke="#32d074" stroke-width="1"/>
<rect x="877.2" y="165.8" width="29.5" height="2.8" fill="#32d074" opacity="0.9"/>
<line x1="925.5" y1="160.2" x2="925.5" y2="188.3" stroke="#ff5c5c" stroke-width="1"/>
<rect x="910.7" y="168.7" width="29.5" height="11.2" fill="#ff5c5c" opacity="0.9"/>
<line x1="959.0" y1="163.0" x2="959.0" y2="193.9" stroke="#32d074" stroke-width="1"/>
<rect x="944.3" y="168.7" width="29.5" height="16.9" fill="#32d074" opacity="0.9"/>
<line x1="992.6" y1="154.6" x2="992.6" y2="177.1" stroke="#ff5c5c" stroke-width="1"/>
<rect x="977.8" y="168.7" width="29.5" height="5.6" fill="#ff5c5c" opacity="0.9"/>
<line x1="1026.1" y1="132.1" x2="1026.1" y2="179.9" stroke="#32d074" stroke-width="1"/>
<rect x="1011.4" y="146.2" width="29.5" height="30.9" fill="#32d074" opacity="0.9"/>
<line x1="1059.7" y1="129.3" x2="1059.7" y2="154.6" stroke="#32d074" stroke-width="1"/>
<rect x="1044.9" y="140.6" width="29.5" height="2.8" fill="#32d074" opacity="0.9"/>
<line x1="1093.2" y1="126.5" x2="1093.2" y2="154.6" stroke="#ff5c5c" stroke-width="1"/>
<rect x="1078.5" y="140.6" width="29.5" height="14.0" fill="#ff5c5c" opacity="0.9"/>
<rect x="70" y="610" width="1040" height="340" fill="#141922" stroke="#344156" rx="6"/>
<text x="86.0" y="636.0" font-size="14" fill="#f1f5f9" text-anchor="start" font-family="Arial, sans-serif">source: longer-mancini-logs</text>
<text x="606.0" y="636.0" font-size="14" fill="#f1f5f9" text-anchor="start" font-family="Arial, sans-serif">source kind: daily_plan_text</text>
<text x="86.0" y="660.0" font-size="14" fill="#f1f5f9" text-anchor="start" font-family="Arial, sans-serif">timezone policy: barchart-raw</text>
<text x="606.0" y="660.0" font-size="14" fill="#f1f5f9" text-anchor="start" font-family="Arial, sans-serif">flush points: 23.25</text>
<text x="86.0" y="684.0" font-size="14" fill="#f1f5f9" text-anchor="start" font-family="Arial, sans-serif">reclaim minutes from trap: 13.00</text>
<text x="606.0" y="684.0" font-size="14" fill="#f1f5f9" text-anchor="start" font-family="Arial, sans-serif">acceptance closes: 16</text>
<text x="86.0" y="708.0" font-size="14" fill="#f1f5f9" text-anchor="start" font-family="Arial, sans-serif">non-acceptance held bars: 16</text>
<text x="606.0" y="708.0" font-size="14" fill="#f1f5f9" text-anchor="start" font-family="Arial, sans-serif">MFE 15m: 5.75 | MAE 15m: 4.50</text>
<text x="86.0" y="732.0" font-size="14" fill="#f1f5f9" text-anchor="start" font-family="Arial, sans-serif">research only - verify visually before OCR reuse</text>
<text x="86.0" y="770.0" font-size="13" fill="#f4d35e" text-anchor="start" font-family="Arial, sans-serif">newsletter/source text:</text>
<text x="86.0" y="790.0" font-size="13" fill="#f1f5f9" text-anchor="start" font-family="Arial, sans-serif">Supports are: 7237 (major)</text>
<text x="86.0" y="844.0" font-size="13" fill="#5bc0eb" text-anchor="start" font-family="Arial, sans-serif">case note:</text>
<text x="86.0" y="864.0" font-size="13" fill="#f1f5f9" text-anchor="start" font-family="Arial, sans-serif">Source-priority real Mancini packet. Use the newsletter/source text first; OHLC metrics and deterministic labels are secondary. Source</text>
<text x="86.0" y="882.0" font-size="13" fill="#f1f5f9" text-anchor="start" font-family="Arial, sans-serif">class=support_resistance_list; stat policy=included in timing statistics.</text>
</svg>