<svg xmlns="http://www.w3.org/2000/svg" width="1200" height="980" viewBox="0 0 1200 980">
<rect width="100%" height="100%" fill="#0b0d10"/>
<text x="28.0" y="38.0" font-size="24" fill="#ffffff" text-anchor="start" font-family="Arial, sans-serif">Real Mancini Packet - Excluded Timing - non_acceptance_protocol - level 7259.0</text>
<text x="28.0" y="65.0" font-size="15" fill="#d9e6ff" text-anchor="start" font-family="Arial, sans-serif">non_acceptance_protocol | level 7259.00 | packet mancini-es1m:2026-05-03T1904:7259.0:6763382fb035</text>
<line x1="70.0" y1="90.0" x2="1110.0" y2="90.0" stroke="#263241" stroke-width="1"/>
<text x="1120.0" y="95.0" font-size="12" fill="#aeb9c8" text-anchor="start" font-family="Arial, sans-serif">7268.25</text>
<line x1="70.0" y1="190.0" x2="1110.0" y2="190.0" stroke="#263241" stroke-width="1"/>
<text x="1120.0" y="195.0" font-size="12" fill="#aeb9c8" text-anchor="start" font-family="Arial, sans-serif">7265.55</text>
<line x1="70.0" y1="290.0" x2="1110.0" y2="290.0" stroke="#263241" stroke-width="1"/>
<text x="1120.0" y="295.0" font-size="12" fill="#aeb9c8" text-anchor="start" font-family="Arial, sans-serif">7262.85</text>
<line x1="70.0" y1="390.0" x2="1110.0" y2="390.0" stroke="#263241" stroke-width="1"/>
<text x="1120.0" y="395.0" font-size="12" fill="#aeb9c8" text-anchor="start" font-family="Arial, sans-serif">7260.15</text>
<line x1="70.0" y1="490.0" x2="1110.0" y2="490.0" stroke="#263241" stroke-width="1"/>
<text x="1120.0" y="495.0" font-size="12" fill="#aeb9c8" text-anchor="start" font-family="Arial, sans-serif">7257.45</text>
<line x1="70.0" y1="590.0" x2="1110.0" y2="590.0" stroke="#263241" stroke-width="1"/>
<text x="1120.0" y="595.0" font-size="12" fill="#aeb9c8" text-anchor="start" font-family="Arial, sans-serif">7254.75</text>
<line x1="70.0" y1="432.6" x2="1110.0" y2="432.6" stroke="#f4d35e" stroke-width="2"/>
<text x="78.0" y="424.6" font-size="13" fill="#f4d35e" text-anchor="start" font-family="Arial, sans-serif">reclaimed level 7259.00</text>
<line x1="70.0" y1="247.4" x2="1110.0" y2="247.4" stroke="#5bc0eb" stroke-width="1.5" stroke-dasharray="8 6"/>
<text x="78.0" y="239.4" font-size="13" fill="#5bc0eb" text-anchor="start" font-family="Arial, sans-serif">non-acceptance danger line level + 5 = 7264.00</text>
<line x1="70.0" y1="515.9" x2="1110.0" y2="515.9" stroke="#f25f5c" stroke-width="1.5" stroke-dasharray="5 5"/>
<text x="78.0" y="533.9" font-size="13" fill="#f25f5c" text-anchor="start" font-family="Arial, sans-serif">invalidation anchor 7256.75</text>
<line x1="86.8" y1="293.7" x2="86.8" y2="330.7" stroke="#32d074" stroke-width="1"/>
<rect x="72.0" y="303.0" width="29.5" height="9.3" fill="#32d074" opacity="0.9"/>
<line x1="120.3" y1="303.0" x2="120.3" y2="340.0" stroke="#ff5c5c" stroke-width="1"/>
<rect x="105.5" y="303.0" width="29.5" height="27.8" fill="#ff5c5c" opacity="0.9"/>
<line x1="153.9" y1="284.4" x2="153.9" y2="340.0" stroke="#32d074" stroke-width="1"/>
<rect x="139.1" y="293.7" width="29.5" height="37.0" fill="#32d074" opacity="0.9"/>
<line x1="187.4" y1="265.9" x2="187.4" y2="312.2" stroke="#32d074" stroke-width="1"/>
<rect x="172.6" y="265.9" width="29.5" height="37.0" fill="#32d074" opacity="0.9"/>
<line x1="221.0" y1="256.7" x2="221.0" y2="284.4" stroke="#32d074" stroke-width="1"/>
<rect x="206.2" y="275.2" width="29.5" height="2.0" fill="#32d074" opacity="0.9"/>
<line x1="254.5" y1="284.4" x2="254.5" y2="293.7" stroke="#32d074" stroke-width="1"/>
<rect x="239.7" y="284.4" width="29.5" height="2.0" fill="#32d074" opacity="0.9"/>
<line x1="288.1" y1="265.9" x2="288.1" y2="330.7" stroke="#ff5c5c" stroke-width="1"/>
<rect x="273.3" y="284.4" width="29.5" height="9.3" fill="#ff5c5c" opacity="0.9"/>
<line x1="321.6" y1="275.2" x2="321.6" y2="293.7" stroke="#32d074" stroke-width="1"/>
<rect x="306.8" y="293.7" width="29.5" height="2.0" fill="#32d074" opacity="0.9"/>
<line x1="355.2" y1="284.4" x2="355.2" y2="321.5" stroke="#ff5c5c" stroke-width="1"/>
<rect x="340.4" y="293.7" width="29.5" height="18.5" fill="#ff5c5c" opacity="0.9"/>
<line x1="388.7" y1="312.2" x2="388.7" y2="340.0" stroke="#ff5c5c" stroke-width="1"/>
<rect x="373.9" y="312.2" width="29.5" height="18.5" fill="#ff5c5c" opacity="0.9"/>
<line x1="422.3" y1="303.0" x2="422.3" y2="340.0" stroke="#32d074" stroke-width="1"/>
<rect x="407.5" y="330.7" width="29.5" height="2.0" fill="#32d074" opacity="0.9"/>
<line x1="455.8" y1="330.7" x2="455.8" y2="414.1" stroke="#ff5c5c" stroke-width="1"/>
<rect x="441.0" y="330.7" width="29.5" height="46.3" fill="#ff5c5c" opacity="0.9"/>
<line x1="489.4" y1="367.8" x2="489.4" y2="460.4" stroke="#32d074" stroke-width="1"/>
<rect x="474.6" y="377.0" width="29.5" height="9.3" fill="#32d074" opacity="0.9"/>
<line x1="522.9" y1="321.5" x2="522.9" y2="367.8" stroke="#32d074" stroke-width="1"/>
<rect x="508.1" y="330.7" width="29.5" height="27.8" fill="#32d074" opacity="0.9"/>
<line x1="556.5" y1="303.0" x2="556.5" y2="404.8" stroke="#ff5c5c" stroke-width="1"/>
<rect x="541.7" y="321.5" width="29.5" height="83.3" fill="#ff5c5c" opacity="0.9"/>
<line x1="590.0" y1="321.5" x2="590.0" y2="423.3" stroke="#32d074" stroke-width="1"/>
<rect x="575.2" y="330.7" width="29.5" height="74.1" fill="#32d074" opacity="0.9"/>
<line x1="590.0" y1="90.0" x2="590.0" y2="590.0" stroke="#7bd88f" stroke-width="2" stroke-dasharray="4 4"/>
<text x="596.0" y="126.0" font-size="12" fill="#a7f3b7" text-anchor="start" font-family="Arial, sans-serif">first reclaim close</text>
<line x1="623.5" y1="256.7" x2="623.5" y2="340.0" stroke="#32d074" stroke-width="1"/>
<rect x="608.8" y="275.2" width="29.5" height="46.3" fill="#32d074" opacity="0.9"/>
<line x1="657.1" y1="256.7" x2="657.1" y2="312.2" stroke="#32d074" stroke-width="1"/>
<rect x="642.3" y="265.9" width="29.5" height="9.3" fill="#32d074" opacity="0.9"/>
<line x1="690.6" y1="164.1" x2="690.6" y2="265.9" stroke="#32d074" stroke-width="1"/>
<rect x="675.9" y="182.6" width="29.5" height="83.3" fill="#32d074" opacity="0.9"/>
<line x1="724.2" y1="182.6" x2="724.2" y2="238.1" stroke="#ff5c5c" stroke-width="1"/>
<rect x="709.4" y="182.6" width="29.5" height="55.6" fill="#ff5c5c" opacity="0.9"/>
<line x1="757.7" y1="173.3" x2="757.7" y2="219.6" stroke="#32d074" stroke-width="1"/>
<rect x="743.0" y="201.1" width="29.5" height="18.5" fill="#32d074" opacity="0.9"/>
<line x1="791.3" y1="182.6" x2="791.3" y2="219.6" stroke="#ff5c5c" stroke-width="1"/>
<rect x="776.5" y="191.9" width="29.5" height="18.5" fill="#ff5c5c" opacity="0.9"/>
<line x1="824.8" y1="201.1" x2="824.8" y2="293.7" stroke="#ff5c5c" stroke-width="1"/>
<rect x="810.1" y="210.4" width="29.5" height="83.3" fill="#ff5c5c" opacity="0.9"/>
<line x1="858.4" y1="284.4" x2="858.4" y2="377.0" stroke="#ff5c5c" stroke-width="1"/>
<rect x="843.6" y="284.4" width="29.5" height="46.3" fill="#ff5c5c" opacity="0.9"/>
<line x1="891.9" y1="312.2" x2="891.9" y2="367.8" stroke="#32d074" stroke-width="1"/>
<rect x="877.2" y="340.0" width="29.5" height="2.0" fill="#32d074" opacity="0.9"/>
<line x1="925.5" y1="293.7" x2="925.5" y2="367.8" stroke="#32d074" stroke-width="1"/>
<rect x="910.7" y="312.2" width="29.5" height="27.8" fill="#32d074" opacity="0.9"/>
<line x1="959.0" y1="247.4" x2="959.0" y2="367.8" stroke="#32d074" stroke-width="1"/>
<rect x="944.3" y="312.2" width="29.5" height="2.0" fill="#32d074" opacity="0.9"/>
<line x1="992.6" y1="312.2" x2="992.6" y2="404.8" stroke="#ff5c5c" stroke-width="1"/>
<rect x="977.8" y="312.2" width="29.5" height="74.1" fill="#ff5c5c" opacity="0.9"/>
<line x1="1026.1" y1="367.8" x2="1026.1" y2="488.1" stroke="#ff5c5c" stroke-width="1"/>
<rect x="1011.4" y="377.0" width="29.5" height="83.3" fill="#ff5c5c" opacity="0.9"/>
<line x1="1059.7" y1="414.1" x2="1059.7" y2="478.9" stroke="#32d074" stroke-width="1"/>
<rect x="1044.9" y="414.1" width="29.5" height="46.3" fill="#32d074" opacity="0.9"/>
<line x1="1093.2" y1="414.1" x2="1093.2" y2="506.7" stroke="#ff5c5c" stroke-width="1"/>
<rect x="1078.5" y="414.1" width="29.5" height="37.0" fill="#ff5c5c" opacity="0.9"/>
<line x1="1093.2" y1="90.0" x2="1093.2" y2="590.0" stroke="#ff8c42" stroke-width="2" stroke-dasharray="4 4"/>
<text x="1099.2" y="108.0" font-size="12" fill="#ffb37a" text-anchor="start" font-family="Arial, sans-serif">trap candle</text>
<rect x="70" y="610" width="1040" height="340" fill="#141922" stroke="#344156" rx="6"/>
<text x="86.0" y="636.0" font-size="14" fill="#f1f5f9" text-anchor="start" font-family="Arial, sans-serif">source: longer-mancini-logs</text>
<text x="606.0" y="636.0" font-size="14" fill="#f1f5f9" text-anchor="start" font-family="Arial, sans-serif">source kind: daily_plan_text</text>
<text x="86.0" y="660.0" font-size="14" fill="#f1f5f9" text-anchor="start" font-family="Arial, sans-serif">timezone policy: barchart-raw</text>
<text x="606.0" y="660.0" font-size="14" fill="#f1f5f9" text-anchor="start" font-family="Arial, sans-serif">flush points: 2.00</text>
<text x="86.0" y="684.0" font-size="14" fill="#f1f5f9" text-anchor="start" font-family="Arial, sans-serif">reclaim minutes from trap: 0.00</text>
<text x="606.0" y="684.0" font-size="14" fill="#f1f5f9" text-anchor="start" font-family="Arial, sans-serif">acceptance closes: 13</text>
<text x="86.0" y="708.0" font-size="14" fill="#f1f5f9" text-anchor="start" font-family="Arial, sans-serif">non-acceptance held bars: 4</text>
<text x="606.0" y="708.0" font-size="14" fill="#f1f5f9" text-anchor="start" font-family="Arial, sans-serif">MFE 15m: 6.50 | MAE 15m: 2.75</text>
<text x="86.0" y="732.0" font-size="14" fill="#f1f5f9" text-anchor="start" font-family="Arial, sans-serif">research only - verify visually before OCR reuse</text>
<text x="86.0" y="770.0" font-size="13" fill="#f4d35e" text-anchor="start" font-family="Arial, sans-serif">newsletter/source text:</text>
<text x="86.0" y="790.0" font-size="13" fill="#f1f5f9" text-anchor="start" font-family="Arial, sans-serif">I would not buy this again, but at 240PM we set a low at 7259.</text>
<text x="86.0" y="844.0" font-size="13" fill="#5bc0eb" text-anchor="start" font-family="Arial, sans-serif">case note:</text>
<text x="86.0" y="864.0" font-size="13" fill="#f1f5f9" text-anchor="start" font-family="Arial, sans-serif">Source-priority real Mancini packet. Use the newsletter/source text first; OHLC metrics and deterministic labels are secondary. Source</text>
<text x="86.0" y="882.0" font-size="13" fill="#f1f5f9" text-anchor="start" font-family="Arial, sans-serif">class=mancini_context_text; stat policy=excluded from timing statistics: missing_or_nonpositive_reclaim_minutes.</text>
</svg>