<svg xmlns="http://www.w3.org/2000/svg" width="1200" height="980" viewBox="0 0 1200 980">
<rect width="100%" height="100%" fill="#0b0d10"/>
<text x="28.0" y="38.0" font-size="24" fill="#ffffff" text-anchor="start" font-family="Arial, sans-serif">Real Mancini Packet - Excluded Timing - unmeasurable - level 7345.0</text>
<text x="28.0" y="65.0" font-size="15" fill="#d9e6ff" text-anchor="start" font-family="Arial, sans-serif">unmeasurable | level 7345.00 | packet mancini-es1m:2026-05-07T1345:7345.0:711b297c2c50</text>
<line x1="70.0" y1="90.0" x2="1110.0" y2="90.0" stroke="#263241" stroke-width="1"/>
<text x="1120.0" y="95.0" font-size="12" fill="#aeb9c8" text-anchor="start" font-family="Arial, sans-serif">7369.50</text>
<line x1="70.0" y1="190.0" x2="1110.0" y2="190.0" stroke="#263241" stroke-width="1"/>
<text x="1120.0" y="195.0" font-size="12" fill="#aeb9c8" text-anchor="start" font-family="Arial, sans-serif">7364.20</text>
<line x1="70.0" y1="290.0" x2="1110.0" y2="290.0" stroke="#263241" stroke-width="1"/>
<text x="1120.0" y="295.0" font-size="12" fill="#aeb9c8" text-anchor="start" font-family="Arial, sans-serif">7358.90</text>
<line x1="70.0" y1="390.0" x2="1110.0" y2="390.0" stroke="#263241" stroke-width="1"/>
<text x="1120.0" y="395.0" font-size="12" fill="#aeb9c8" text-anchor="start" font-family="Arial, sans-serif">7353.60</text>
<line x1="70.0" y1="490.0" x2="1110.0" y2="490.0" stroke="#263241" stroke-width="1"/>
<text x="1120.0" y="495.0" font-size="12" fill="#aeb9c8" text-anchor="start" font-family="Arial, sans-serif">7348.30</text>
<line x1="70.0" y1="590.0" x2="1110.0" y2="590.0" stroke="#263241" stroke-width="1"/>
<text x="1120.0" y="595.0" font-size="12" fill="#aeb9c8" text-anchor="start" font-family="Arial, sans-serif">7343.00</text>
<line x1="70.0" y1="552.3" x2="1110.0" y2="552.3" stroke="#f4d35e" stroke-width="2"/>
<text x="78.0" y="544.3" font-size="13" fill="#f4d35e" text-anchor="start" font-family="Arial, sans-serif">reclaimed level 7345.00</text>
<line x1="70.0" y1="457.9" x2="1110.0" y2="457.9" stroke="#5bc0eb" stroke-width="1.5" stroke-dasharray="8 6"/>
<text x="78.0" y="449.9" font-size="13" fill="#5bc0eb" text-anchor="start" font-family="Arial, sans-serif">non-acceptance danger line level + 5 = 7350.00</text>
<line x1="86.8" y1="203.2" x2="86.8" y2="259.8" stroke="#32d074" stroke-width="1"/>
<rect x="72.0" y="217.4" width="29.5" height="33.0" fill="#32d074" opacity="0.9"/>
<line x1="120.3" y1="179.6" x2="120.3" y2="222.1" stroke="#32d074" stroke-width="1"/>
<rect x="105.5" y="184.3" width="29.5" height="28.3" fill="#32d074" opacity="0.9"/>
<line x1="153.9" y1="156.0" x2="153.9" y2="193.8" stroke="#32d074" stroke-width="1"/>
<rect x="139.1" y="160.8" width="29.5" height="18.9" fill="#32d074" opacity="0.9"/>
<line x1="187.4" y1="127.7" x2="187.4" y2="165.5" stroke="#32d074" stroke-width="1"/>
<rect x="172.6" y="137.2" width="29.5" height="18.9" fill="#32d074" opacity="0.9"/>
<line x1="221.0" y1="132.5" x2="221.0" y2="174.9" stroke="#ff5c5c" stroke-width="1"/>
<rect x="206.2" y="132.5" width="29.5" height="33.0" fill="#ff5c5c" opacity="0.9"/>
<line x1="254.5" y1="132.5" x2="254.5" y2="193.8" stroke="#ff5c5c" stroke-width="1"/>
<rect x="239.7" y="160.8" width="29.5" height="28.3" fill="#ff5c5c" opacity="0.9"/>
<line x1="288.1" y1="189.1" x2="288.1" y2="217.4" stroke="#ff5c5c" stroke-width="1"/>
<rect x="273.3" y="189.1" width="29.5" height="28.3" fill="#ff5c5c" opacity="0.9"/>
<line x1="321.6" y1="212.6" x2="321.6" y2="292.8" stroke="#ff5c5c" stroke-width="1"/>
<rect x="306.8" y="212.6" width="29.5" height="66.0" fill="#ff5c5c" opacity="0.9"/>
<line x1="355.2" y1="240.9" x2="355.2" y2="311.7" stroke="#32d074" stroke-width="1"/>
<rect x="340.4" y="264.5" width="29.5" height="9.4" fill="#32d074" opacity="0.9"/>
<line x1="388.7" y1="203.2" x2="388.7" y2="283.4" stroke="#32d074" stroke-width="1"/>
<rect x="373.9" y="226.8" width="29.5" height="33.0" fill="#32d074" opacity="0.9"/>
<line x1="422.3" y1="217.4" x2="422.3" y2="269.2" stroke="#ff5c5c" stroke-width="1"/>
<rect x="407.5" y="222.1" width="29.5" height="28.3" fill="#ff5c5c" opacity="0.9"/>
<line x1="455.8" y1="226.8" x2="455.8" y2="292.8" stroke="#ff5c5c" stroke-width="1"/>
<rect x="441.0" y="245.7" width="29.5" height="33.0" fill="#ff5c5c" opacity="0.9"/>
<line x1="489.4" y1="203.2" x2="489.4" y2="288.1" stroke="#32d074" stroke-width="1"/>
<rect x="474.6" y="207.9" width="29.5" height="66.0" fill="#32d074" opacity="0.9"/>
<line x1="522.9" y1="207.9" x2="522.9" y2="311.7" stroke="#ff5c5c" stroke-width="1"/>
<rect x="508.1" y="207.9" width="29.5" height="37.7" fill="#ff5c5c" opacity="0.9"/>
<line x1="556.5" y1="240.9" x2="556.5" y2="505.1" stroke="#ff5c5c" stroke-width="1"/>
<rect x="541.7" y="240.9" width="29.5" height="193.4" fill="#ff5c5c" opacity="0.9"/>
<line x1="590.0" y1="373.0" x2="590.0" y2="542.8" stroke="#32d074" stroke-width="1"/>
<rect x="575.2" y="382.5" width="29.5" height="51.9" fill="#32d074" opacity="0.9"/>
<line x1="590.0" y1="90.0" x2="590.0" y2="590.0" stroke="#7bd88f" stroke-width="2" stroke-dasharray="4 4"/>
<text x="596.0" y="126.0" font-size="12" fill="#a7f3b7" text-anchor="start" font-family="Arial, sans-serif">first reclaim close</text>
<line x1="623.5" y1="354.2" x2="623.5" y2="420.2" stroke="#32d074" stroke-width="1"/>
<rect x="608.8" y="358.9" width="29.5" height="18.9" fill="#32d074" opacity="0.9"/>
<line x1="657.1" y1="354.2" x2="657.1" y2="467.4" stroke="#ff5c5c" stroke-width="1"/>
<rect x="642.3" y="354.2" width="29.5" height="70.8" fill="#ff5c5c" opacity="0.9"/>
<line x1="690.6" y1="382.5" x2="690.6" y2="462.6" stroke="#ff5c5c" stroke-width="1"/>
<rect x="675.9" y="424.9" width="29.5" height="23.6" fill="#ff5c5c" opacity="0.9"/>
<line x1="724.2" y1="429.6" x2="724.2" y2="467.4" stroke="#ff5c5c" stroke-width="1"/>
<rect x="709.4" y="443.8" width="29.5" height="14.2" fill="#ff5c5c" opacity="0.9"/>
<line x1="757.7" y1="453.2" x2="757.7" y2="509.8" stroke="#ff5c5c" stroke-width="1"/>
<rect x="743.0" y="453.2" width="29.5" height="4.7" fill="#ff5c5c" opacity="0.9"/>
<line x1="791.3" y1="387.2" x2="791.3" y2="490.9" stroke="#32d074" stroke-width="1"/>
<rect x="776.5" y="387.2" width="29.5" height="70.8" fill="#32d074" opacity="0.9"/>
<line x1="824.8" y1="358.9" x2="824.8" y2="406.0" stroke="#32d074" stroke-width="1"/>
<rect x="810.1" y="373.0" width="29.5" height="14.2" fill="#32d074" opacity="0.9"/>
<line x1="858.4" y1="354.2" x2="858.4" y2="429.6" stroke="#ff5c5c" stroke-width="1"/>
<rect x="843.6" y="368.3" width="29.5" height="23.6" fill="#ff5c5c" opacity="0.9"/>
<line x1="891.9" y1="349.4" x2="891.9" y2="401.3" stroke="#32d074" stroke-width="1"/>
<rect x="877.2" y="387.2" width="29.5" height="2.0" fill="#32d074" opacity="0.9"/>
<line x1="925.5" y1="292.8" x2="925.5" y2="429.6" stroke="#32d074" stroke-width="1"/>
<rect x="910.7" y="311.7" width="29.5" height="75.5" fill="#32d074" opacity="0.9"/>
<line x1="959.0" y1="264.5" x2="959.0" y2="344.7" stroke="#32d074" stroke-width="1"/>
<rect x="944.3" y="302.3" width="29.5" height="4.7" fill="#32d074" opacity="0.9"/>
<line x1="992.6" y1="274.0" x2="992.6" y2="321.1" stroke="#ff5c5c" stroke-width="1"/>
<rect x="977.8" y="297.5" width="29.5" height="4.7" fill="#ff5c5c" opacity="0.9"/>
<line x1="1026.1" y1="269.2" x2="1026.1" y2="335.3" stroke="#ff5c5c" stroke-width="1"/>
<rect x="1011.4" y="302.3" width="29.5" height="18.9" fill="#ff5c5c" opacity="0.9"/>
<line x1="1059.7" y1="264.5" x2="1059.7" y2="321.1" stroke="#32d074" stroke-width="1"/>
<rect x="1044.9" y="274.0" width="29.5" height="42.5" fill="#32d074" opacity="0.9"/>
<line x1="1093.2" y1="217.4" x2="1093.2" y2="292.8" stroke="#ff5c5c" stroke-width="1"/>
<rect x="1078.5" y="274.0" width="29.5" height="18.9" fill="#ff5c5c" opacity="0.9"/>
<rect x="70" y="610" width="1040" height="340" fill="#141922" stroke="#344156" rx="6"/>
<text x="86.0" y="636.0" font-size="14" fill="#f1f5f9" text-anchor="start" font-family="Arial, sans-serif">source: longer-mancini-logs</text>
<text x="606.0" y="636.0" font-size="14" fill="#f1f5f9" text-anchor="start" font-family="Arial, sans-serif">source kind: daily_plan_text</text>
<text x="86.0" y="660.0" font-size="14" fill="#f1f5f9" text-anchor="start" font-family="Arial, sans-serif">timezone policy: barchart-raw</text>
<text x="606.0" y="660.0" font-size="14" fill="#f1f5f9" text-anchor="start" font-family="Arial, sans-serif">flush points: 0.00</text>
<text x="86.0" y="684.0" font-size="14" fill="#f1f5f9" text-anchor="start" font-family="Arial, sans-serif">reclaim minutes from trap: 0.00</text>
<text x="606.0" y="684.0" font-size="14" fill="#f1f5f9" text-anchor="start" font-family="Arial, sans-serif">acceptance closes: 16</text>
<text x="86.0" y="708.0" font-size="14" fill="#f1f5f9" text-anchor="start" font-family="Arial, sans-serif">non-acceptance held bars: 0</text>
<text x="606.0" y="708.0" font-size="14" fill="#f1f5f9" text-anchor="start" font-family="Arial, sans-serif">MFE 15m: 0.00 | MAE 15m: 0.00</text>
<text x="86.0" y="732.0" font-size="14" fill="#f1f5f9" text-anchor="start" font-family="Arial, sans-serif">research only - verify visually before OCR reuse</text>
<text x="86.0" y="770.0" font-size="13" fill="#f4d35e" text-anchor="start" font-family="Arial, sans-serif">newsletter/source text:</text>
<text x="86.0" y="790.0" font-size="13" fill="#f1f5f9" text-anchor="start" font-family="Arial, sans-serif">Supports are: 7345 (major)</text>
<text x="86.0" y="844.0" font-size="13" fill="#5bc0eb" text-anchor="start" font-family="Arial, sans-serif">case note:</text>
<text x="86.0" y="864.0" font-size="13" fill="#f1f5f9" text-anchor="start" font-family="Arial, sans-serif">Source-priority real Mancini packet. Use the newsletter/source text first; OHLC metrics and deterministic labels are secondary. Source</text>
<text x="86.0" y="882.0" font-size="13" fill="#f1f5f9" text-anchor="start" font-family="Arial, sans-serif">class=support_resistance_list; stat policy=excluded from timing statistics: missing_flush_points, missing_or_nonpositive_reclaim_minutes.</text>
</svg>