<svg xmlns="http://www.w3.org/2000/svg" width="1200" height="980" viewBox="0 0 1200 980">
<rect width="100%" height="100%" fill="#0b0d10"/>
<text x="28.0" y="38.0" font-size="24" fill="#ffffff" text-anchor="start" font-family="Arial, sans-serif">Real Mancini Packet - Accepted Timing - non_acceptance_protocol - level 7355.0</text>
<text x="28.0" y="65.0" font-size="15" fill="#d9e6ff" text-anchor="start" font-family="Arial, sans-serif">non_acceptance_protocol | level 7355.00 | packet mancini-es1m:2026-05-07T1237:7355.0:3a8cb95abc7c</text>
<line x1="70.0" y1="90.0" x2="1110.0" y2="90.0" stroke="#263241" stroke-width="1"/>
<text x="1120.0" y="95.0" font-size="12" fill="#aeb9c8" text-anchor="start" font-family="Arial, sans-serif">7375.75</text>
<line x1="70.0" y1="190.0" x2="1110.0" y2="190.0" stroke="#263241" stroke-width="1"/>
<text x="1120.0" y="195.0" font-size="12" fill="#aeb9c8" text-anchor="start" font-family="Arial, sans-serif">7369.30</text>
<line x1="70.0" y1="290.0" x2="1110.0" y2="290.0" stroke="#263241" stroke-width="1"/>
<text x="1120.0" y="295.0" font-size="12" fill="#aeb9c8" text-anchor="start" font-family="Arial, sans-serif">7362.85</text>
<line x1="70.0" y1="390.0" x2="1110.0" y2="390.0" stroke="#263241" stroke-width="1"/>
<text x="1120.0" y="395.0" font-size="12" fill="#aeb9c8" text-anchor="start" font-family="Arial, sans-serif">7356.40</text>
<line x1="70.0" y1="490.0" x2="1110.0" y2="490.0" stroke="#263241" stroke-width="1"/>
<text x="1120.0" y="495.0" font-size="12" fill="#aeb9c8" text-anchor="start" font-family="Arial, sans-serif">7349.95</text>
<line x1="70.0" y1="590.0" x2="1110.0" y2="590.0" stroke="#263241" stroke-width="1"/>
<text x="1120.0" y="595.0" font-size="12" fill="#aeb9c8" text-anchor="start" font-family="Arial, sans-serif">7343.50</text>
<line x1="70.0" y1="411.7" x2="1110.0" y2="411.7" stroke="#f4d35e" stroke-width="2"/>
<text x="78.0" y="403.7" font-size="13" fill="#f4d35e" text-anchor="start" font-family="Arial, sans-serif">reclaimed level 7355.00</text>
<line x1="70.0" y1="334.2" x2="1110.0" y2="334.2" stroke="#5bc0eb" stroke-width="1.5" stroke-dasharray="8 6"/>
<text x="78.0" y="326.2" font-size="13" fill="#5bc0eb" text-anchor="start" font-family="Arial, sans-serif">non-acceptance danger line level + 5 = 7360.00</text>
<line x1="70.0" y1="559.0" x2="1110.0" y2="559.0" stroke="#f25f5c" stroke-width="1.5" stroke-dasharray="5 5"/>
<text x="78.0" y="577.0" font-size="13" fill="#f25f5c" text-anchor="start" font-family="Arial, sans-serif">invalidation anchor 7345.50</text>
<line x1="86.8" y1="237.3" x2="86.8" y2="307.1" stroke="#32d074" stroke-width="1"/>
<rect x="72.0" y="241.2" width="29.5" height="65.9" fill="#32d074" opacity="0.9"/>
<line x1="120.3" y1="179.1" x2="120.3" y2="245.0" stroke="#32d074" stroke-width="1"/>
<rect x="105.5" y="233.4" width="29.5" height="3.9" fill="#32d074" opacity="0.9"/>
<line x1="153.9" y1="175.3" x2="153.9" y2="241.2" stroke="#32d074" stroke-width="1"/>
<rect x="139.1" y="186.9" width="29.5" height="46.5" fill="#32d074" opacity="0.9"/>
<line x1="187.4" y1="121.0" x2="187.4" y2="349.7" stroke="#ff5c5c" stroke-width="1"/>
<rect x="172.6" y="183.0" width="29.5" height="143.4" fill="#ff5c5c" opacity="0.9"/>
<line x1="221.0" y1="326.4" x2="221.0" y2="516.4" stroke="#ff5c5c" stroke-width="1"/>
<rect x="206.2" y="326.4" width="29.5" height="155.0" fill="#ff5c5c" opacity="0.9"/>
<line x1="254.5" y1="435.0" x2="254.5" y2="555.1" stroke="#32d074" stroke-width="1"/>
<rect x="239.7" y="473.7" width="29.5" height="3.9" fill="#32d074" opacity="0.9"/>
<line x1="254.5" y1="90.0" x2="254.5" y2="590.0" stroke="#ff8c42" stroke-width="2" stroke-dasharray="4 4"/>
<text x="260.5" y="108.0" font-size="12" fill="#ffb37a" text-anchor="start" font-family="Arial, sans-serif">trap candle</text>
<line x1="288.1" y1="341.9" x2="288.1" y2="504.7" stroke="#32d074" stroke-width="1"/>
<rect x="273.3" y="365.2" width="29.5" height="104.7" fill="#32d074" opacity="0.9"/>
<line x1="321.6" y1="307.1" x2="321.6" y2="438.8" stroke="#ff5c5c" stroke-width="1"/>
<rect x="306.8" y="361.3" width="29.5" height="62.0" fill="#ff5c5c" opacity="0.9"/>
<line x1="355.2" y1="396.2" x2="355.2" y2="489.2" stroke="#32d074" stroke-width="1"/>
<rect x="340.4" y="419.5" width="29.5" height="2.0" fill="#32d074" opacity="0.9"/>
<line x1="388.7" y1="388.4" x2="388.7" y2="462.1" stroke="#32d074" stroke-width="1"/>
<rect x="373.9" y="396.2" width="29.5" height="23.3" fill="#32d074" opacity="0.9"/>
<line x1="422.3" y1="334.2" x2="422.3" y2="431.1" stroke="#32d074" stroke-width="1"/>
<rect x="407.5" y="369.1" width="29.5" height="27.1" fill="#32d074" opacity="0.9"/>
<line x1="455.8" y1="361.3" x2="455.8" y2="477.6" stroke="#ff5c5c" stroke-width="1"/>
<rect x="441.0" y="369.1" width="29.5" height="81.4" fill="#ff5c5c" opacity="0.9"/>
<line x1="489.4" y1="341.9" x2="489.4" y2="450.5" stroke="#32d074" stroke-width="1"/>
<rect x="474.6" y="361.3" width="29.5" height="89.1" fill="#32d074" opacity="0.9"/>
<line x1="522.9" y1="353.6" x2="522.9" y2="407.8" stroke="#ff5c5c" stroke-width="1"/>
<rect x="508.1" y="361.3" width="29.5" height="7.8" fill="#ff5c5c" opacity="0.9"/>
<line x1="556.5" y1="318.7" x2="556.5" y2="384.6" stroke="#32d074" stroke-width="1"/>
<rect x="541.7" y="326.4" width="29.5" height="42.6" fill="#32d074" opacity="0.9"/>
<line x1="590.0" y1="264.4" x2="590.0" y2="357.4" stroke="#32d074" stroke-width="1"/>
<rect x="575.2" y="287.7" width="29.5" height="38.8" fill="#32d074" opacity="0.9"/>
<line x1="590.0" y1="90.0" x2="590.0" y2="590.0" stroke="#7bd88f" stroke-width="2" stroke-dasharray="4 4"/>
<text x="596.0" y="126.0" font-size="12" fill="#a7f3b7" text-anchor="start" font-family="Arial, sans-serif">first reclaim close</text>
<line x1="623.5" y1="260.5" x2="623.5" y2="330.3" stroke="#ff5c5c" stroke-width="1"/>
<rect x="608.8" y="287.7" width="29.5" height="23.3" fill="#ff5c5c" opacity="0.9"/>
<line x1="657.1" y1="291.6" x2="657.1" y2="338.1" stroke="#32d074" stroke-width="1"/>
<rect x="642.3" y="303.2" width="29.5" height="7.8" fill="#32d074" opacity="0.9"/>
<line x1="690.6" y1="252.8" x2="690.6" y2="318.7" stroke="#32d074" stroke-width="1"/>
<rect x="675.9" y="299.3" width="29.5" height="3.9" fill="#32d074" opacity="0.9"/>
<line x1="724.2" y1="276.0" x2="724.2" y2="303.2" stroke="#32d074" stroke-width="1"/>
<rect x="709.4" y="295.4" width="29.5" height="3.9" fill="#32d074" opacity="0.9"/>
<line x1="757.7" y1="295.4" x2="757.7" y2="349.7" stroke="#ff5c5c" stroke-width="1"/>
<rect x="743.0" y="299.3" width="29.5" height="42.6" fill="#ff5c5c" opacity="0.9"/>
<line x1="791.3" y1="341.9" x2="791.3" y2="380.7" stroke="#ff5c5c" stroke-width="1"/>
<rect x="776.5" y="345.8" width="29.5" height="11.6" fill="#ff5c5c" opacity="0.9"/>
<line x1="824.8" y1="353.6" x2="824.8" y2="415.6" stroke="#ff5c5c" stroke-width="1"/>
<rect x="810.1" y="357.4" width="29.5" height="38.8" fill="#ff5c5c" opacity="0.9"/>
<line x1="858.4" y1="380.7" x2="858.4" y2="431.1" stroke="#ff5c5c" stroke-width="1"/>
<rect x="843.6" y="400.1" width="29.5" height="11.6" fill="#ff5c5c" opacity="0.9"/>
<line x1="891.9" y1="396.2" x2="891.9" y2="442.7" stroke="#ff5c5c" stroke-width="1"/>
<rect x="877.2" y="411.7" width="29.5" height="27.1" fill="#ff5c5c" opacity="0.9"/>
<line x1="925.5" y1="376.8" x2="925.5" y2="442.7" stroke="#32d074" stroke-width="1"/>
<rect x="910.7" y="400.1" width="29.5" height="38.8" fill="#32d074" opacity="0.9"/>
<line x1="959.0" y1="396.2" x2="959.0" y2="446.6" stroke="#ff5c5c" stroke-width="1"/>
<rect x="944.3" y="396.2" width="29.5" height="31.0" fill="#ff5c5c" opacity="0.9"/>
<line x1="992.6" y1="427.2" x2="992.6" y2="462.1" stroke="#32d074" stroke-width="1"/>
<rect x="977.8" y="431.1" width="29.5" height="2.0" fill="#32d074" opacity="0.9"/>
<line x1="1026.1" y1="427.2" x2="1026.1" y2="497.0" stroke="#32d074" stroke-width="1"/>
<rect x="1011.4" y="427.2" width="29.5" height="3.9" fill="#32d074" opacity="0.9"/>
<line x1="1059.7" y1="396.2" x2="1059.7" y2="458.2" stroke="#ff5c5c" stroke-width="1"/>
<rect x="1044.9" y="427.2" width="29.5" height="15.5" fill="#ff5c5c" opacity="0.9"/>
<line x1="1093.2" y1="446.6" x2="1093.2" y2="493.1" stroke="#ff5c5c" stroke-width="1"/>
<rect x="1078.5" y="446.6" width="29.5" height="38.8" fill="#ff5c5c" opacity="0.9"/>
<rect x="70" y="610" width="1040" height="340" fill="#141922" stroke="#344156" rx="6"/>
<text x="86.0" y="636.0" font-size="14" fill="#f1f5f9" text-anchor="start" font-family="Arial, sans-serif">source: longer-mancini-logs</text>
<text x="606.0" y="636.0" font-size="14" fill="#f1f5f9" text-anchor="start" font-family="Arial, sans-serif">source kind: daily_plan_text</text>
<text x="86.0" y="660.0" font-size="14" fill="#f1f5f9" text-anchor="start" font-family="Arial, sans-serif">timezone policy: barchart-raw</text>
<text x="606.0" y="660.0" font-size="14" fill="#f1f5f9" text-anchor="start" font-family="Arial, sans-serif">flush points: 9.25</text>
<text x="86.0" y="684.0" font-size="14" fill="#f1f5f9" text-anchor="start" font-family="Arial, sans-serif">reclaim minutes from trap: 10.00</text>
<text x="606.0" y="684.0" font-size="14" fill="#f1f5f9" text-anchor="start" font-family="Arial, sans-serif">acceptance closes: 9</text>
<text x="86.0" y="708.0" font-size="14" fill="#f1f5f9" text-anchor="start" font-family="Arial, sans-serif">non-acceptance held bars: 5</text>
<text x="606.0" y="708.0" font-size="14" fill="#f1f5f9" text-anchor="start" font-family="Arial, sans-serif">MFE 15m: 4.75 | MAE 15m: 11.00</text>
<text x="86.0" y="732.0" font-size="14" fill="#f1f5f9" text-anchor="start" font-family="Arial, sans-serif">research only - verify visually before OCR reuse</text>
<text x="86.0" y="770.0" font-size="13" fill="#f4d35e" text-anchor="start" font-family="Arial, sans-serif">newsletter/source text:</text>
<text x="86.0" y="790.0" font-size="13" fill="#f1f5f9" text-anchor="start" font-family="Arial, sans-serif">A much safer entry is to wait for 7345 to defend, then recover 7355 to get long.</text>
<text x="86.0" y="844.0" font-size="13" fill="#5bc0eb" text-anchor="start" font-family="Arial, sans-serif">case note:</text>
<text x="86.0" y="864.0" font-size="13" fill="#f1f5f9" text-anchor="start" font-family="Arial, sans-serif">Source-priority real Mancini packet. Use the newsletter/source text first; OHLC metrics and deterministic labels are secondary. Source</text>
<text x="86.0" y="882.0" font-size="13" fill="#f1f5f9" text-anchor="start" font-family="Arial, sans-serif">class=explicit_mancini_narrative; stat policy=included in timing statistics.</text>
</svg>