<svg xmlns="http://www.w3.org/2000/svg" width="1200" height="760" viewBox="0 0 1200 760">
<rect width="100%" height="100%" fill="#0b0d10"/>
<text x="28.0" y="38.0" font-size="24" fill="#ffffff" text-anchor="start" font-family="Arial, sans-serif">Mancini Failed Breakdown Packet Example</text>
<text x="28.0" y="65.0" font-size="15" fill="#d9e6ff" text-anchor="start" font-family="Arial, sans-serif">classic_acceptance_backtest_from_below | level 7137.00 | packet mancini-es1m:2026-04-30T0117:7137.0:643da9bff5cb</text>
<line x1="70.0" y1="90.0" x2="1110.0" y2="90.0" stroke="#263241" stroke-width="1"/>
<text x="1120.0" y="95.0" font-size="12" fill="#aeb9c8" text-anchor="start" font-family="Arial, sans-serif">7153.25</text>
<line x1="70.0" y1="190.0" x2="1110.0" y2="190.0" stroke="#263241" stroke-width="1"/>
<text x="1120.0" y="195.0" font-size="12" fill="#aeb9c8" text-anchor="start" font-family="Arial, sans-serif">7148.90</text>
<line x1="70.0" y1="290.0" x2="1110.0" y2="290.0" stroke="#263241" stroke-width="1"/>
<text x="1120.0" y="295.0" font-size="12" fill="#aeb9c8" text-anchor="start" font-family="Arial, sans-serif">7144.55</text>
<line x1="70.0" y1="390.0" x2="1110.0" y2="390.0" stroke="#263241" stroke-width="1"/>
<text x="1120.0" y="395.0" font-size="12" fill="#aeb9c8" text-anchor="start" font-family="Arial, sans-serif">7140.20</text>
<line x1="70.0" y1="490.0" x2="1110.0" y2="490.0" stroke="#263241" stroke-width="1"/>
<text x="1120.0" y="495.0" font-size="12" fill="#aeb9c8" text-anchor="start" font-family="Arial, sans-serif">7135.85</text>
<line x1="70.0" y1="590.0" x2="1110.0" y2="590.0" stroke="#263241" stroke-width="1"/>
<text x="1120.0" y="595.0" font-size="12" fill="#aeb9c8" text-anchor="start" font-family="Arial, sans-serif">7131.50</text>
<line x1="70.0" y1="463.6" x2="1110.0" y2="463.6" stroke="#f4d35e" stroke-width="2"/>
<text x="78.0" y="455.6" font-size="13" fill="#f4d35e" text-anchor="start" font-family="Arial, sans-serif">reclaimed level 7137.00</text>
<line x1="70.0" y1="348.6" x2="1110.0" y2="348.6" stroke="#5bc0eb" stroke-width="1.5" stroke-dasharray="8 6"/>
<text x="78.0" y="340.6" font-size="13" fill="#5bc0eb" text-anchor="start" font-family="Arial, sans-serif">non-acceptance danger line level + 5 = 7142.00</text>
<line x1="70.0" y1="544.0" x2="1110.0" y2="544.0" stroke="#f25f5c" stroke-width="1.5" stroke-dasharray="5 5"/>
<text x="78.0" y="562.0" font-size="13" fill="#f25f5c" text-anchor="start" font-family="Arial, sans-serif">invalidation anchor 7133.50</text>
<line x1="86.8" y1="302.6" x2="86.8" y2="377.4" stroke="#ff5c5c" stroke-width="1"/>
<rect x="72.0" y="331.4" width="29.5" height="28.7" fill="#ff5c5c" opacity="0.9"/>
<line x1="120.3" y1="354.4" x2="120.3" y2="383.1" stroke="#ff5c5c" stroke-width="1"/>
<rect x="105.5" y="360.1" width="29.5" height="17.2" fill="#ff5c5c" opacity="0.9"/>
<line x1="153.9" y1="354.4" x2="153.9" y2="388.9" stroke="#ff5c5c" stroke-width="1"/>
<rect x="139.1" y="371.6" width="29.5" height="5.7" fill="#ff5c5c" opacity="0.9"/>
<line x1="187.4" y1="354.4" x2="187.4" y2="388.9" stroke="#ff5c5c" stroke-width="1"/>
<rect x="172.6" y="371.6" width="29.5" height="11.5" fill="#ff5c5c" opacity="0.9"/>
<line x1="221.0" y1="342.9" x2="221.0" y2="406.1" stroke="#32d074" stroke-width="1"/>
<rect x="206.2" y="360.1" width="29.5" height="23.0" fill="#32d074" opacity="0.9"/>
<line x1="254.5" y1="354.4" x2="254.5" y2="417.6" stroke="#ff5c5c" stroke-width="1"/>
<rect x="239.7" y="360.1" width="29.5" height="46.0" fill="#ff5c5c" opacity="0.9"/>
<line x1="288.1" y1="394.6" x2="288.1" y2="440.6" stroke="#ff5c5c" stroke-width="1"/>
<rect x="273.3" y="400.3" width="29.5" height="23.0" fill="#ff5c5c" opacity="0.9"/>
<line x1="321.6" y1="400.3" x2="321.6" y2="434.8" stroke="#32d074" stroke-width="1"/>
<rect x="306.8" y="423.3" width="29.5" height="5.7" fill="#32d074" opacity="0.9"/>
<line x1="355.2" y1="423.3" x2="355.2" y2="498.0" stroke="#ff5c5c" stroke-width="1"/>
<rect x="340.4" y="423.3" width="29.5" height="46.0" fill="#ff5c5c" opacity="0.9"/>
<line x1="388.7" y1="463.6" x2="388.7" y2="538.3" stroke="#ff5c5c" stroke-width="1"/>
<rect x="373.9" y="463.6" width="29.5" height="57.5" fill="#ff5c5c" opacity="0.9"/>
<line x1="388.7" y1="90.0" x2="388.7" y2="590.0" stroke="#ff8c42" stroke-width="2" stroke-dasharray="4 4"/>
<text x="394.7" y="108.0" font-size="12" fill="#ffb37a" text-anchor="start" font-family="Arial, sans-serif">trap candle</text>
<line x1="422.3" y1="446.3" x2="422.3" y2="526.8" stroke="#32d074" stroke-width="1"/>
<rect x="407.5" y="469.3" width="29.5" height="57.5" fill="#32d074" opacity="0.9"/>
<line x1="455.8" y1="463.6" x2="455.8" y2="509.5" stroke="#ff5c5c" stroke-width="1"/>
<rect x="441.0" y="469.3" width="29.5" height="11.5" fill="#ff5c5c" opacity="0.9"/>
<line x1="489.4" y1="446.3" x2="489.4" y2="509.5" stroke="#32d074" stroke-width="1"/>
<rect x="474.6" y="457.8" width="29.5" height="28.7" fill="#32d074" opacity="0.9"/>
<line x1="522.9" y1="417.6" x2="522.9" y2="469.3" stroke="#32d074" stroke-width="1"/>
<rect x="508.1" y="446.3" width="29.5" height="5.7" fill="#32d074" opacity="0.9"/>
<line x1="556.5" y1="406.1" x2="556.5" y2="463.6" stroke="#32d074" stroke-width="1"/>
<rect x="541.7" y="440.6" width="29.5" height="2.0" fill="#32d074" opacity="0.9"/>
<line x1="590.0" y1="423.3" x2="590.0" y2="457.8" stroke="#32d074" stroke-width="1"/>
<rect x="575.2" y="434.8" width="29.5" height="2.0" fill="#32d074" opacity="0.9"/>
<line x1="590.0" y1="90.0" x2="590.0" y2="590.0" stroke="#7bd88f" stroke-width="2" stroke-dasharray="4 4"/>
<text x="596.0" y="126.0" font-size="12" fill="#a7f3b7" text-anchor="start" font-family="Arial, sans-serif">first reclaim close</text>
<line x1="623.5" y1="406.1" x2="623.5" y2="452.1" stroke="#32d074" stroke-width="1"/>
<rect x="608.8" y="429.1" width="29.5" height="5.7" fill="#32d074" opacity="0.9"/>
<line x1="657.1" y1="388.9" x2="657.1" y2="429.1" stroke="#32d074" stroke-width="1"/>
<rect x="642.3" y="406.1" width="29.5" height="17.2" fill="#32d074" opacity="0.9"/>
<line x1="690.6" y1="371.6" x2="690.6" y2="417.6" stroke="#32d074" stroke-width="1"/>
<rect x="675.9" y="371.6" width="29.5" height="34.5" fill="#32d074" opacity="0.9"/>
<line x1="724.2" y1="371.6" x2="724.2" y2="446.3" stroke="#ff5c5c" stroke-width="1"/>
<rect x="709.4" y="371.6" width="29.5" height="63.2" fill="#ff5c5c" opacity="0.9"/>
<line x1="757.7" y1="423.3" x2="757.7" y2="463.6" stroke="#32d074" stroke-width="1"/>
<rect x="743.0" y="429.1" width="29.5" height="2.0" fill="#32d074" opacity="0.9"/>
<line x1="791.3" y1="411.8" x2="791.3" y2="434.8" stroke="#ff5c5c" stroke-width="1"/>
<rect x="776.5" y="423.3" width="29.5" height="5.7" fill="#ff5c5c" opacity="0.9"/>
<line x1="824.8" y1="423.3" x2="824.8" y2="452.1" stroke="#32d074" stroke-width="1"/>
<rect x="810.1" y="429.1" width="29.5" height="5.7" fill="#32d074" opacity="0.9"/>
<line x1="858.4" y1="348.6" x2="858.4" y2="429.1" stroke="#32d074" stroke-width="1"/>
<rect x="843.6" y="348.6" width="29.5" height="80.5" fill="#32d074" opacity="0.9"/>
<line x1="891.9" y1="325.6" x2="891.9" y2="377.4" stroke="#ff5c5c" stroke-width="1"/>
<rect x="877.2" y="348.6" width="29.5" height="28.7" fill="#ff5c5c" opacity="0.9"/>
<line x1="925.5" y1="354.4" x2="925.5" y2="388.9" stroke="#32d074" stroke-width="1"/>
<rect x="910.7" y="360.1" width="29.5" height="17.2" fill="#32d074" opacity="0.9"/>
<line x1="959.0" y1="325.6" x2="959.0" y2="377.4" stroke="#32d074" stroke-width="1"/>
<rect x="944.3" y="337.1" width="29.5" height="23.0" fill="#32d074" opacity="0.9"/>
<line x1="992.6" y1="319.9" x2="992.6" y2="354.4" stroke="#ff5c5c" stroke-width="1"/>
<rect x="977.8" y="331.4" width="29.5" height="5.7" fill="#ff5c5c" opacity="0.9"/>
<line x1="1026.1" y1="262.4" x2="1026.1" y2="337.1" stroke="#32d074" stroke-width="1"/>
<rect x="1011.4" y="285.4" width="29.5" height="51.7" fill="#32d074" opacity="0.9"/>
<line x1="1059.7" y1="216.4" x2="1059.7" y2="291.1" stroke="#32d074" stroke-width="1"/>
<rect x="1044.9" y="233.7" width="29.5" height="57.5" fill="#32d074" opacity="0.9"/>
<line x1="1093.2" y1="136.0" x2="1093.2" y2="239.4" stroke="#32d074" stroke-width="1"/>
<rect x="1078.5" y="153.2" width="29.5" height="74.7" fill="#32d074" opacity="0.9"/>
<rect x="70" y="620" width="1040" height="108" fill="#141922" stroke="#344156" rx="6"/>
<text x="86.0" y="646.0" font-size="14" fill="#f1f5f9" text-anchor="start" font-family="Arial, sans-serif">source: longer-mancini-logs</text>
<text x="606.0" y="646.0" font-size="14" fill="#f1f5f9" text-anchor="start" font-family="Arial, sans-serif">source kind: daily_plan_text</text>
<text x="86.0" y="670.0" font-size="14" fill="#f1f5f9" text-anchor="start" font-family="Arial, sans-serif">flush points: 3.25</text>
<text x="606.0" y="670.0" font-size="14" fill="#f1f5f9" text-anchor="start" font-family="Arial, sans-serif">reclaim minutes from trap: 6.00</text>
<text x="86.0" y="694.0" font-size="14" fill="#f1f5f9" text-anchor="start" font-family="Arial, sans-serif">acceptance closes: 16</text>
<text x="606.0" y="694.0" font-size="14" fill="#f1f5f9" text-anchor="start" font-family="Arial, sans-serif">non-acceptance held bars: 0</text>
<text x="86.0" y="718.0" font-size="14" fill="#f1f5f9" text-anchor="start" font-family="Arial, sans-serif">MFE 15m: 13.00 | MAE 15m: 1.25</text>
<text x="606.0" y="718.0" font-size="14" fill="#f1f5f9" text-anchor="start" font-family="Arial, sans-serif">research only - verify visually before OCR reuse</text>
</svg>