<svg xmlns="http://www.w3.org/2000/svg" width="1200" height="760" viewBox="0 0 1200 760">
<rect width="100%" height="100%" fill="#0b0d10"/>
<text x="28.0" y="38.0" font-size="24" fill="#ffffff" text-anchor="start" font-family="Arial, sans-serif">Mancini Failed Breakdown Packet Example</text>
<text x="28.0" y="65.0" font-size="15" fill="#d9e6ff" text-anchor="start" font-family="Arial, sans-serif">classic_acceptance_second_attempt_reclaim | level 7095.00 | packet mancini-es1m:2026-04-21T1449:7095.0:475069d6aaa9</text>
<line x1="70.0" y1="90.0" x2="1110.0" y2="90.0" stroke="#263241" stroke-width="1"/>
<text x="1120.0" y="95.0" font-size="12" fill="#aeb9c8" text-anchor="start" font-family="Arial, sans-serif">7135.00</text>
<line x1="70.0" y1="190.0" x2="1110.0" y2="190.0" stroke="#263241" stroke-width="1"/>
<text x="1120.0" y="195.0" font-size="12" fill="#aeb9c8" text-anchor="start" font-family="Arial, sans-serif">7124.55</text>
<line x1="70.0" y1="290.0" x2="1110.0" y2="290.0" stroke="#263241" stroke-width="1"/>
<text x="1120.0" y="295.0" font-size="12" fill="#aeb9c8" text-anchor="start" font-family="Arial, sans-serif">7114.10</text>
<line x1="70.0" y1="390.0" x2="1110.0" y2="390.0" stroke="#263241" stroke-width="1"/>
<text x="1120.0" y="395.0" font-size="12" fill="#aeb9c8" text-anchor="start" font-family="Arial, sans-serif">7103.65</text>
<line x1="70.0" y1="490.0" x2="1110.0" y2="490.0" stroke="#263241" stroke-width="1"/>
<text x="1120.0" y="495.0" font-size="12" fill="#aeb9c8" text-anchor="start" font-family="Arial, sans-serif">7093.20</text>
<line x1="70.0" y1="590.0" x2="1110.0" y2="590.0" stroke="#263241" stroke-width="1"/>
<text x="1120.0" y="595.0" font-size="12" fill="#aeb9c8" text-anchor="start" font-family="Arial, sans-serif">7082.75</text>
<line x1="70.0" y1="472.8" x2="1110.0" y2="472.8" stroke="#f4d35e" stroke-width="2"/>
<text x="78.0" y="464.8" font-size="13" fill="#f4d35e" text-anchor="start" font-family="Arial, sans-serif">reclaimed level 7095.00</text>
<line x1="70.0" y1="424.9" x2="1110.0" y2="424.9" stroke="#5bc0eb" stroke-width="1.5" stroke-dasharray="8 6"/>
<text x="78.0" y="416.9" font-size="13" fill="#5bc0eb" text-anchor="start" font-family="Arial, sans-serif">non-acceptance danger line level + 5 = 7100.00</text>
<line x1="70.0" y1="570.9" x2="1110.0" y2="570.9" stroke="#f25f5c" stroke-width="1.5" stroke-dasharray="5 5"/>
<text x="78.0" y="588.9" font-size="13" fill="#f25f5c" text-anchor="start" font-family="Arial, sans-serif">invalidation anchor 7084.75</text>
<line x1="86.8" y1="109.1" x2="86.8" y2="130.7" stroke="#ff5c5c" stroke-width="1"/>
<rect x="72.0" y="109.1" width="29.5" height="4.8" fill="#ff5c5c" opacity="0.9"/>
<line x1="120.3" y1="111.5" x2="120.3" y2="178.5" stroke="#ff5c5c" stroke-width="1"/>
<rect x="105.5" y="111.5" width="29.5" height="67.0" fill="#ff5c5c" opacity="0.9"/>
<line x1="153.9" y1="149.8" x2="153.9" y2="183.3" stroke="#32d074" stroke-width="1"/>
<rect x="139.1" y="168.9" width="29.5" height="9.6" fill="#32d074" opacity="0.9"/>
<line x1="187.4" y1="168.9" x2="187.4" y2="200.0" stroke="#ff5c5c" stroke-width="1"/>
<rect x="172.6" y="168.9" width="29.5" height="12.0" fill="#ff5c5c" opacity="0.9"/>
<line x1="221.0" y1="178.5" x2="221.0" y2="269.4" stroke="#ff5c5c" stroke-width="1"/>
<rect x="206.2" y="180.9" width="29.5" height="55.0" fill="#ff5c5c" opacity="0.9"/>
<line x1="254.5" y1="216.8" x2="254.5" y2="250.3" stroke="#32d074" stroke-width="1"/>
<rect x="239.7" y="216.8" width="29.5" height="19.1" fill="#32d074" opacity="0.9"/>
<line x1="288.1" y1="209.6" x2="288.1" y2="264.6" stroke="#ff5c5c" stroke-width="1"/>
<rect x="273.3" y="216.8" width="29.5" height="16.7" fill="#ff5c5c" opacity="0.9"/>
<line x1="321.6" y1="219.2" x2="321.6" y2="338.8" stroke="#ff5c5c" stroke-width="1"/>
<rect x="306.8" y="233.5" width="29.5" height="93.3" fill="#ff5c5c" opacity="0.9"/>
<line x1="355.2" y1="319.7" x2="355.2" y2="470.4" stroke="#ff5c5c" stroke-width="1"/>
<rect x="340.4" y="329.2" width="29.5" height="114.8" fill="#ff5c5c" opacity="0.9"/>
<line x1="388.7" y1="441.7" x2="388.7" y2="530.2" stroke="#ff5c5c" stroke-width="1"/>
<rect x="373.9" y="446.5" width="29.5" height="57.4" fill="#ff5c5c" opacity="0.9"/>
<line x1="422.3" y1="506.3" x2="422.3" y2="568.5" stroke="#ff5c5c" stroke-width="1"/>
<rect x="407.5" y="506.3" width="29.5" height="7.2" fill="#ff5c5c" opacity="0.9"/>
<line x1="422.3" y1="90.0" x2="422.3" y2="590.0" stroke="#ff8c42" stroke-width="2" stroke-dasharray="4 4"/>
<text x="428.3" y="108.0" font-size="12" fill="#ffb37a" text-anchor="start" font-family="Arial, sans-serif">trap candle</text>
<line x1="455.8" y1="456.0" x2="455.8" y2="523.0" stroke="#32d074" stroke-width="1"/>
<rect x="441.0" y="489.5" width="29.5" height="26.3" fill="#32d074" opacity="0.9"/>
<line x1="489.4" y1="460.8" x2="489.4" y2="503.9" stroke="#32d074" stroke-width="1"/>
<rect x="474.6" y="463.2" width="29.5" height="26.3" fill="#32d074" opacity="0.9"/>
<line x1="522.9" y1="391.4" x2="522.9" y2="463.2" stroke="#32d074" stroke-width="1"/>
<rect x="508.1" y="413.0" width="29.5" height="50.2" fill="#32d074" opacity="0.9"/>
<line x1="556.5" y1="398.6" x2="556.5" y2="453.6" stroke="#ff5c5c" stroke-width="1"/>
<rect x="541.7" y="413.0" width="29.5" height="28.7" fill="#ff5c5c" opacity="0.9"/>
<line x1="590.0" y1="420.1" x2="590.0" y2="472.8" stroke="#32d074" stroke-width="1"/>
<rect x="575.2" y="432.1" width="29.5" height="12.0" fill="#32d074" opacity="0.9"/>
<line x1="590.0" y1="90.0" x2="590.0" y2="590.0" stroke="#7bd88f" stroke-width="2" stroke-dasharray="4 4"/>
<text x="596.0" y="126.0" font-size="12" fill="#a7f3b7" text-anchor="start" font-family="Arial, sans-serif">first reclaim close</text>
<line x1="623.5" y1="357.9" x2="623.5" y2="434.5" stroke="#32d074" stroke-width="1"/>
<rect x="608.8" y="427.3" width="29.5" height="7.2" fill="#32d074" opacity="0.9"/>
<line x1="657.1" y1="424.9" x2="657.1" y2="465.6" stroke="#ff5c5c" stroke-width="1"/>
<rect x="642.3" y="427.3" width="29.5" height="21.5" fill="#ff5c5c" opacity="0.9"/>
<line x1="690.6" y1="448.9" x2="690.6" y2="496.7" stroke="#ff5c5c" stroke-width="1"/>
<rect x="675.9" y="448.9" width="29.5" height="26.3" fill="#ff5c5c" opacity="0.9"/>
<line x1="724.2" y1="448.9" x2="724.2" y2="487.1" stroke="#32d074" stroke-width="1"/>
<rect x="709.4" y="456.0" width="29.5" height="19.1" fill="#32d074" opacity="0.9"/>
<line x1="757.7" y1="429.7" x2="757.7" y2="470.4" stroke="#ff5c5c" stroke-width="1"/>
<rect x="743.0" y="456.0" width="29.5" height="7.2" fill="#ff5c5c" opacity="0.9"/>
<line x1="791.3" y1="405.8" x2="791.3" y2="487.1" stroke="#32d074" stroke-width="1"/>
<rect x="776.5" y="422.5" width="29.5" height="38.3" fill="#32d074" opacity="0.9"/>
<line x1="824.8" y1="413.0" x2="824.8" y2="441.7" stroke="#ff5c5c" stroke-width="1"/>
<rect x="810.1" y="420.1" width="29.5" height="9.6" fill="#ff5c5c" opacity="0.9"/>
<line x1="858.4" y1="424.9" x2="858.4" y2="465.6" stroke="#ff5c5c" stroke-width="1"/>
<rect x="843.6" y="427.3" width="29.5" height="4.8" fill="#ff5c5c" opacity="0.9"/>
<line x1="891.9" y1="415.4" x2="891.9" y2="446.5" stroke="#32d074" stroke-width="1"/>
<rect x="877.2" y="422.5" width="29.5" height="12.0" fill="#32d074" opacity="0.9"/>
<line x1="925.5" y1="389.0" x2="925.5" y2="448.9" stroke="#32d074" stroke-width="1"/>
<rect x="910.7" y="420.1" width="29.5" height="2.4" fill="#32d074" opacity="0.9"/>
<line x1="959.0" y1="408.2" x2="959.0" y2="475.2" stroke="#ff5c5c" stroke-width="1"/>
<rect x="944.3" y="417.8" width="29.5" height="52.6" fill="#ff5c5c" opacity="0.9"/>
<line x1="992.6" y1="463.2" x2="992.6" y2="487.1" stroke="#32d074" stroke-width="1"/>
<rect x="977.8" y="463.2" width="29.5" height="7.2" fill="#32d074" opacity="0.9"/>
<line x1="1026.1" y1="458.4" x2="1026.1" y2="487.1" stroke="#ff5c5c" stroke-width="1"/>
<rect x="1011.4" y="465.6" width="29.5" height="9.6" fill="#ff5c5c" opacity="0.9"/>
<line x1="1059.7" y1="448.9" x2="1059.7" y2="480.0" stroke="#32d074" stroke-width="1"/>
<rect x="1044.9" y="448.9" width="29.5" height="23.9" fill="#32d074" opacity="0.9"/>
<line x1="1093.2" y1="446.5" x2="1093.2" y2="482.3" stroke="#ff5c5c" stroke-width="1"/>
<rect x="1078.5" y="451.2" width="29.5" height="23.9" fill="#ff5c5c" opacity="0.9"/>
<rect x="70" y="620" width="1040" height="108" fill="#141922" stroke="#344156" rx="6"/>
<text x="86.0" y="646.0" font-size="14" fill="#f1f5f9" text-anchor="start" font-family="Arial, sans-serif">source: longer-mancini-logs</text>
<text x="606.0" y="646.0" font-size="14" fill="#f1f5f9" text-anchor="start" font-family="Arial, sans-serif">source kind: daily_plan_text</text>
<text x="86.0" y="670.0" font-size="14" fill="#f1f5f9" text-anchor="start" font-family="Arial, sans-serif">flush points: 10.00</text>
<text x="606.0" y="670.0" font-size="14" fill="#f1f5f9" text-anchor="start" font-family="Arial, sans-serif">reclaim minutes from trap: 5.00</text>
<text x="86.0" y="694.0" font-size="14" fill="#f1f5f9" text-anchor="start" font-family="Arial, sans-serif">acceptance closes: 3</text>
<text x="606.0" y="694.0" font-size="14" fill="#f1f5f9" text-anchor="start" font-family="Arial, sans-serif">non-acceptance held bars: 0</text>
<text x="86.0" y="718.0" font-size="14" fill="#f1f5f9" text-anchor="start" font-family="Arial, sans-serif">MFE 15m: 9.00 | MAE 15m: 5.50</text>
<text x="606.0" y="718.0" font-size="14" fill="#f1f5f9" text-anchor="start" font-family="Arial, sans-serif">research only - verify visually before OCR reuse</text>
</svg>