<svg xmlns="http://www.w3.org/2000/svg" width="1200" height="760" viewBox="0 0 1200 760">
<rect width="100%" height="100%" fill="#0b0d10"/>
<text x="28.0" y="38.0" font-size="24" fill="#ffffff" text-anchor="start" font-family="Arial, sans-serif">Mancini Failed Breakdown Packet Example</text>
<text x="28.0" y="65.0" font-size="15" fill="#d9e6ff" text-anchor="start" font-family="Arial, sans-serif">simple_reclaim_unclassified | level 7267.00 | packet mancini-es1m:2026-05-05T0830:7267.0:bfed98aa1b3b</text>
<line x1="70.0" y1="90.0" x2="1110.0" y2="90.0" stroke="#263241" stroke-width="1"/>
<text x="1120.0" y="95.0" font-size="12" fill="#aeb9c8" text-anchor="start" font-family="Arial, sans-serif">7276.75</text>
<line x1="70.0" y1="190.0" x2="1110.0" y2="190.0" stroke="#263241" stroke-width="1"/>
<text x="1120.0" y="195.0" font-size="12" fill="#aeb9c8" text-anchor="start" font-family="Arial, sans-serif">7273.45</text>
<line x1="70.0" y1="290.0" x2="1110.0" y2="290.0" stroke="#263241" stroke-width="1"/>
<text x="1120.0" y="295.0" font-size="12" fill="#aeb9c8" text-anchor="start" font-family="Arial, sans-serif">7270.15</text>
<line x1="70.0" y1="390.0" x2="1110.0" y2="390.0" stroke="#263241" stroke-width="1"/>
<text x="1120.0" y="395.0" font-size="12" fill="#aeb9c8" text-anchor="start" font-family="Arial, sans-serif">7266.85</text>
<line x1="70.0" y1="490.0" x2="1110.0" y2="490.0" stroke="#263241" stroke-width="1"/>
<text x="1120.0" y="495.0" font-size="12" fill="#aeb9c8" text-anchor="start" font-family="Arial, sans-serif">7263.55</text>
<line x1="70.0" y1="590.0" x2="1110.0" y2="590.0" stroke="#263241" stroke-width="1"/>
<text x="1120.0" y="595.0" font-size="12" fill="#aeb9c8" text-anchor="start" font-family="Arial, sans-serif">7260.25</text>
<line x1="70.0" y1="385.5" x2="1110.0" y2="385.5" stroke="#f4d35e" stroke-width="2"/>
<text x="78.0" y="377.5" font-size="13" fill="#f4d35e" text-anchor="start" font-family="Arial, sans-serif">reclaimed level 7267.00</text>
<line x1="70.0" y1="233.9" x2="1110.0" y2="233.9" stroke="#5bc0eb" stroke-width="1.5" stroke-dasharray="8 6"/>
<text x="78.0" y="225.9" font-size="13" fill="#5bc0eb" text-anchor="start" font-family="Arial, sans-serif">non-acceptance danger line level + 5 = 7272.00</text>
<line x1="70.0" y1="529.4" x2="1110.0" y2="529.4" stroke="#f25f5c" stroke-width="1.5" stroke-dasharray="5 5"/>
<text x="78.0" y="547.4" font-size="13" fill="#f25f5c" text-anchor="start" font-family="Arial, sans-serif">invalidation anchor 7262.25</text>
<line x1="86.8" y1="393.0" x2="86.8" y2="430.9" stroke="#ff5c5c" stroke-width="1"/>
<rect x="72.0" y="415.8" width="29.5" height="15.2" fill="#ff5c5c" opacity="0.9"/>
<line x1="120.3" y1="423.3" x2="120.3" y2="453.6" stroke="#ff5c5c" stroke-width="1"/>
<rect x="105.5" y="438.5" width="29.5" height="7.6" fill="#ff5c5c" opacity="0.9"/>
<line x1="153.9" y1="430.9" x2="153.9" y2="453.6" stroke="#32d074" stroke-width="1"/>
<rect x="139.1" y="446.1" width="29.5" height="7.6" fill="#32d074" opacity="0.9"/>
<line x1="187.4" y1="430.9" x2="187.4" y2="468.8" stroke="#ff5c5c" stroke-width="1"/>
<rect x="172.6" y="453.6" width="29.5" height="7.6" fill="#ff5c5c" opacity="0.9"/>
<line x1="221.0" y1="446.1" x2="221.0" y2="476.4" stroke="#32d074" stroke-width="1"/>
<rect x="206.2" y="468.8" width="29.5" height="2.0" fill="#32d074" opacity="0.9"/>
<line x1="254.5" y1="446.1" x2="254.5" y2="483.9" stroke="#32d074" stroke-width="1"/>
<rect x="239.7" y="461.2" width="29.5" height="7.6" fill="#32d074" opacity="0.9"/>
<line x1="288.1" y1="461.2" x2="288.1" y2="499.1" stroke="#ff5c5c" stroke-width="1"/>
<rect x="273.3" y="461.2" width="29.5" height="15.2" fill="#ff5c5c" opacity="0.9"/>
<line x1="321.6" y1="483.9" x2="321.6" y2="514.2" stroke="#ff5c5c" stroke-width="1"/>
<rect x="306.8" y="483.9" width="29.5" height="15.2" fill="#ff5c5c" opacity="0.9"/>
<line x1="355.2" y1="483.9" x2="355.2" y2="506.7" stroke="#ff5c5c" stroke-width="1"/>
<rect x="340.4" y="491.5" width="29.5" height="15.2" fill="#ff5c5c" opacity="0.9"/>
<line x1="388.7" y1="491.5" x2="388.7" y2="521.8" stroke="#ff5c5c" stroke-width="1"/>
<rect x="373.9" y="506.7" width="29.5" height="7.6" fill="#ff5c5c" opacity="0.9"/>
<line x1="388.7" y1="90.0" x2="388.7" y2="590.0" stroke="#ff8c42" stroke-width="2" stroke-dasharray="4 4"/>
<text x="394.7" y="108.0" font-size="12" fill="#ffb37a" text-anchor="start" font-family="Arial, sans-serif">trap candle</text>
<line x1="422.3" y1="415.8" x2="422.3" y2="506.7" stroke="#32d074" stroke-width="1"/>
<rect x="407.5" y="446.1" width="29.5" height="60.6" fill="#32d074" opacity="0.9"/>
<line x1="455.8" y1="408.2" x2="455.8" y2="446.1" stroke="#32d074" stroke-width="1"/>
<rect x="441.0" y="415.8" width="29.5" height="30.3" fill="#32d074" opacity="0.9"/>
<line x1="489.4" y1="377.9" x2="489.4" y2="423.3" stroke="#32d074" stroke-width="1"/>
<rect x="474.6" y="377.9" width="29.5" height="37.9" fill="#32d074" opacity="0.9"/>
<line x1="522.9" y1="370.3" x2="522.9" y2="430.9" stroke="#32d074" stroke-width="1"/>
<rect x="508.1" y="370.3" width="29.5" height="15.2" fill="#32d074" opacity="0.9"/>
<line x1="556.5" y1="370.3" x2="556.5" y2="408.2" stroke="#ff5c5c" stroke-width="1"/>
<rect x="541.7" y="370.3" width="29.5" height="7.6" fill="#ff5c5c" opacity="0.9"/>
<line x1="590.0" y1="271.8" x2="590.0" y2="423.3" stroke="#32d074" stroke-width="1"/>
<rect x="575.2" y="370.3" width="29.5" height="2.0" fill="#32d074" opacity="0.9"/>
<line x1="590.0" y1="90.0" x2="590.0" y2="590.0" stroke="#7bd88f" stroke-width="2" stroke-dasharray="4 4"/>
<text x="596.0" y="126.0" font-size="12" fill="#a7f3b7" text-anchor="start" font-family="Arial, sans-serif">first reclaim close</text>
<line x1="623.5" y1="362.7" x2="623.5" y2="468.8" stroke="#ff5c5c" stroke-width="1"/>
<rect x="608.8" y="362.7" width="29.5" height="22.7" fill="#ff5c5c" opacity="0.9"/>
<line x1="657.1" y1="347.6" x2="657.1" y2="415.8" stroke="#32d074" stroke-width="1"/>
<rect x="642.3" y="362.7" width="29.5" height="30.3" fill="#32d074" opacity="0.9"/>
<line x1="690.6" y1="271.8" x2="690.6" y2="370.3" stroke="#32d074" stroke-width="1"/>
<rect x="675.9" y="271.8" width="29.5" height="83.3" fill="#32d074" opacity="0.9"/>
<line x1="724.2" y1="233.9" x2="724.2" y2="309.7" stroke="#32d074" stroke-width="1"/>
<rect x="709.4" y="241.5" width="29.5" height="30.3" fill="#32d074" opacity="0.9"/>
<line x1="757.7" y1="211.2" x2="757.7" y2="287.0" stroke="#32d074" stroke-width="1"/>
<rect x="743.0" y="218.8" width="29.5" height="15.2" fill="#32d074" opacity="0.9"/>
<line x1="791.3" y1="173.3" x2="791.3" y2="256.7" stroke="#ff5c5c" stroke-width="1"/>
<rect x="776.5" y="211.2" width="29.5" height="22.7" fill="#ff5c5c" opacity="0.9"/>
<line x1="824.8" y1="233.9" x2="824.8" y2="317.3" stroke="#ff5c5c" stroke-width="1"/>
<rect x="810.1" y="241.5" width="29.5" height="37.9" fill="#ff5c5c" opacity="0.9"/>
<line x1="858.4" y1="287.0" x2="858.4" y2="355.2" stroke="#ff5c5c" stroke-width="1"/>
<rect x="843.6" y="287.0" width="29.5" height="53.0" fill="#ff5c5c" opacity="0.9"/>
<line x1="891.9" y1="271.8" x2="891.9" y2="340.0" stroke="#32d074" stroke-width="1"/>
<rect x="877.2" y="309.7" width="29.5" height="22.7" fill="#32d074" opacity="0.9"/>
<line x1="925.5" y1="256.7" x2="925.5" y2="324.8" stroke="#32d074" stroke-width="1"/>
<rect x="910.7" y="271.8" width="29.5" height="37.9" fill="#32d074" opacity="0.9"/>
<line x1="959.0" y1="203.6" x2="959.0" y2="271.8" stroke="#32d074" stroke-width="1"/>
<rect x="944.3" y="203.6" width="29.5" height="68.2" fill="#32d074" opacity="0.9"/>
<line x1="992.6" y1="203.6" x2="992.6" y2="309.7" stroke="#ff5c5c" stroke-width="1"/>
<rect x="977.8" y="211.2" width="29.5" height="68.2" fill="#ff5c5c" opacity="0.9"/>
<line x1="1026.1" y1="264.2" x2="1026.1" y2="385.5" stroke="#ff5c5c" stroke-width="1"/>
<rect x="1011.4" y="287.0" width="29.5" height="83.3" fill="#ff5c5c" opacity="0.9"/>
<line x1="1059.7" y1="241.5" x2="1059.7" y2="377.9" stroke="#32d074" stroke-width="1"/>
<rect x="1044.9" y="249.1" width="29.5" height="121.2" fill="#32d074" opacity="0.9"/>
<line x1="1093.2" y1="150.6" x2="1093.2" y2="264.2" stroke="#32d074" stroke-width="1"/>
<rect x="1078.5" y="165.8" width="29.5" height="83.3" fill="#32d074" opacity="0.9"/>
<rect x="70" y="620" width="1040" height="108" fill="#141922" stroke="#344156" rx="6"/>
<text x="86.0" y="646.0" font-size="14" fill="#f1f5f9" text-anchor="start" font-family="Arial, sans-serif">source: longer-mancini-logs</text>
<text x="606.0" y="646.0" font-size="14" fill="#f1f5f9" text-anchor="start" font-family="Arial, sans-serif">source kind: daily_plan_text</text>
<text x="86.0" y="670.0" font-size="14" fill="#f1f5f9" text-anchor="start" font-family="Arial, sans-serif">flush points: 4.50</text>
<text x="606.0" y="670.0" font-size="14" fill="#f1f5f9" text-anchor="start" font-family="Arial, sans-serif">reclaim minutes from trap: 6.00</text>
<text x="86.0" y="694.0" font-size="14" fill="#f1f5f9" text-anchor="start" font-family="Arial, sans-serif">acceptance closes: 16</text>
<text x="606.0" y="694.0" font-size="14" fill="#f1f5f9" text-anchor="start" font-family="Arial, sans-serif">non-acceptance held bars: 0</text>
<text x="86.0" y="718.0" font-size="14" fill="#f1f5f9" text-anchor="start" font-family="Arial, sans-serif">MFE 15m: 7.25 | MAE 15m: 3.25</text>
<text x="606.0" y="718.0" font-size="14" fill="#f1f5f9" text-anchor="start" font-family="Arial, sans-serif">research only - verify visually before OCR reuse</text>
</svg>